<?xml version="1.0" encoding="utf-8" standalone="no"?>
<!DOCTYPE svg PUBLIC "-//W3C//DTD SVG 1.1//EN"
  "http://www.w3.org/Graphics/SVG/1.1/DTD/svg11.dtd">
<svg xmlns:xlink="http://www.w3.org/1999/xlink" width="720pt" height="360pt" viewBox="0 0 720 360" xmlns="http://www.w3.org/2000/svg" version="1.1">
 <metadata>
  <rdf:RDF xmlns:dc="http://purl.org/dc/elements/1.1/" xmlns:cc="http://creativecommons.org/ns#" xmlns:rdf="http://www.w3.org/1999/02/22-rdf-syntax-ns#">
   <cc:Work>
    <dc:type rdf:resource="http://purl.org/dc/dcmitype/StillImage"/>
    <dc:date>2024-12-09T17:25:50.946004</dc:date>
    <dc:format>image/svg+xml</dc:format>
    <dc:creator>
     <cc:Agent>
      <dc:title>Matplotlib v3.9.2, https://matplotlib.org/</dc:title>
     </cc:Agent>
    </dc:creator>
   </cc:Work>
  </rdf:RDF>
 </metadata>
 <defs>
  <style type="text/css">*{stroke-linejoin: round; stroke-linecap: butt}</style>
 </defs>
 <g id="figure_1">
  <g id="patch_1">
   <path d="M 0 360 
L 720 360 
L 720 0 
L 0 0 
z
" style="fill: #ffffff"/>
  </g>
  <g id="axes_1">
   <g id="patch_2">
    <path d="M 90 98.64 
L 648 98.64 
L 648 43.2 
L 90 43.2 
z
" style="fill: #ffffff"/>
   </g>
   <g id="matplotlib.axis_1">
    <g id="xtick_1">
     <g id="line2d_1">
      <defs>
       <path id="m4645f55829" d="M 0 0 
L 0 3.5 
" style="stroke: #000000; stroke-width: 0.8"/>
      </defs>
      <g>
       <use xlink:href="#m4645f55829" x="115.363636" y="98.64" style="stroke: #000000; stroke-width: 0.8"/>
      </g>
     </g>
    </g>
    <g id="xtick_2">
     <g id="line2d_2">
      <g>
       <use xlink:href="#m4645f55829" x="220.441558" y="98.64" style="stroke: #000000; stroke-width: 0.8"/>
      </g>
     </g>
    </g>
    <g id="xtick_3">
     <g id="line2d_3">
      <g>
       <use xlink:href="#m4645f55829" x="325.519481" y="98.64" style="stroke: #000000; stroke-width: 0.8"/>
      </g>
     </g>
    </g>
    <g id="xtick_4">
     <g id="line2d_4">
      <g>
       <use xlink:href="#m4645f55829" x="430.597403" y="98.64" style="stroke: #000000; stroke-width: 0.8"/>
      </g>
     </g>
    </g>
    <g id="xtick_5">
     <g id="line2d_5">
      <g>
       <use xlink:href="#m4645f55829" x="535.675325" y="98.64" style="stroke: #000000; stroke-width: 0.8"/>
      </g>
     </g>
    </g>
    <g id="xtick_6">
     <g id="line2d_6">
      <g>
       <use xlink:href="#m4645f55829" x="640.753247" y="98.64" style="stroke: #000000; stroke-width: 0.8"/>
      </g>
     </g>
    </g>
   </g>
   <g id="matplotlib.axis_2">
    <g id="ytick_1">
     <g id="line2d_7">
      <defs>
       <path id="m1374789be1" d="M 0 0 
L -3.5 0 
" style="stroke: #000000; stroke-width: 0.8"/>
      </defs>
      <g>
       <use xlink:href="#m1374789be1" x="90" y="88.245" style="stroke: #000000; stroke-width: 0.8"/>
      </g>
     </g>
     <g id="text_1">
      <!-- 0 -->
      <g transform="translate(76.6375 92.044219) scale(0.1 -0.1)">
       <defs>
        <path id="DejaVuSans-30" d="M 2034 4250 
Q 1547 4250 1301 3770 
Q 1056 3291 1056 2328 
Q 1056 1369 1301 889 
Q 1547 409 2034 409 
Q 2525 409 2770 889 
Q 3016 1369 3016 2328 
Q 3016 3291 2770 3770 
Q 2525 4250 2034 4250 
z
M 2034 4750 
Q 2819 4750 3233 4129 
Q 3647 3509 3647 2328 
Q 3647 1150 3233 529 
Q 2819 -91 2034 -91 
Q 1250 -91 836 529 
Q 422 1150 422 2328 
Q 422 3509 836 4129 
Q 1250 4750 2034 4750 
z
" transform="scale(0.015625)"/>
       </defs>
       <use xlink:href="#DejaVuSans-30"/>
      </g>
     </g>
    </g>
    <g id="ytick_2">
     <g id="line2d_8">
      <g>
       <use xlink:href="#m1374789be1" x="90" y="53.595" style="stroke: #000000; stroke-width: 0.8"/>
      </g>
     </g>
     <g id="text_2">
      <!-- 1 -->
      <g transform="translate(76.6375 57.394219) scale(0.1 -0.1)">
       <defs>
        <path id="DejaVuSans-31" d="M 794 531 
L 1825 531 
L 1825 4091 
L 703 3866 
L 703 4441 
L 1819 4666 
L 2450 4666 
L 2450 531 
L 3481 531 
L 3481 0 
L 794 0 
L 794 531 
z
" transform="scale(0.015625)"/>
       </defs>
       <use xlink:href="#DejaVuSans-31"/>
      </g>
     </g>
    </g>
   </g>
   <g id="line2d_9">
    <defs>
     <path id="me40aa3647b" d="M 0 2.5 
C 0.663008 2.5 1.29895 2.236584 1.767767 1.767767 
C 2.236584 1.29895 2.5 0.663008 2.5 0 
C 2.5 -0.663008 2.236584 -1.29895 1.767767 -1.767767 
C 1.29895 -2.236584 0.663008 -2.5 0 -2.5 
C -0.663008 -2.5 -1.29895 -2.236584 -1.767767 -1.767767 
C -2.236584 -1.29895 -2.5 -0.663008 -2.5 0 
C -2.5 0.663008 -2.236584 1.29895 -1.767767 1.767767 
C -1.29895 2.236584 -0.663008 2.5 0 2.5 
z
" style="stroke: #663399"/>
    </defs>
    <g clip-path="url(#p8d521b2920)">
     <use xlink:href="#me40aa3647b" x="115.363636" y="53.595" style="fill: #663399; stroke: #663399"/>
     <use xlink:href="#me40aa3647b" x="133.480519" y="65.41178" style="fill: #663399; stroke: #663399"/>
     <use xlink:href="#me40aa3647b" x="151.597403" y="72.473601" style="fill: #663399; stroke: #663399"/>
     <use xlink:href="#me40aa3647b" x="169.714286" y="76.192826" style="fill: #663399; stroke: #663399"/>
     <use xlink:href="#me40aa3647b" x="187.831169" y="78.311372" style="fill: #663399; stroke: #663399"/>
     <use xlink:href="#me40aa3647b" x="205.948052" y="80.194524" style="fill: #663399; stroke: #663399"/>
     <use xlink:href="#me40aa3647b" x="224.064935" y="83.207568" style="fill: #663399; stroke: #663399"/>
     <use xlink:href="#me40aa3647b" x="242.181818" y="83.725435" style="fill: #663399; stroke: #663399"/>
     <use xlink:href="#me40aa3647b" x="260.298701" y="84.102065" style="fill: #663399; stroke: #663399"/>
     <use xlink:href="#me40aa3647b" x="278.415584" y="85.184878" style="fill: #663399; stroke: #663399"/>
     <use xlink:href="#me40aa3647b" x="296.532468" y="85.561508" style="fill: #663399; stroke: #663399"/>
     <use xlink:href="#me40aa3647b" x="314.649351" y="86.832636" style="fill: #663399; stroke: #663399"/>
     <use xlink:href="#me40aa3647b" x="332.766234" y="86.691399" style="fill: #663399; stroke: #663399"/>
     <use xlink:href="#me40aa3647b" x="350.883117" y="86.785557" style="fill: #663399; stroke: #663399"/>
     <use xlink:href="#me40aa3647b" x="369" y="87.115109" style="fill: #663399; stroke: #663399"/>
     <use xlink:href="#me40aa3647b" x="387.116883" y="87.162188" style="fill: #663399; stroke: #663399"/>
     <use xlink:href="#me40aa3647b" x="405.233766" y="86.973872" style="fill: #663399; stroke: #663399"/>
     <use xlink:href="#me40aa3647b" x="423.350649" y="87.397582" style="fill: #663399; stroke: #663399"/>
     <use xlink:href="#me40aa3647b" x="441.467532" y="87.44466" style="fill: #663399; stroke: #663399"/>
     <use xlink:href="#me40aa3647b" x="459.584416" y="87.585897" style="fill: #663399; stroke: #663399"/>
     <use xlink:href="#me40aa3647b" x="477.701299" y="87.86837" style="fill: #663399; stroke: #663399"/>
     <use xlink:href="#me40aa3647b" x="495.818182" y="87.821291" style="fill: #663399; stroke: #663399"/>
     <use xlink:href="#me40aa3647b" x="513.935065" y="87.632976" style="fill: #663399; stroke: #663399"/>
     <use xlink:href="#me40aa3647b" x="532.051948" y="87.585897" style="fill: #663399; stroke: #663399"/>
     <use xlink:href="#me40aa3647b" x="550.168831" y="87.821291" style="fill: #663399; stroke: #663399"/>
     <use xlink:href="#me40aa3647b" x="568.285714" y="87.86837" style="fill: #663399; stroke: #663399"/>
     <use xlink:href="#me40aa3647b" x="586.402597" y="87.86837" style="fill: #663399; stroke: #663399"/>
     <use xlink:href="#me40aa3647b" x="604.519481" y="87.962527" style="fill: #663399; stroke: #663399"/>
     <use xlink:href="#me40aa3647b" x="622.636364" y="88.103764" style="fill: #663399; stroke: #663399"/>
    </g>
   </g>
   <g id="line2d_10">
    <path d="M 115.363636 62.595647 
L 133.480519 68.228645 
L 151.597403 72.605023 
L 169.714286 76.005109 
L 187.831169 78.646698 
L 205.948052 80.698996 
L 224.064935 82.293464 
L 242.181818 83.532234 
L 260.298701 84.494658 
L 278.415584 85.242382 
L 296.532468 85.823302 
L 314.649351 86.27463 
L 332.766234 86.625274 
L 350.883117 86.897696 
L 369 87.109346 
L 387.116883 87.27378 
L 405.233766 87.401532 
L 423.350649 87.500785 
L 441.467532 87.577896 
L 459.584416 87.637805 
L 477.701299 87.68435 
L 495.818182 87.720511 
L 513.935065 87.748606 
L 532.051948 87.770433 
L 550.168831 87.78739 
L 568.285714 87.800565 
L 586.402597 87.810801 
L 604.519481 87.818753 
L 622.636364 87.824932 
" clip-path="url(#p8d521b2920)" style="fill: none; stroke-dasharray: 3.7,1.6; stroke-dashoffset: 0; stroke: #000000; stroke-opacity: 0.9"/>
   </g>
   <g id="patch_3">
    <path d="M 90 98.64 
L 90 43.2 
" style="fill: none; stroke: #000000; stroke-width: 0.8; stroke-linejoin: miter; stroke-linecap: square"/>
   </g>
   <g id="patch_4">
    <path d="M 648 98.64 
L 648 43.2 
" style="fill: none; stroke: #000000; stroke-width: 0.8; stroke-linejoin: miter; stroke-linecap: square"/>
   </g>
   <g id="patch_5">
    <path d="M 90 98.64 
L 648 98.64 
" style="fill: none; stroke: #000000; stroke-width: 0.8; stroke-linejoin: miter; stroke-linecap: square"/>
   </g>
   <g id="patch_6">
    <path d="M 90 43.2 
L 648 43.2 
" style="fill: none; stroke: #000000; stroke-width: 0.8; stroke-linejoin: miter; stroke-linecap: square"/>
   </g>
   <g id="legend_1">
    <g id="patch_7">
     <path d="M 470.692969 77.217187 
L 637.5 77.217187 
Q 640.5 77.217187 640.5 74.217187 
L 640.5 53.7 
Q 640.5 50.7 637.5 50.7 
L 470.692969 50.7 
Q 467.692969 50.7 467.692969 53.7 
L 467.692969 74.217187 
Q 467.692969 77.217187 470.692969 77.217187 
z
" style="fill: #ffffff; opacity: 0.8; stroke: #cccccc; stroke-linejoin: miter"/>
    </g>
    <g id="line2d_11">
     <g>
      <use xlink:href="#me40aa3647b" x="488.692969" y="62.847656" style="fill: #663399; stroke: #663399"/>
     </g>
    </g>
    <g id="text_3">
     <!-- UVA, t=137 ± 6 -->
     <g transform="translate(515.692969 68.097656) scale(0.15 -0.15)">
      <defs>
       <path id="DejaVuSans-55" d="M 556 4666 
L 1191 4666 
L 1191 1831 
Q 1191 1081 1462 751 
Q 1734 422 2344 422 
Q 2950 422 3222 751 
Q 3494 1081 3494 1831 
L 3494 4666 
L 4128 4666 
L 4128 1753 
Q 4128 841 3676 375 
Q 3225 -91 2344 -91 
Q 1459 -91 1007 375 
Q 556 841 556 1753 
L 556 4666 
z
" transform="scale(0.015625)"/>
       <path id="DejaVuSans-56" d="M 1831 0 
L 50 4666 
L 709 4666 
L 2188 738 
L 3669 4666 
L 4325 4666 
L 2547 0 
L 1831 0 
z
" transform="scale(0.015625)"/>
       <path id="DejaVuSans-41" d="M 2188 4044 
L 1331 1722 
L 3047 1722 
L 2188 4044 
z
M 1831 4666 
L 2547 4666 
L 4325 0 
L 3669 0 
L 3244 1197 
L 1141 1197 
L 716 0 
L 50 0 
L 1831 4666 
z
" transform="scale(0.015625)"/>
       <path id="DejaVuSans-2c" d="M 750 794 
L 1409 794 
L 1409 256 
L 897 -744 
L 494 -744 
L 750 256 
L 750 794 
z
" transform="scale(0.015625)"/>
       <path id="DejaVuSans-20" transform="scale(0.015625)"/>
       <path id="DejaVuSans-74" d="M 1172 4494 
L 1172 3500 
L 2356 3500 
L 2356 3053 
L 1172 3053 
L 1172 1153 
Q 1172 725 1289 603 
Q 1406 481 1766 481 
L 2356 481 
L 2356 0 
L 1766 0 
Q 1100 0 847 248 
Q 594 497 594 1153 
L 594 3053 
L 172 3053 
L 172 3500 
L 594 3500 
L 594 4494 
L 1172 4494 
z
" transform="scale(0.015625)"/>
       <path id="DejaVuSans-3d" d="M 678 2906 
L 4684 2906 
L 4684 2381 
L 678 2381 
L 678 2906 
z
M 678 1631 
L 4684 1631 
L 4684 1100 
L 678 1100 
L 678 1631 
z
" transform="scale(0.015625)"/>
       <path id="DejaVuSans-33" d="M 2597 2516 
Q 3050 2419 3304 2112 
Q 3559 1806 3559 1356 
Q 3559 666 3084 287 
Q 2609 -91 1734 -91 
Q 1441 -91 1130 -33 
Q 819 25 488 141 
L 488 750 
Q 750 597 1062 519 
Q 1375 441 1716 441 
Q 2309 441 2620 675 
Q 2931 909 2931 1356 
Q 2931 1769 2642 2001 
Q 2353 2234 1838 2234 
L 1294 2234 
L 1294 2753 
L 1863 2753 
Q 2328 2753 2575 2939 
Q 2822 3125 2822 3475 
Q 2822 3834 2567 4026 
Q 2313 4219 1838 4219 
Q 1578 4219 1281 4162 
Q 984 4106 628 3988 
L 628 4550 
Q 988 4650 1302 4700 
Q 1616 4750 1894 4750 
Q 2613 4750 3031 4423 
Q 3450 4097 3450 3541 
Q 3450 3153 3228 2886 
Q 3006 2619 2597 2516 
z
" transform="scale(0.015625)"/>
       <path id="DejaVuSans-37" d="M 525 4666 
L 3525 4666 
L 3525 4397 
L 1831 0 
L 1172 0 
L 2766 4134 
L 525 4134 
L 525 4666 
z
" transform="scale(0.015625)"/>
       <path id="DejaVuSans-b1" d="M 2944 4013 
L 2944 2803 
L 4684 2803 
L 4684 2272 
L 2944 2272 
L 2944 1063 
L 2419 1063 
L 2419 2272 
L 678 2272 
L 678 2803 
L 2419 2803 
L 2419 4013 
L 2944 4013 
z
M 678 531 
L 4684 531 
L 4684 0 
L 678 0 
L 678 531 
z
" transform="scale(0.015625)"/>
       <path id="DejaVuSans-36" d="M 2113 2584 
Q 1688 2584 1439 2293 
Q 1191 2003 1191 1497 
Q 1191 994 1439 701 
Q 1688 409 2113 409 
Q 2538 409 2786 701 
Q 3034 994 3034 1497 
Q 3034 2003 2786 2293 
Q 2538 2584 2113 2584 
z
M 3366 4563 
L 3366 3988 
Q 3128 4100 2886 4159 
Q 2644 4219 2406 4219 
Q 1781 4219 1451 3797 
Q 1122 3375 1075 2522 
Q 1259 2794 1537 2939 
Q 1816 3084 2150 3084 
Q 2853 3084 3261 2657 
Q 3669 2231 3669 1497 
Q 3669 778 3244 343 
Q 2819 -91 2113 -91 
Q 1303 -91 875 529 
Q 447 1150 447 2328 
Q 447 3434 972 4092 
Q 1497 4750 2381 4750 
Q 2619 4750 2861 4703 
Q 3103 4656 3366 4563 
z
" transform="scale(0.015625)"/>
      </defs>
      <use xlink:href="#DejaVuSans-55"/>
      <use xlink:href="#DejaVuSans-56" x="73.193359"/>
      <use xlink:href="#DejaVuSans-41" x="135.226562"/>
      <use xlink:href="#DejaVuSans-2c" x="203.634766"/>
      <use xlink:href="#DejaVuSans-20" x="235.421875"/>
      <use xlink:href="#DejaVuSans-74" x="267.208984"/>
      <use xlink:href="#DejaVuSans-3d" x="306.417969"/>
      <use xlink:href="#DejaVuSans-31" x="390.207031"/>
      <use xlink:href="#DejaVuSans-33" x="453.830078"/>
      <use xlink:href="#DejaVuSans-37" x="517.453125"/>
      <use xlink:href="#DejaVuSans-20" x="581.076172"/>
      <use xlink:href="#DejaVuSans-b1" x="612.863281"/>
      <use xlink:href="#DejaVuSans-20" x="696.652344"/>
      <use xlink:href="#DejaVuSans-36" x="728.439453"/>
     </g>
    </g>
   </g>
  </g>
  <g id="axes_2">
   <g id="patch_8">
    <path d="M 90 154.08 
L 648 154.08 
L 648 98.64 
L 90 98.64 
z
" style="fill: #ffffff"/>
   </g>
   <g id="matplotlib.axis_3">
    <g id="xtick_7">
     <g id="line2d_12">
      <g>
       <use xlink:href="#m4645f55829" x="115.363636" y="154.08" style="stroke: #000000; stroke-width: 0.8"/>
      </g>
     </g>
    </g>
    <g id="xtick_8">
     <g id="line2d_13">
      <g>
       <use xlink:href="#m4645f55829" x="220.441558" y="154.08" style="stroke: #000000; stroke-width: 0.8"/>
      </g>
     </g>
    </g>
    <g id="xtick_9">
     <g id="line2d_14">
      <g>
       <use xlink:href="#m4645f55829" x="325.519481" y="154.08" style="stroke: #000000; stroke-width: 0.8"/>
      </g>
     </g>
    </g>
    <g id="xtick_10">
     <g id="line2d_15">
      <g>
       <use xlink:href="#m4645f55829" x="430.597403" y="154.08" style="stroke: #000000; stroke-width: 0.8"/>
      </g>
     </g>
    </g>
    <g id="xtick_11">
     <g id="line2d_16">
      <g>
       <use xlink:href="#m4645f55829" x="535.675325" y="154.08" style="stroke: #000000; stroke-width: 0.8"/>
      </g>
     </g>
    </g>
    <g id="xtick_12">
     <g id="line2d_17">
      <g>
       <use xlink:href="#m4645f55829" x="640.753247" y="154.08" style="stroke: #000000; stroke-width: 0.8"/>
      </g>
     </g>
    </g>
   </g>
   <g id="matplotlib.axis_4">
    <g id="ytick_3">
     <g id="line2d_18">
      <g>
       <use xlink:href="#m1374789be1" x="90" y="143.685" style="stroke: #000000; stroke-width: 0.8"/>
      </g>
     </g>
     <g id="text_4">
      <!-- 0 -->
      <g transform="translate(76.6375 147.484219) scale(0.1 -0.1)">
       <use xlink:href="#DejaVuSans-30"/>
      </g>
     </g>
    </g>
    <g id="ytick_4">
     <g id="line2d_19">
      <g>
       <use xlink:href="#m1374789be1" x="90" y="109.035" style="stroke: #000000; stroke-width: 0.8"/>
      </g>
     </g>
     <g id="text_5">
      <!-- 1 -->
      <g transform="translate(76.6375 112.834219) scale(0.1 -0.1)">
       <use xlink:href="#DejaVuSans-31"/>
      </g>
     </g>
    </g>
   </g>
   <g id="line2d_20">
    <defs>
     <path id="m4e1277fe81" d="M 0 2.5 
C 0.663008 2.5 1.29895 2.236584 1.767767 1.767767 
C 2.236584 1.29895 2.5 0.663008 2.5 0 
C 2.5 -0.663008 2.236584 -1.29895 1.767767 -1.767767 
C 1.29895 -2.236584 0.663008 -2.5 0 -2.5 
C -0.663008 -2.5 -1.29895 -2.236584 -1.767767 -1.767767 
C -2.236584 -1.29895 -2.5 -0.663008 -2.5 0 
C -2.5 0.663008 -2.236584 1.29895 -1.767767 1.767767 
C -1.29895 2.236584 -0.663008 2.5 0 2.5 
z
" style="stroke: #0000ff"/>
    </defs>
    <g clip-path="url(#p0618ccad31)">
     <use xlink:href="#m4e1277fe81" x="115.363636" y="109.035" style="fill: #0000ff; stroke: #0000ff"/>
     <use xlink:href="#m4e1277fe81" x="133.480519" y="115.132245" style="fill: #0000ff; stroke: #0000ff"/>
     <use xlink:href="#m4e1277fe81" x="151.597403" y="121.197399" style="fill: #0000ff; stroke: #0000ff"/>
     <use xlink:href="#m4e1277fe81" x="169.714286" y="125.802423" style="fill: #0000ff; stroke: #0000ff"/>
     <use xlink:href="#m4e1277fe81" x="187.831169" y="129.749587" style="fill: #0000ff; stroke: #0000ff"/>
     <use xlink:href="#m4e1277fe81" x="205.948052" y="131.987917" style="fill: #0000ff; stroke: #0000ff"/>
     <use xlink:href="#m4e1277fe81" x="224.064935" y="134.234271" style="fill: #0000ff; stroke: #0000ff"/>
     <use xlink:href="#m4e1277fe81" x="242.181818" y="135.78265" style="fill: #0000ff; stroke: #0000ff"/>
     <use xlink:href="#m4e1277fe81" x="260.298701" y="137.250802" style="fill: #0000ff; stroke: #0000ff"/>
     <use xlink:href="#m4e1277fe81" x="278.415584" y="138.229571" style="fill: #0000ff; stroke: #0000ff"/>
     <use xlink:href="#m4e1277fe81" x="296.532468" y="138.686864" style="fill: #0000ff; stroke: #0000ff"/>
     <use xlink:href="#m4e1277fe81" x="314.649351" y="139.89829" style="fill: #0000ff; stroke: #0000ff"/>
     <use xlink:href="#m4e1277fe81" x="332.766234" y="140.098857" style="fill: #0000ff; stroke: #0000ff"/>
     <use xlink:href="#m4e1277fe81" x="350.883117" y="140.788809" style="fill: #0000ff; stroke: #0000ff"/>
     <use xlink:href="#m4e1277fe81" x="369" y="141.085648" style="fill: #0000ff; stroke: #0000ff"/>
     <use xlink:href="#m4e1277fe81" x="387.116883" y="141.254125" style="fill: #0000ff; stroke: #0000ff"/>
     <use xlink:href="#m4e1277fe81" x="405.233766" y="141.783622" style="fill: #0000ff; stroke: #0000ff"/>
     <use xlink:href="#m4e1277fe81" x="423.350649" y="141.960122" style="fill: #0000ff; stroke: #0000ff"/>
     <use xlink:href="#m4e1277fe81" x="441.467532" y="142.273006" style="fill: #0000ff; stroke: #0000ff"/>
     <use xlink:href="#m4e1277fe81" x="459.584416" y="142.248938" style="fill: #0000ff; stroke: #0000ff"/>
     <use xlink:href="#m4e1277fe81" x="477.701299" y="142.529733" style="fill: #0000ff; stroke: #0000ff"/>
     <use xlink:href="#m4e1277fe81" x="495.818182" y="142.585891" style="fill: #0000ff; stroke: #0000ff"/>
     <use xlink:href="#m4e1277fe81" x="513.935065" y="142.834595" style="fill: #0000ff; stroke: #0000ff"/>
     <use xlink:href="#m4e1277fe81" x="532.051948" y="142.979003" style="fill: #0000ff; stroke: #0000ff"/>
     <use xlink:href="#m4e1277fe81" x="550.168831" y="142.946912" style="fill: #0000ff; stroke: #0000ff"/>
     <use xlink:href="#m4e1277fe81" x="568.285714" y="142.954935" style="fill: #0000ff; stroke: #0000ff"/>
     <use xlink:href="#m4e1277fe81" x="586.402597" y="142.979003" style="fill: #0000ff; stroke: #0000ff"/>
     <use xlink:href="#m4e1277fe81" x="604.519481" y="143.235729" style="fill: #0000ff; stroke: #0000ff"/>
     <use xlink:href="#m4e1277fe81" x="622.636364" y="143.259797" style="fill: #0000ff; stroke: #0000ff"/>
    </g>
   </g>
   <g id="line2d_21">
    <path d="M 115.363636 112.198441 
L 133.480519 117.878227 
L 151.597403 122.513627 
L 169.714286 126.296681 
L 187.831169 129.384116 
L 205.948052 131.90384 
L 224.064935 133.960244 
L 242.181818 135.638521 
L 260.298701 137.008201 
L 278.415584 138.126027 
L 296.532468 139.03831 
L 314.649351 139.782844 
L 332.766234 140.390475 
L 350.883117 140.886377 
L 369 141.291093 
L 387.116883 141.621391 
L 405.233766 141.890955 
L 423.350649 142.110952 
L 441.467532 142.290496 
L 459.584416 142.437026 
L 477.701299 142.556613 
L 495.818182 142.65421 
L 513.935065 142.733861 
L 532.051948 142.798867 
L 550.168831 142.851919 
L 568.285714 142.895216 
L 586.402597 142.930552 
L 604.519481 142.95939 
L 622.636364 142.982925 
" clip-path="url(#p0618ccad31)" style="fill: none; stroke-dasharray: 3.7,1.6; stroke-dashoffset: 0; stroke: #000000; stroke-opacity: 0.9"/>
   </g>
   <g id="patch_9">
    <path d="M 90 154.08 
L 90 98.64 
" style="fill: none; stroke: #000000; stroke-width: 0.8; stroke-linejoin: miter; stroke-linecap: square"/>
   </g>
   <g id="patch_10">
    <path d="M 648 154.08 
L 648 98.64 
" style="fill: none; stroke: #000000; stroke-width: 0.8; stroke-linejoin: miter; stroke-linecap: square"/>
   </g>
   <g id="patch_11">
    <path d="M 90 154.08 
L 648 154.08 
" style="fill: none; stroke: #000000; stroke-width: 0.8; stroke-linejoin: miter; stroke-linecap: square"/>
   </g>
   <g id="patch_12">
    <path d="M 90 98.64 
L 648 98.64 
" style="fill: none; stroke: #000000; stroke-width: 0.8; stroke-linejoin: miter; stroke-linecap: square"/>
   </g>
   <g id="legend_2">
    <g id="patch_13">
     <path d="M 490.945312 132.657187 
L 637.5 132.657187 
Q 640.5 132.657187 640.5 129.657187 
L 640.5 109.14 
Q 640.5 106.14 637.5 106.14 
L 490.945312 106.14 
Q 487.945312 106.14 487.945312 109.14 
L 487.945312 129.657187 
Q 487.945312 132.657187 490.945312 132.657187 
z
" style="fill: #ffffff; opacity: 0.8; stroke: #cccccc; stroke-linejoin: miter"/>
    </g>
    <g id="line2d_22">
     <g>
      <use xlink:href="#m4e1277fe81" x="508.945312" y="118.287656" style="fill: #0000ff; stroke: #0000ff"/>
     </g>
    </g>
    <g id="text_6">
     <!-- B, t=170 ± 4 -->
     <g transform="translate(535.945312 123.537656) scale(0.15 -0.15)">
      <defs>
       <path id="DejaVuSans-42" d="M 1259 2228 
L 1259 519 
L 2272 519 
Q 2781 519 3026 730 
Q 3272 941 3272 1375 
Q 3272 1813 3026 2020 
Q 2781 2228 2272 2228 
L 1259 2228 
z
M 1259 4147 
L 1259 2741 
L 2194 2741 
Q 2656 2741 2882 2914 
Q 3109 3088 3109 3444 
Q 3109 3797 2882 3972 
Q 2656 4147 2194 4147 
L 1259 4147 
z
M 628 4666 
L 2241 4666 
Q 2963 4666 3353 4366 
Q 3744 4066 3744 3513 
Q 3744 3084 3544 2831 
Q 3344 2578 2956 2516 
Q 3422 2416 3680 2098 
Q 3938 1781 3938 1306 
Q 3938 681 3513 340 
Q 3088 0 2303 0 
L 628 0 
L 628 4666 
z
" transform="scale(0.015625)"/>
       <path id="DejaVuSans-34" d="M 2419 4116 
L 825 1625 
L 2419 1625 
L 2419 4116 
z
M 2253 4666 
L 3047 4666 
L 3047 1625 
L 3713 1625 
L 3713 1100 
L 3047 1100 
L 3047 0 
L 2419 0 
L 2419 1100 
L 313 1100 
L 313 1709 
L 2253 4666 
z
" transform="scale(0.015625)"/>
      </defs>
      <use xlink:href="#DejaVuSans-42"/>
      <use xlink:href="#DejaVuSans-2c" x="68.603516"/>
      <use xlink:href="#DejaVuSans-20" x="100.390625"/>
      <use xlink:href="#DejaVuSans-74" x="132.177734"/>
      <use xlink:href="#DejaVuSans-3d" x="171.386719"/>
      <use xlink:href="#DejaVuSans-31" x="255.175781"/>
      <use xlink:href="#DejaVuSans-37" x="318.798828"/>
      <use xlink:href="#DejaVuSans-30" x="382.421875"/>
      <use xlink:href="#DejaVuSans-20" x="446.044922"/>
      <use xlink:href="#DejaVuSans-b1" x="477.832031"/>
      <use xlink:href="#DejaVuSans-20" x="561.621094"/>
      <use xlink:href="#DejaVuSans-34" x="593.408203"/>
     </g>
    </g>
   </g>
  </g>
  <g id="axes_3">
   <g id="patch_14">
    <path d="M 90 209.52 
L 648 209.52 
L 648 154.08 
L 90 154.08 
z
" style="fill: #ffffff"/>
   </g>
   <g id="matplotlib.axis_5">
    <g id="xtick_13">
     <g id="line2d_23">
      <g>
       <use xlink:href="#m4645f55829" x="115.363636" y="209.52" style="stroke: #000000; stroke-width: 0.8"/>
      </g>
     </g>
    </g>
    <g id="xtick_14">
     <g id="line2d_24">
      <g>
       <use xlink:href="#m4645f55829" x="220.441558" y="209.52" style="stroke: #000000; stroke-width: 0.8"/>
      </g>
     </g>
    </g>
    <g id="xtick_15">
     <g id="line2d_25">
      <g>
       <use xlink:href="#m4645f55829" x="325.519481" y="209.52" style="stroke: #000000; stroke-width: 0.8"/>
      </g>
     </g>
    </g>
    <g id="xtick_16">
     <g id="line2d_26">
      <g>
       <use xlink:href="#m4645f55829" x="430.597403" y="209.52" style="stroke: #000000; stroke-width: 0.8"/>
      </g>
     </g>
    </g>
    <g id="xtick_17">
     <g id="line2d_27">
      <g>
       <use xlink:href="#m4645f55829" x="535.675325" y="209.52" style="stroke: #000000; stroke-width: 0.8"/>
      </g>
     </g>
    </g>
    <g id="xtick_18">
     <g id="line2d_28">
      <g>
       <use xlink:href="#m4645f55829" x="640.753247" y="209.52" style="stroke: #000000; stroke-width: 0.8"/>
      </g>
     </g>
    </g>
   </g>
   <g id="matplotlib.axis_6">
    <g id="ytick_5">
     <g id="line2d_29">
      <g>
       <use xlink:href="#m1374789be1" x="90" y="199.125" style="stroke: #000000; stroke-width: 0.8"/>
      </g>
     </g>
     <g id="text_7">
      <!-- 0 -->
      <g transform="translate(76.6375 202.924219) scale(0.1 -0.1)">
       <use xlink:href="#DejaVuSans-30"/>
      </g>
     </g>
    </g>
    <g id="ytick_6">
     <g id="line2d_30">
      <g>
       <use xlink:href="#m1374789be1" x="90" y="164.475" style="stroke: #000000; stroke-width: 0.8"/>
      </g>
     </g>
     <g id="text_8">
      <!-- 1 -->
      <g transform="translate(76.6375 168.274219) scale(0.1 -0.1)">
       <use xlink:href="#DejaVuSans-31"/>
      </g>
     </g>
    </g>
   </g>
   <g id="line2d_31">
    <defs>
     <path id="ma7349a33ad" d="M 0 2.5 
C 0.663008 2.5 1.29895 2.236584 1.767767 1.767767 
C 2.236584 1.29895 2.5 0.663008 2.5 0 
C 2.5 -0.663008 2.236584 -1.29895 1.767767 -1.767767 
C 1.29895 -2.236584 0.663008 -2.5 0 -2.5 
C -0.663008 -2.5 -1.29895 -2.236584 -1.767767 -1.767767 
C -2.236584 -1.29895 -2.5 -0.663008 -2.5 0 
C -2.5 0.663008 -2.236584 1.29895 -1.767767 1.767767 
C -1.29895 2.236584 -0.663008 2.5 0 2.5 
z
" style="stroke: #008000"/>
    </defs>
    <g clip-path="url(#p17629ccbed)">
     <use xlink:href="#ma7349a33ad" x="115.363636" y="164.475" style="fill: #008000; stroke: #008000"/>
     <use xlink:href="#ma7349a33ad" x="133.480519" y="167.514062" style="fill: #008000; stroke: #008000"/>
     <use xlink:href="#ma7349a33ad" x="151.597403" y="172.852955" style="fill: #008000; stroke: #008000"/>
     <use xlink:href="#ma7349a33ad" x="169.714286" y="176.631248" style="fill: #008000; stroke: #008000"/>
     <use xlink:href="#ma7349a33ad" x="187.831169" y="181.084236" style="fill: #008000; stroke: #008000"/>
     <use xlink:href="#ma7349a33ad" x="205.948052" y="183.102455" style="fill: #008000; stroke: #008000"/>
     <use xlink:href="#ma7349a33ad" x="224.064935" y="185.472689" style="fill: #008000; stroke: #008000"/>
     <use xlink:href="#ma7349a33ad" x="242.181818" y="187.150626" style="fill: #008000; stroke: #008000"/>
     <use xlink:href="#ma7349a33ad" x="260.298701" y="189.033906" style="fill: #008000; stroke: #008000"/>
     <use xlink:href="#ma7349a33ad" x="278.415584" y="190.483034" style="fill: #008000; stroke: #008000"/>
     <use xlink:href="#ma7349a33ad" x="296.532468" y="191.492144" style="fill: #008000; stroke: #008000"/>
     <use xlink:href="#ma7349a33ad" x="314.649351" y="192.383915" style="fill: #008000; stroke: #008000"/>
     <use xlink:href="#ma7349a33ad" x="332.766234" y="193.580765" style="fill: #008000; stroke: #008000"/>
     <use xlink:href="#ma7349a33ad" x="350.883117" y="193.833043" style="fill: #008000; stroke: #008000"/>
     <use xlink:href="#ma7349a33ad" x="369" y="194.372799" style="fill: #008000; stroke: #008000"/>
     <use xlink:href="#ma7349a33ad" x="387.116883" y="195.223502" style="fill: #008000; stroke: #008000"/>
     <use xlink:href="#ma7349a33ad" x="405.233766" y="195.411243" style="fill: #008000; stroke: #008000"/>
     <use xlink:href="#ma7349a33ad" x="423.350649" y="196.015535" style="fill: #008000; stroke: #008000"/>
     <use xlink:href="#ma7349a33ad" x="441.467532" y="196.009668" style="fill: #008000; stroke: #008000"/>
     <use xlink:href="#ma7349a33ad" x="459.584416" y="196.379284" style="fill: #008000; stroke: #008000"/>
     <use xlink:href="#ma7349a33ad" x="477.701299" y="196.807569" style="fill: #008000; stroke: #008000"/>
     <use xlink:href="#ma7349a33ad" x="495.818182" y="196.731299" style="fill: #008000; stroke: #008000"/>
     <use xlink:href="#ma7349a33ad" x="513.935065" y="197.183051" style="fill: #008000; stroke: #008000"/>
     <use xlink:href="#ma7349a33ad" x="532.051948" y="197.282789" style="fill: #008000; stroke: #008000"/>
     <use xlink:href="#ma7349a33ad" x="550.168831" y="197.382526" style="fill: #008000; stroke: #008000"/>
     <use xlink:href="#ma7349a33ad" x="568.285714" y="197.587868" style="fill: #008000; stroke: #008000"/>
     <use xlink:href="#ma7349a33ad" x="586.402597" y="197.482264" style="fill: #008000; stroke: #008000"/>
     <use xlink:href="#ma7349a33ad" x="604.519481" y="197.846013" style="fill: #008000; stroke: #008000"/>
     <use xlink:href="#ma7349a33ad" x="622.636364" y="197.928149" style="fill: #008000; stroke: #008000"/>
    </g>
   </g>
   <g id="line2d_32">
    <path d="M 115.363636 163.80513 
L 133.480519 169.035284 
L 151.597403 173.465406 
L 169.714286 177.217875 
L 187.831169 180.396346 
L 205.948052 183.088622 
L 224.064935 185.369073 
L 242.181818 187.300694 
L 260.298701 188.936845 
L 278.415584 190.322722 
L 296.532468 191.496608 
L 314.649351 192.49093 
L 332.766234 193.333155 
L 350.883117 194.046549 
L 369 194.650819 
L 387.116883 195.162657 
L 405.233766 195.596201 
L 423.350649 195.963428 
L 441.467532 196.274482 
L 459.584416 196.537956 
L 477.701299 196.761127 
L 495.818182 196.950161 
L 513.935065 197.110279 
L 532.051948 197.245905 
L 550.168831 197.360785 
L 568.285714 197.458092 
L 586.402597 197.540515 
L 604.519481 197.610329 
L 622.636364 197.669465 
" clip-path="url(#p17629ccbed)" style="fill: none; stroke-dasharray: 3.7,1.6; stroke-dashoffset: 0; stroke: #000000; stroke-opacity: 0.9"/>
   </g>
   <g id="patch_15">
    <path d="M 90 209.52 
L 90 154.08 
" style="fill: none; stroke: #000000; stroke-width: 0.8; stroke-linejoin: miter; stroke-linecap: square"/>
   </g>
   <g id="patch_16">
    <path d="M 648 209.52 
L 648 154.08 
" style="fill: none; stroke: #000000; stroke-width: 0.8; stroke-linejoin: miter; stroke-linecap: square"/>
   </g>
   <g id="patch_17">
    <path d="M 90 209.52 
L 648 209.52 
" style="fill: none; stroke: #000000; stroke-width: 0.8; stroke-linejoin: miter; stroke-linecap: square"/>
   </g>
   <g id="patch_18">
    <path d="M 90 154.08 
L 648 154.08 
" style="fill: none; stroke: #000000; stroke-width: 0.8; stroke-linejoin: miter; stroke-linecap: square"/>
   </g>
   <g id="legend_3">
    <g id="patch_19">
     <path d="M 489.614062 188.097187 
L 637.5 188.097187 
Q 640.5 188.097187 640.5 185.097187 
L 640.5 164.58 
Q 640.5 161.58 637.5 161.58 
L 489.614062 161.58 
Q 486.614062 161.58 486.614062 164.58 
L 486.614062 185.097187 
Q 486.614062 188.097187 489.614062 188.097187 
z
" style="fill: #ffffff; opacity: 0.8; stroke: #cccccc; stroke-linejoin: miter"/>
    </g>
    <g id="line2d_33">
     <g>
      <use xlink:href="#ma7349a33ad" x="507.614062" y="173.727656" style="fill: #008000; stroke: #008000"/>
     </g>
    </g>
    <g id="text_9">
     <!-- G, t=208 ± 5 -->
     <g transform="translate(534.614063 178.977656) scale(0.15 -0.15)">
      <defs>
       <path id="DejaVuSans-47" d="M 3809 666 
L 3809 1919 
L 2778 1919 
L 2778 2438 
L 4434 2438 
L 4434 434 
Q 4069 175 3628 42 
Q 3188 -91 2688 -91 
Q 1594 -91 976 548 
Q 359 1188 359 2328 
Q 359 3472 976 4111 
Q 1594 4750 2688 4750 
Q 3144 4750 3555 4637 
Q 3966 4525 4313 4306 
L 4313 3634 
Q 3963 3931 3569 4081 
Q 3175 4231 2741 4231 
Q 1884 4231 1454 3753 
Q 1025 3275 1025 2328 
Q 1025 1384 1454 906 
Q 1884 428 2741 428 
Q 3075 428 3337 486 
Q 3600 544 3809 666 
z
" transform="scale(0.015625)"/>
       <path id="DejaVuSans-32" d="M 1228 531 
L 3431 531 
L 3431 0 
L 469 0 
L 469 531 
Q 828 903 1448 1529 
Q 2069 2156 2228 2338 
Q 2531 2678 2651 2914 
Q 2772 3150 2772 3378 
Q 2772 3750 2511 3984 
Q 2250 4219 1831 4219 
Q 1534 4219 1204 4116 
Q 875 4013 500 3803 
L 500 4441 
Q 881 4594 1212 4672 
Q 1544 4750 1819 4750 
Q 2544 4750 2975 4387 
Q 3406 4025 3406 3419 
Q 3406 3131 3298 2873 
Q 3191 2616 2906 2266 
Q 2828 2175 2409 1742 
Q 1991 1309 1228 531 
z
" transform="scale(0.015625)"/>
       <path id="DejaVuSans-38" d="M 2034 2216 
Q 1584 2216 1326 1975 
Q 1069 1734 1069 1313 
Q 1069 891 1326 650 
Q 1584 409 2034 409 
Q 2484 409 2743 651 
Q 3003 894 3003 1313 
Q 3003 1734 2745 1975 
Q 2488 2216 2034 2216 
z
M 1403 2484 
Q 997 2584 770 2862 
Q 544 3141 544 3541 
Q 544 4100 942 4425 
Q 1341 4750 2034 4750 
Q 2731 4750 3128 4425 
Q 3525 4100 3525 3541 
Q 3525 3141 3298 2862 
Q 3072 2584 2669 2484 
Q 3125 2378 3379 2068 
Q 3634 1759 3634 1313 
Q 3634 634 3220 271 
Q 2806 -91 2034 -91 
Q 1263 -91 848 271 
Q 434 634 434 1313 
Q 434 1759 690 2068 
Q 947 2378 1403 2484 
z
M 1172 3481 
Q 1172 3119 1398 2916 
Q 1625 2713 2034 2713 
Q 2441 2713 2670 2916 
Q 2900 3119 2900 3481 
Q 2900 3844 2670 4047 
Q 2441 4250 2034 4250 
Q 1625 4250 1398 4047 
Q 1172 3844 1172 3481 
z
" transform="scale(0.015625)"/>
       <path id="DejaVuSans-35" d="M 691 4666 
L 3169 4666 
L 3169 4134 
L 1269 4134 
L 1269 2991 
Q 1406 3038 1543 3061 
Q 1681 3084 1819 3084 
Q 2600 3084 3056 2656 
Q 3513 2228 3513 1497 
Q 3513 744 3044 326 
Q 2575 -91 1722 -91 
Q 1428 -91 1123 -41 
Q 819 9 494 109 
L 494 744 
Q 775 591 1075 516 
Q 1375 441 1709 441 
Q 2250 441 2565 725 
Q 2881 1009 2881 1497 
Q 2881 1984 2565 2268 
Q 2250 2553 1709 2553 
Q 1456 2553 1204 2497 
Q 953 2441 691 2322 
L 691 4666 
z
" transform="scale(0.015625)"/>
      </defs>
      <use xlink:href="#DejaVuSans-47"/>
      <use xlink:href="#DejaVuSans-2c" x="77.490234"/>
      <use xlink:href="#DejaVuSans-20" x="109.277344"/>
      <use xlink:href="#DejaVuSans-74" x="141.064453"/>
      <use xlink:href="#DejaVuSans-3d" x="180.273438"/>
      <use xlink:href="#DejaVuSans-32" x="264.0625"/>
      <use xlink:href="#DejaVuSans-30" x="327.685547"/>
      <use xlink:href="#DejaVuSans-38" x="391.308594"/>
      <use xlink:href="#DejaVuSans-20" x="454.931641"/>
      <use xlink:href="#DejaVuSans-b1" x="486.71875"/>
      <use xlink:href="#DejaVuSans-20" x="570.507812"/>
      <use xlink:href="#DejaVuSans-35" x="602.294922"/>
     </g>
    </g>
   </g>
  </g>
  <g id="axes_4">
   <g id="patch_20">
    <path d="M 90 264.96 
L 648 264.96 
L 648 209.52 
L 90 209.52 
z
" style="fill: #ffffff"/>
   </g>
   <g id="matplotlib.axis_7">
    <g id="xtick_19">
     <g id="line2d_34">
      <g>
       <use xlink:href="#m4645f55829" x="115.363636" y="264.96" style="stroke: #000000; stroke-width: 0.8"/>
      </g>
     </g>
    </g>
    <g id="xtick_20">
     <g id="line2d_35">
      <g>
       <use xlink:href="#m4645f55829" x="220.441558" y="264.96" style="stroke: #000000; stroke-width: 0.8"/>
      </g>
     </g>
    </g>
    <g id="xtick_21">
     <g id="line2d_36">
      <g>
       <use xlink:href="#m4645f55829" x="325.519481" y="264.96" style="stroke: #000000; stroke-width: 0.8"/>
      </g>
     </g>
    </g>
    <g id="xtick_22">
     <g id="line2d_37">
      <g>
       <use xlink:href="#m4645f55829" x="430.597403" y="264.96" style="stroke: #000000; stroke-width: 0.8"/>
      </g>
     </g>
    </g>
    <g id="xtick_23">
     <g id="line2d_38">
      <g>
       <use xlink:href="#m4645f55829" x="535.675325" y="264.96" style="stroke: #000000; stroke-width: 0.8"/>
      </g>
     </g>
    </g>
    <g id="xtick_24">
     <g id="line2d_39">
      <g>
       <use xlink:href="#m4645f55829" x="640.753247" y="264.96" style="stroke: #000000; stroke-width: 0.8"/>
      </g>
     </g>
    </g>
   </g>
   <g id="matplotlib.axis_8">
    <g id="ytick_7">
     <g id="line2d_40">
      <g>
       <use xlink:href="#m1374789be1" x="90" y="254.565" style="stroke: #000000; stroke-width: 0.8"/>
      </g>
     </g>
     <g id="text_10">
      <!-- 0 -->
      <g transform="translate(76.6375 258.364219) scale(0.1 -0.1)">
       <use xlink:href="#DejaVuSans-30"/>
      </g>
     </g>
    </g>
    <g id="ytick_8">
     <g id="line2d_41">
      <g>
       <use xlink:href="#m1374789be1" x="90" y="219.915" style="stroke: #000000; stroke-width: 0.8"/>
      </g>
     </g>
     <g id="text_11">
      <!-- 1 -->
      <g transform="translate(76.6375 223.714219) scale(0.1 -0.1)">
       <use xlink:href="#DejaVuSans-31"/>
      </g>
     </g>
    </g>
   </g>
   <g id="line2d_42">
    <defs>
     <path id="mb8cb91c984" d="M 0 2.5 
C 0.663008 2.5 1.29895 2.236584 1.767767 1.767767 
C 2.236584 1.29895 2.5 0.663008 2.5 0 
C 2.5 -0.663008 2.236584 -1.29895 1.767767 -1.767767 
C 1.29895 -2.236584 0.663008 -2.5 0 -2.5 
C -0.663008 -2.5 -1.29895 -2.236584 -1.767767 -1.767767 
C -2.236584 -1.29895 -2.5 -0.663008 -2.5 0 
C -2.5 0.663008 -2.236584 1.29895 -1.767767 1.767767 
C -1.29895 2.236584 -0.663008 2.5 0 2.5 
z
" style="stroke: #ffd700"/>
    </defs>
    <g clip-path="url(#pe3d8ac0c9b)">
     <use xlink:href="#mb8cb91c984" x="115.363636" y="219.915" style="fill: #ffd700; stroke: #ffd700"/>
     <use xlink:href="#mb8cb91c984" x="133.480519" y="223.252988" style="fill: #ffd700; stroke: #ffd700"/>
     <use xlink:href="#mb8cb91c984" x="151.597403" y="226.893285" style="fill: #ffd700; stroke: #ffd700"/>
     <use xlink:href="#mb8cb91c984" x="169.714286" y="230.64065" style="fill: #ffd700; stroke: #ffd700"/>
     <use xlink:href="#mb8cb91c984" x="187.831169" y="234.352325" style="fill: #ffd700; stroke: #ffd700"/>
     <use xlink:href="#mb8cb91c984" x="205.948052" y="236.789686" style="fill: #ffd700; stroke: #ffd700"/>
     <use xlink:href="#mb8cb91c984" x="224.064935" y="238.985621" style="fill: #ffd700; stroke: #ffd700"/>
     <use xlink:href="#mb8cb91c984" x="242.181818" y="241.255033" style="fill: #ffd700; stroke: #ffd700"/>
     <use xlink:href="#mb8cb91c984" x="260.298701" y="242.833755" style="fill: #ffd700; stroke: #ffd700"/>
     <use xlink:href="#mb8cb91c984" x="278.415584" y="244.30121" style="fill: #ffd700; stroke: #ffd700"/>
     <use xlink:href="#mb8cb91c984" x="296.532468" y="245.548232" style="fill: #ffd700; stroke: #ffd700"/>
     <use xlink:href="#mb8cb91c984" x="314.649351" y="246.721777" style="fill: #ffd700; stroke: #ffd700"/>
     <use xlink:href="#mb8cb91c984" x="332.766234" y="247.530032" style="fill: #ffd700; stroke: #ffd700"/>
     <use xlink:href="#mb8cb91c984" x="350.883117" y="248.258511" style="fill: #ffd700; stroke: #ffd700"/>
     <use xlink:href="#mb8cb91c984" x="369" y="248.707775" style="fill: #ffd700; stroke: #ffd700"/>
     <use xlink:href="#mb8cb91c984" x="387.116883" y="249.524427" style="fill: #ffd700; stroke: #ffd700"/>
     <use xlink:href="#mb8cb91c984" x="405.233766" y="250.032473" style="fill: #ffd700; stroke: #ffd700"/>
     <use xlink:href="#mb8cb91c984" x="423.350649" y="250.334782" style="fill: #ffd700; stroke: #ffd700"/>
     <use xlink:href="#mb8cb91c984" x="441.467532" y="250.828132" style="fill: #ffd700; stroke: #ffd700"/>
     <use xlink:href="#mb8cb91c984" x="459.584416" y="251.157733" style="fill: #ffd700; stroke: #ffd700"/>
     <use xlink:href="#mb8cb91c984" x="477.701299" y="251.508326" style="fill: #ffd700; stroke: #ffd700"/>
     <use xlink:href="#mb8cb91c984" x="495.818182" y="251.739256" style="fill: #ffd700; stroke: #ffd700"/>
     <use xlink:href="#mb8cb91c984" x="513.935065" y="252.08985" style="fill: #ffd700; stroke: #ffd700"/>
     <use xlink:href="#mb8cb91c984" x="532.051948" y="252.169626" style="fill: #ffd700; stroke: #ffd700"/>
     <use xlink:href="#mb8cb91c984" x="550.168831" y="252.390059" style="fill: #ffd700; stroke: #ffd700"/>
     <use xlink:href="#mb8cb91c984" x="568.285714" y="252.471934" style="fill: #ffd700; stroke: #ffd700"/>
     <use xlink:href="#mb8cb91c984" x="586.402597" y="252.805733" style="fill: #ffd700; stroke: #ffd700"/>
     <use xlink:href="#mb8cb91c984" x="604.519481" y="252.784739" style="fill: #ffd700; stroke: #ffd700"/>
     <use xlink:href="#mb8cb91c984" x="622.636364" y="253.063955" style="fill: #ffd700; stroke: #ffd700"/>
    </g>
   </g>
   <g id="line2d_43">
    <path d="M 115.363636 218.320854 
L 133.480519 223.184653 
L 151.597403 227.372517 
L 169.714286 230.978382 
L 187.831169 234.08313 
L 205.948052 236.756402 
L 224.064935 239.058163 
L 242.181818 241.040042 
L 260.298701 242.746493 
L 278.415584 244.215795 
L 296.532468 245.480903 
L 314.649351 246.570196 
L 332.766234 247.508107 
L 350.883117 248.315674 
L 369 249.011011 
L 387.116883 249.609715 
L 405.233766 250.125215 
L 423.350649 250.569075 
L 441.467532 250.951251 
L 459.584416 251.280315 
L 477.701299 251.563647 
L 495.818182 251.807604 
L 513.935065 252.017658 
L 532.051948 252.19852 
L 550.168831 252.354248 
L 568.285714 252.488333 
L 586.402597 252.603784 
L 604.519481 252.703191 
L 622.636364 252.788782 
" clip-path="url(#pe3d8ac0c9b)" style="fill: none; stroke-dasharray: 3.7,1.6; stroke-dashoffset: 0; stroke: #000000; stroke-opacity: 0.9"/>
   </g>
   <g id="patch_21">
    <path d="M 90 264.96 
L 90 209.52 
" style="fill: none; stroke: #000000; stroke-width: 0.8; stroke-linejoin: miter; stroke-linecap: square"/>
   </g>
   <g id="patch_22">
    <path d="M 648 264.96 
L 648 209.52 
" style="fill: none; stroke: #000000; stroke-width: 0.8; stroke-linejoin: miter; stroke-linecap: square"/>
   </g>
   <g id="patch_23">
    <path d="M 90 264.96 
L 648 264.96 
" style="fill: none; stroke: #000000; stroke-width: 0.8; stroke-linejoin: miter; stroke-linecap: square"/>
   </g>
   <g id="patch_24">
    <path d="M 90 209.52 
L 648 209.52 
" style="fill: none; stroke: #000000; stroke-width: 0.8; stroke-linejoin: miter; stroke-linecap: square"/>
   </g>
   <g id="legend_4">
    <g id="patch_25">
     <path d="M 492.075 243.537187 
L 637.5 243.537187 
Q 640.5 243.537187 640.5 240.537187 
L 640.5 220.02 
Q 640.5 217.02 637.5 217.02 
L 492.075 217.02 
Q 489.075 217.02 489.075 220.02 
L 489.075 240.537187 
Q 489.075 243.537187 492.075 243.537187 
z
" style="fill: #ffffff; opacity: 0.8; stroke: #cccccc; stroke-linejoin: miter"/>
    </g>
    <g id="line2d_44">
     <g>
      <use xlink:href="#mb8cb91c984" x="510.075" y="229.167656" style="fill: #ffd700; stroke: #ffd700"/>
     </g>
    </g>
    <g id="text_12">
     <!-- Y, t=230 ± 3 -->
     <g transform="translate(537.075 234.417656) scale(0.15 -0.15)">
      <defs>
       <path id="DejaVuSans-59" d="M -13 4666 
L 666 4666 
L 1959 2747 
L 3244 4666 
L 3922 4666 
L 2272 2222 
L 2272 0 
L 1638 0 
L 1638 2222 
L -13 4666 
z
" transform="scale(0.015625)"/>
      </defs>
      <use xlink:href="#DejaVuSans-59"/>
      <use xlink:href="#DejaVuSans-2c" x="61.083984"/>
      <use xlink:href="#DejaVuSans-20" x="92.871094"/>
      <use xlink:href="#DejaVuSans-74" x="124.658203"/>
      <use xlink:href="#DejaVuSans-3d" x="163.867188"/>
      <use xlink:href="#DejaVuSans-32" x="247.65625"/>
      <use xlink:href="#DejaVuSans-33" x="311.279297"/>
      <use xlink:href="#DejaVuSans-30" x="374.902344"/>
      <use xlink:href="#DejaVuSans-20" x="438.525391"/>
      <use xlink:href="#DejaVuSans-b1" x="470.3125"/>
      <use xlink:href="#DejaVuSans-20" x="554.101562"/>
      <use xlink:href="#DejaVuSans-33" x="585.888672"/>
     </g>
    </g>
   </g>
  </g>
  <g id="axes_5">
   <g id="patch_26">
    <path d="M 90 320.4 
L 648 320.4 
L 648 264.96 
L 90 264.96 
z
" style="fill: #ffffff"/>
   </g>
   <g id="matplotlib.axis_9">
    <g id="xtick_25">
     <g id="line2d_45">
      <g>
       <use xlink:href="#m4645f55829" x="115.363636" y="320.4" style="stroke: #000000; stroke-width: 0.8"/>
      </g>
     </g>
     <g id="text_13">
      <!-- 0 -->
      <g transform="translate(112.182386 334.998438) scale(0.1 -0.1)">
       <use xlink:href="#DejaVuSans-30"/>
      </g>
     </g>
    </g>
    <g id="xtick_26">
     <g id="line2d_46">
      <g>
       <use xlink:href="#m4645f55829" x="220.441558" y="320.4" style="stroke: #000000; stroke-width: 0.8"/>
      </g>
     </g>
     <g id="text_14">
      <!-- 200 -->
      <g transform="translate(210.897808 334.998438) scale(0.1 -0.1)">
       <use xlink:href="#DejaVuSans-32"/>
       <use xlink:href="#DejaVuSans-30" x="63.623047"/>
       <use xlink:href="#DejaVuSans-30" x="127.246094"/>
      </g>
     </g>
    </g>
    <g id="xtick_27">
     <g id="line2d_47">
      <g>
       <use xlink:href="#m4645f55829" x="325.519481" y="320.4" style="stroke: #000000; stroke-width: 0.8"/>
      </g>
     </g>
     <g id="text_15">
      <!-- 400 -->
      <g transform="translate(315.975731 334.998438) scale(0.1 -0.1)">
       <use xlink:href="#DejaVuSans-34"/>
       <use xlink:href="#DejaVuSans-30" x="63.623047"/>
       <use xlink:href="#DejaVuSans-30" x="127.246094"/>
      </g>
     </g>
    </g>
    <g id="xtick_28">
     <g id="line2d_48">
      <g>
       <use xlink:href="#m4645f55829" x="430.597403" y="320.4" style="stroke: #000000; stroke-width: 0.8"/>
      </g>
     </g>
     <g id="text_16">
      <!-- 600 -->
      <g transform="translate(421.053653 334.998438) scale(0.1 -0.1)">
       <use xlink:href="#DejaVuSans-36"/>
       <use xlink:href="#DejaVuSans-30" x="63.623047"/>
       <use xlink:href="#DejaVuSans-30" x="127.246094"/>
      </g>
     </g>
    </g>
    <g id="xtick_29">
     <g id="line2d_49">
      <g>
       <use xlink:href="#m4645f55829" x="535.675325" y="320.4" style="stroke: #000000; stroke-width: 0.8"/>
      </g>
     </g>
     <g id="text_17">
      <!-- 800 -->
      <g transform="translate(526.131575 334.998438) scale(0.1 -0.1)">
       <use xlink:href="#DejaVuSans-38"/>
       <use xlink:href="#DejaVuSans-30" x="63.623047"/>
       <use xlink:href="#DejaVuSans-30" x="127.246094"/>
      </g>
     </g>
    </g>
    <g id="xtick_30">
     <g id="line2d_50">
      <g>
       <use xlink:href="#m4645f55829" x="640.753247" y="320.4" style="stroke: #000000; stroke-width: 0.8"/>
      </g>
     </g>
     <g id="text_18">
      <!-- 1000 -->
      <g transform="translate(628.028247 334.998438) scale(0.1 -0.1)">
       <use xlink:href="#DejaVuSans-31"/>
       <use xlink:href="#DejaVuSans-30" x="63.623047"/>
       <use xlink:href="#DejaVuSans-30" x="127.246094"/>
       <use xlink:href="#DejaVuSans-30" x="190.869141"/>
      </g>
     </g>
    </g>
    <g id="text_19">
     <!-- Time ($\mu$s) -->
     <g transform="translate(333.45 352.478125) scale(0.15 -0.15)">
      <defs>
       <path id="DejaVuSans-54" d="M -19 4666 
L 3928 4666 
L 3928 4134 
L 2272 4134 
L 2272 0 
L 1638 0 
L 1638 4134 
L -19 4134 
L -19 4666 
z
" transform="scale(0.015625)"/>
       <path id="DejaVuSans-69" d="M 603 3500 
L 1178 3500 
L 1178 0 
L 603 0 
L 603 3500 
z
M 603 4863 
L 1178 4863 
L 1178 4134 
L 603 4134 
L 603 4863 
z
" transform="scale(0.015625)"/>
       <path id="DejaVuSans-6d" d="M 3328 2828 
Q 3544 3216 3844 3400 
Q 4144 3584 4550 3584 
Q 5097 3584 5394 3201 
Q 5691 2819 5691 2113 
L 5691 0 
L 5113 0 
L 5113 2094 
Q 5113 2597 4934 2840 
Q 4756 3084 4391 3084 
Q 3944 3084 3684 2787 
Q 3425 2491 3425 1978 
L 3425 0 
L 2847 0 
L 2847 2094 
Q 2847 2600 2669 2842 
Q 2491 3084 2119 3084 
Q 1678 3084 1418 2786 
Q 1159 2488 1159 1978 
L 1159 0 
L 581 0 
L 581 3500 
L 1159 3500 
L 1159 2956 
Q 1356 3278 1631 3431 
Q 1906 3584 2284 3584 
Q 2666 3584 2933 3390 
Q 3200 3197 3328 2828 
z
" transform="scale(0.015625)"/>
       <path id="DejaVuSans-65" d="M 3597 1894 
L 3597 1613 
L 953 1613 
Q 991 1019 1311 708 
Q 1631 397 2203 397 
Q 2534 397 2845 478 
Q 3156 559 3463 722 
L 3463 178 
Q 3153 47 2828 -22 
Q 2503 -91 2169 -91 
Q 1331 -91 842 396 
Q 353 884 353 1716 
Q 353 2575 817 3079 
Q 1281 3584 2069 3584 
Q 2775 3584 3186 3129 
Q 3597 2675 3597 1894 
z
M 3022 2063 
Q 3016 2534 2758 2815 
Q 2500 3097 2075 3097 
Q 1594 3097 1305 2825 
Q 1016 2553 972 2059 
L 3022 2063 
z
" transform="scale(0.015625)"/>
       <path id="DejaVuSans-28" d="M 1984 4856 
Q 1566 4138 1362 3434 
Q 1159 2731 1159 2009 
Q 1159 1288 1364 580 
Q 1569 -128 1984 -844 
L 1484 -844 
Q 1016 -109 783 600 
Q 550 1309 550 2009 
Q 550 2706 781 3412 
Q 1013 4119 1484 4856 
L 1984 4856 
z
" transform="scale(0.015625)"/>
       <path id="DejaVuSans-Oblique-3bc" d="M -84 -1331 
L 856 3500 
L 1434 3500 
L 1009 1322 
Q 997 1256 987 1175 
Q 978 1094 978 1013 
Q 978 722 1161 565 
Q 1344 409 1684 409 
Q 2147 409 2431 671 
Q 2716 934 2816 1459 
L 3213 3500 
L 3788 3500 
L 3266 809 
Q 3253 750 3248 706 
Q 3244 663 3244 628 
Q 3244 531 3283 486 
Q 3322 441 3406 441 
Q 3438 441 3492 456 
Q 3547 472 3647 513 
L 3559 50 
Q 3422 -19 3297 -55 
Q 3172 -91 3053 -91 
Q 2847 -91 2730 40 
Q 2613 172 2613 403 
Q 2438 153 2195 31 
Q 1953 -91 1625 -91 
Q 1334 -91 1117 43 
Q 900 178 831 397 
L 494 -1331 
L -84 -1331 
z
" transform="scale(0.015625)"/>
       <path id="DejaVuSans-73" d="M 2834 3397 
L 2834 2853 
Q 2591 2978 2328 3040 
Q 2066 3103 1784 3103 
Q 1356 3103 1142 2972 
Q 928 2841 928 2578 
Q 928 2378 1081 2264 
Q 1234 2150 1697 2047 
L 1894 2003 
Q 2506 1872 2764 1633 
Q 3022 1394 3022 966 
Q 3022 478 2636 193 
Q 2250 -91 1575 -91 
Q 1294 -91 989 -36 
Q 684 19 347 128 
L 347 722 
Q 666 556 975 473 
Q 1284 391 1588 391 
Q 1994 391 2212 530 
Q 2431 669 2431 922 
Q 2431 1156 2273 1281 
Q 2116 1406 1581 1522 
L 1381 1569 
Q 847 1681 609 1914 
Q 372 2147 372 2553 
Q 372 3047 722 3315 
Q 1072 3584 1716 3584 
Q 2034 3584 2315 3537 
Q 2597 3491 2834 3397 
z
" transform="scale(0.015625)"/>
       <path id="DejaVuSans-29" d="M 513 4856 
L 1013 4856 
Q 1481 4119 1714 3412 
Q 1947 2706 1947 2009 
Q 1947 1309 1714 600 
Q 1481 -109 1013 -844 
L 513 -844 
Q 928 -128 1133 580 
Q 1338 1288 1338 2009 
Q 1338 2731 1133 3434 
Q 928 4138 513 4856 
z
" transform="scale(0.015625)"/>
      </defs>
      <use xlink:href="#DejaVuSans-54" transform="translate(0 0.015625)"/>
      <use xlink:href="#DejaVuSans-69" transform="translate(61.083984 0.015625)"/>
      <use xlink:href="#DejaVuSans-6d" transform="translate(88.867188 0.015625)"/>
      <use xlink:href="#DejaVuSans-65" transform="translate(186.279297 0.015625)"/>
      <use xlink:href="#DejaVuSans-20" transform="translate(247.802734 0.015625)"/>
      <use xlink:href="#DejaVuSans-28" transform="translate(279.589844 0.015625)"/>
      <use xlink:href="#DejaVuSans-Oblique-3bc" transform="translate(318.603516 0.015625)"/>
      <use xlink:href="#DejaVuSans-73" transform="translate(382.226562 0.015625)"/>
      <use xlink:href="#DejaVuSans-29" transform="translate(434.326172 0.015625)"/>
     </g>
    </g>
   </g>
   <g id="matplotlib.axis_10">
    <g id="ytick_9">
     <g id="line2d_51">
      <g>
       <use xlink:href="#m1374789be1" x="90" y="310.005" style="stroke: #000000; stroke-width: 0.8"/>
      </g>
     </g>
     <g id="text_20">
      <!-- 0 -->
      <g transform="translate(76.6375 313.804219) scale(0.1 -0.1)">
       <use xlink:href="#DejaVuSans-30"/>
      </g>
     </g>
    </g>
    <g id="ytick_10">
     <g id="line2d_52">
      <g>
       <use xlink:href="#m1374789be1" x="90" y="275.355" style="stroke: #000000; stroke-width: 0.8"/>
      </g>
     </g>
     <g id="text_21">
      <!-- 1 -->
      <g transform="translate(76.6375 279.154219) scale(0.1 -0.1)">
       <use xlink:href="#DejaVuSans-31"/>
      </g>
     </g>
    </g>
   </g>
   <g id="line2d_53">
    <defs>
     <path id="m0dbe31a5c8" d="M 0 2.5 
C 0.663008 2.5 1.29895 2.236584 1.767767 1.767767 
C 2.236584 1.29895 2.5 0.663008 2.5 0 
C 2.5 -0.663008 2.236584 -1.29895 1.767767 -1.767767 
C 1.29895 -2.236584 0.663008 -2.5 0 -2.5 
C -0.663008 -2.5 -1.29895 -2.236584 -1.767767 -1.767767 
C -2.236584 -1.29895 -2.5 -0.663008 -2.5 0 
C -2.5 0.663008 -2.236584 1.29895 -1.767767 1.767767 
C -1.29895 2.236584 -0.663008 2.5 0 2.5 
z
" style="stroke: #ff0000"/>
    </defs>
    <g clip-path="url(#p8d7d3bf565)">
     <use xlink:href="#m0dbe31a5c8" x="115.363636" y="275.355" style="fill: #ff0000; stroke: #ff0000"/>
     <use xlink:href="#m0dbe31a5c8" x="133.480519" y="276.066157" style="fill: #ff0000; stroke: #ff0000"/>
     <use xlink:href="#m0dbe31a5c8" x="151.597403" y="277.87179" style="fill: #ff0000; stroke: #ff0000"/>
     <use xlink:href="#m0dbe31a5c8" x="169.714286" y="279.954825" style="fill: #ff0000; stroke: #ff0000"/>
     <use xlink:href="#m0dbe31a5c8" x="187.831169" y="282.612838" style="fill: #ff0000; stroke: #ff0000"/>
     <use xlink:href="#m0dbe31a5c8" x="205.948052" y="284.620218" style="fill: #ff0000; stroke: #ff0000"/>
     <use xlink:href="#m0dbe31a5c8" x="224.064935" y="286.587249" style="fill: #ff0000; stroke: #ff0000"/>
     <use xlink:href="#m0dbe31a5c8" x="242.181818" y="288.574454" style="fill: #ff0000; stroke: #ff0000"/>
     <use xlink:href="#m0dbe31a5c8" x="260.298701" y="290.339738" style="fill: #ff0000; stroke: #ff0000"/>
     <use xlink:href="#m0dbe31a5c8" x="278.415584" y="291.913362" style="fill: #ff0000; stroke: #ff0000"/>
     <use xlink:href="#m0dbe31a5c8" x="296.532468" y="293.43655" style="fill: #ff0000; stroke: #ff0000"/>
     <use xlink:href="#m0dbe31a5c8" x="314.649351" y="294.853821" style="fill: #ff0000; stroke: #ff0000"/>
     <use xlink:href="#m0dbe31a5c8" x="332.766234" y="296.084476" style="fill: #ff0000; stroke: #ff0000"/>
     <use xlink:href="#m0dbe31a5c8" x="350.883117" y="297.173908" style="fill: #ff0000; stroke: #ff0000"/>
     <use xlink:href="#m0dbe31a5c8" x="369" y="298.626485" style="fill: #ff0000; stroke: #ff0000"/>
     <use xlink:href="#m0dbe31a5c8" x="387.116883" y="299.549476" style="fill: #ff0000; stroke: #ff0000"/>
     <use xlink:href="#m0dbe31a5c8" x="405.233766" y="300.174891" style="fill: #ff0000; stroke: #ff0000"/>
     <use xlink:href="#m0dbe31a5c8" x="423.350649" y="301.445895" style="fill: #ff0000; stroke: #ff0000"/>
     <use xlink:href="#m0dbe31a5c8" x="441.467532" y="301.970437" style="fill: #ff0000; stroke: #ff0000"/>
     <use xlink:href="#m0dbe31a5c8" x="459.584416" y="302.994301" style="fill: #ff0000; stroke: #ff0000"/>
     <use xlink:href="#m0dbe31a5c8" x="477.701299" y="302.807686" style="fill: #ff0000; stroke: #ff0000"/>
     <use xlink:href="#m0dbe31a5c8" x="495.818182" y="303.599541" style="fill: #ff0000; stroke: #ff0000"/>
     <use xlink:href="#m0dbe31a5c8" x="513.935065" y="304.124083" style="fill: #ff0000; stroke: #ff0000"/>
     <use xlink:href="#m0dbe31a5c8" x="532.051948" y="304.658712" style="fill: #ff0000; stroke: #ff0000"/>
     <use xlink:href="#m0dbe31a5c8" x="550.168831" y="304.794891" style="fill: #ff0000; stroke: #ff0000"/>
     <use xlink:href="#m0dbe31a5c8" x="568.285714" y="305.617009" style="fill: #ff0000; stroke: #ff0000"/>
     <use xlink:href="#m0dbe31a5c8" x="586.402597" y="305.521179" style="fill: #ff0000; stroke: #ff0000"/>
     <use xlink:href="#m0dbe31a5c8" x="604.519481" y="306.217205" style="fill: #ff0000; stroke: #ff0000"/>
     <use xlink:href="#m0dbe31a5c8" x="622.636364" y="306.48452" style="fill: #ff0000; stroke: #ff0000"/>
    </g>
   </g>
   <g id="line2d_54">
    <path d="M 115.363636 270.857245 
L 133.480519 274.117641 
L 151.597403 277.105741 
L 169.714286 279.844285 
L 187.831169 282.354116 
L 205.948052 284.654335 
L 224.064935 286.762447 
L 242.181818 288.694498 
L 260.298701 290.465191 
L 278.415584 292.088001 
L 296.532468 293.575281 
L 314.649351 294.938348 
L 332.766234 296.187577 
L 350.883117 297.332474 
L 369 298.381754 
L 387.116883 299.343402 
L 405.233766 300.224736 
L 423.350649 301.032464 
L 441.467532 301.772734 
L 459.584416 302.451179 
L 477.701299 303.072963 
L 495.818182 303.642818 
L 513.935065 304.16508 
L 532.051948 304.643725 
L 550.168831 305.082396 
L 568.285714 305.48443 
L 586.402597 305.852887 
L 604.519481 306.190573 
L 622.636364 306.500056 
" clip-path="url(#p8d7d3bf565)" style="fill: none; stroke-dasharray: 3.7,1.6; stroke-dashoffset: 0; stroke: #000000; stroke-opacity: 0.9"/>
   </g>
   <g id="patch_27">
    <path d="M 90 320.4 
L 90 264.96 
" style="fill: none; stroke: #000000; stroke-width: 0.8; stroke-linejoin: miter; stroke-linecap: square"/>
   </g>
   <g id="patch_28">
    <path d="M 648 320.4 
L 648 264.96 
" style="fill: none; stroke: #000000; stroke-width: 0.8; stroke-linejoin: miter; stroke-linecap: square"/>
   </g>
   <g id="patch_29">
    <path d="M 90 320.4 
L 648 320.4 
" style="fill: none; stroke: #000000; stroke-width: 0.8; stroke-linejoin: miter; stroke-linecap: square"/>
   </g>
   <g id="patch_30">
    <path d="M 90 264.96 
L 648 264.96 
" style="fill: none; stroke: #000000; stroke-width: 0.8; stroke-linejoin: miter; stroke-linecap: square"/>
   </g>
   <g id="legend_5">
    <g id="patch_31">
     <path d="M 490.814062 298.977188 
L 637.5 298.977188 
Q 640.5 298.977188 640.5 295.977188 
L 640.5 275.46 
Q 640.5 272.46 637.5 272.46 
L 490.814062 272.46 
Q 487.814062 272.46 487.814062 275.46 
L 487.814062 295.977188 
Q 487.814062 298.977188 490.814062 298.977188 
z
" style="fill: #ffffff; opacity: 0.8; stroke: #cccccc; stroke-linejoin: miter"/>
    </g>
    <g id="line2d_55">
     <g>
      <use xlink:href="#m0dbe31a5c8" x="508.814062" y="284.607656" style="fill: #ff0000; stroke: #ff0000"/>
     </g>
    </g>
    <g id="text_22">
     <!-- R, t=395 ± 8 -->
     <g transform="translate(535.814062 289.857656) scale(0.15 -0.15)">
      <defs>
       <path id="DejaVuSans-52" d="M 2841 2188 
Q 3044 2119 3236 1894 
Q 3428 1669 3622 1275 
L 4263 0 
L 3584 0 
L 2988 1197 
Q 2756 1666 2539 1819 
Q 2322 1972 1947 1972 
L 1259 1972 
L 1259 0 
L 628 0 
L 628 4666 
L 2053 4666 
Q 2853 4666 3247 4331 
Q 3641 3997 3641 3322 
Q 3641 2881 3436 2590 
Q 3231 2300 2841 2188 
z
M 1259 4147 
L 1259 2491 
L 2053 2491 
Q 2509 2491 2742 2702 
Q 2975 2913 2975 3322 
Q 2975 3731 2742 3939 
Q 2509 4147 2053 4147 
L 1259 4147 
z
" transform="scale(0.015625)"/>
       <path id="DejaVuSans-39" d="M 703 97 
L 703 672 
Q 941 559 1184 500 
Q 1428 441 1663 441 
Q 2288 441 2617 861 
Q 2947 1281 2994 2138 
Q 2813 1869 2534 1725 
Q 2256 1581 1919 1581 
Q 1219 1581 811 2004 
Q 403 2428 403 3163 
Q 403 3881 828 4315 
Q 1253 4750 1959 4750 
Q 2769 4750 3195 4129 
Q 3622 3509 3622 2328 
Q 3622 1225 3098 567 
Q 2575 -91 1691 -91 
Q 1453 -91 1209 -44 
Q 966 3 703 97 
z
M 1959 2075 
Q 2384 2075 2632 2365 
Q 2881 2656 2881 3163 
Q 2881 3666 2632 3958 
Q 2384 4250 1959 4250 
Q 1534 4250 1286 3958 
Q 1038 3666 1038 3163 
Q 1038 2656 1286 2365 
Q 1534 2075 1959 2075 
z
" transform="scale(0.015625)"/>
      </defs>
      <use xlink:href="#DejaVuSans-52"/>
      <use xlink:href="#DejaVuSans-2c" x="69.482422"/>
      <use xlink:href="#DejaVuSans-20" x="101.269531"/>
      <use xlink:href="#DejaVuSans-74" x="133.056641"/>
      <use xlink:href="#DejaVuSans-3d" x="172.265625"/>
      <use xlink:href="#DejaVuSans-33" x="256.054688"/>
      <use xlink:href="#DejaVuSans-39" x="319.677734"/>
      <use xlink:href="#DejaVuSans-35" x="383.300781"/>
      <use xlink:href="#DejaVuSans-20" x="446.923828"/>
      <use xlink:href="#DejaVuSans-b1" x="478.710938"/>
      <use xlink:href="#DejaVuSans-20" x="562.5"/>
      <use xlink:href="#DejaVuSans-38" x="594.287109"/>
     </g>
    </g>
   </g>
  </g>
  <g id="text_23">
   <!-- Intensity (norm) -->
   <g transform="translate(68.997656 240.479297) rotate(-90) scale(0.15 -0.15)">
    <defs>
     <path id="DejaVuSans-49" d="M 628 4666 
L 1259 4666 
L 1259 0 
L 628 0 
L 628 4666 
z
" transform="scale(0.015625)"/>
     <path id="DejaVuSans-6e" d="M 3513 2113 
L 3513 0 
L 2938 0 
L 2938 2094 
Q 2938 2591 2744 2837 
Q 2550 3084 2163 3084 
Q 1697 3084 1428 2787 
Q 1159 2491 1159 1978 
L 1159 0 
L 581 0 
L 581 3500 
L 1159 3500 
L 1159 2956 
Q 1366 3272 1645 3428 
Q 1925 3584 2291 3584 
Q 2894 3584 3203 3211 
Q 3513 2838 3513 2113 
z
" transform="scale(0.015625)"/>
     <path id="DejaVuSans-79" d="M 2059 -325 
Q 1816 -950 1584 -1140 
Q 1353 -1331 966 -1331 
L 506 -1331 
L 506 -850 
L 844 -850 
Q 1081 -850 1212 -737 
Q 1344 -625 1503 -206 
L 1606 56 
L 191 3500 
L 800 3500 
L 1894 763 
L 2988 3500 
L 3597 3500 
L 2059 -325 
z
" transform="scale(0.015625)"/>
     <path id="DejaVuSans-6f" d="M 1959 3097 
Q 1497 3097 1228 2736 
Q 959 2375 959 1747 
Q 959 1119 1226 758 
Q 1494 397 1959 397 
Q 2419 397 2687 759 
Q 2956 1122 2956 1747 
Q 2956 2369 2687 2733 
Q 2419 3097 1959 3097 
z
M 1959 3584 
Q 2709 3584 3137 3096 
Q 3566 2609 3566 1747 
Q 3566 888 3137 398 
Q 2709 -91 1959 -91 
Q 1206 -91 779 398 
Q 353 888 353 1747 
Q 353 2609 779 3096 
Q 1206 3584 1959 3584 
z
" transform="scale(0.015625)"/>
     <path id="DejaVuSans-72" d="M 2631 2963 
Q 2534 3019 2420 3045 
Q 2306 3072 2169 3072 
Q 1681 3072 1420 2755 
Q 1159 2438 1159 1844 
L 1159 0 
L 581 0 
L 581 3500 
L 1159 3500 
L 1159 2956 
Q 1341 3275 1631 3429 
Q 1922 3584 2338 3584 
Q 2397 3584 2469 3576 
Q 2541 3569 2628 3553 
L 2631 2963 
z
" transform="scale(0.015625)"/>
    </defs>
    <use xlink:href="#DejaVuSans-49"/>
    <use xlink:href="#DejaVuSans-6e" x="29.492188"/>
    <use xlink:href="#DejaVuSans-74" x="92.871094"/>
    <use xlink:href="#DejaVuSans-65" x="132.080078"/>
    <use xlink:href="#DejaVuSans-6e" x="193.603516"/>
    <use xlink:href="#DejaVuSans-73" x="256.982422"/>
    <use xlink:href="#DejaVuSans-69" x="309.082031"/>
    <use xlink:href="#DejaVuSans-74" x="336.865234"/>
    <use xlink:href="#DejaVuSans-79" x="376.074219"/>
    <use xlink:href="#DejaVuSans-20" x="435.253906"/>
    <use xlink:href="#DejaVuSans-28" x="467.041016"/>
    <use xlink:href="#DejaVuSans-6e" x="506.054688"/>
    <use xlink:href="#DejaVuSans-6f" x="569.433594"/>
    <use xlink:href="#DejaVuSans-72" x="630.615234"/>
    <use xlink:href="#DejaVuSans-6d" x="669.978516"/>
    <use xlink:href="#DejaVuSans-29" x="767.390625"/>
   </g>
  </g>
 </g>
 <defs>
  <clipPath id="p8d521b2920">
   <rect x="90" y="43.2" width="558" height="55.44"/>
  </clipPath>
  <clipPath id="p0618ccad31">
   <rect x="90" y="98.64" width="558" height="55.44"/>
  </clipPath>
  <clipPath id="p17629ccbed">
   <rect x="90" y="154.08" width="558" height="55.44"/>
  </clipPath>
  <clipPath id="pe3d8ac0c9b">
   <rect x="90" y="209.52" width="558" height="55.44"/>
  </clipPath>
  <clipPath id="p8d7d3bf565">
   <rect x="90" y="264.96" width="558" height="55.44"/>
  </clipPath>
 </defs>
</svg>
