<?xml version="1.0" encoding="utf-8" standalone="no"?>
<!DOCTYPE svg PUBLIC "-//W3C//DTD SVG 1.1//EN"
  "http://www.w3.org/Graphics/SVG/1.1/DTD/svg11.dtd">
<svg xmlns:xlink="http://www.w3.org/1999/xlink" width="460.8pt" height="345.6pt" viewBox="0 0 460.8 345.6" xmlns="http://www.w3.org/2000/svg" version="1.1">
 <metadata>
  <rdf:RDF xmlns:dc="http://purl.org/dc/elements/1.1/" xmlns:cc="http://creativecommons.org/ns#" xmlns:rdf="http://www.w3.org/1999/02/22-rdf-syntax-ns#">
   <cc:Work>
    <dc:type rdf:resource="http://purl.org/dc/dcmitype/StillImage"/>
    <dc:date>2024-12-09T18:41:24.665231</dc:date>
    <dc:format>image/svg+xml</dc:format>
    <dc:creator>
     <cc:Agent>
      <dc:title>Matplotlib v3.9.2, https://matplotlib.org/</dc:title>
     </cc:Agent>
    </dc:creator>
   </cc:Work>
  </rdf:RDF>
 </metadata>
 <defs>
  <style type="text/css">*{stroke-linejoin: round; stroke-linecap: butt}</style>
 </defs>
 <g id="figure_1">
  <g id="patch_1">
   <path d="M 0 345.6 
L 460.8 345.6 
L 460.8 0 
L 0 0 
z
" style="fill: #ffffff"/>
  </g>
  <g id="axes_1">
   <g id="patch_2">
    <path d="M 57.6 307.584 
L 414.72 307.584 
L 414.72 41.472 
L 57.6 41.472 
z
" style="fill: #ffffff"/>
   </g>
   <g id="matplotlib.axis_1">
    <g id="xtick_1">
     <g id="line2d_1">
      <defs>
       <path id="m1274e6b526" d="M 0 0 
L 0 3.5 
" style="stroke: #000000; stroke-width: 0.8"/>
      </defs>
      <g>
       <use xlink:href="#m1274e6b526" x="73.832727" y="307.584" style="stroke: #000000; stroke-width: 0.8"/>
      </g>
     </g>
     <g id="text_1">
      <!-- 0 -->
      <g transform="translate(69.060852 325.981656) scale(0.15 -0.15)">
       <defs>
        <path id="DejaVuSans-30" d="M 2034 4250 
Q 1547 4250 1301 3770 
Q 1056 3291 1056 2328 
Q 1056 1369 1301 889 
Q 1547 409 2034 409 
Q 2525 409 2770 889 
Q 3016 1369 3016 2328 
Q 3016 3291 2770 3770 
Q 2525 4250 2034 4250 
z
M 2034 4750 
Q 2819 4750 3233 4129 
Q 3647 3509 3647 2328 
Q 3647 1150 3233 529 
Q 2819 -91 2034 -91 
Q 1250 -91 836 529 
Q 422 1150 422 2328 
Q 422 3509 836 4129 
Q 1250 4750 2034 4750 
z
" transform="scale(0.015625)"/>
       </defs>
       <use xlink:href="#DejaVuSans-30"/>
      </g>
     </g>
    </g>
    <g id="xtick_2">
     <g id="line2d_2">
      <g>
       <use xlink:href="#m1274e6b526" x="142.370909" y="307.584" style="stroke: #000000; stroke-width: 0.8"/>
      </g>
     </g>
     <g id="text_2">
      <!-- 200 -->
      <g transform="translate(128.055284 325.981656) scale(0.15 -0.15)">
       <defs>
        <path id="DejaVuSans-32" d="M 1228 531 
L 3431 531 
L 3431 0 
L 469 0 
L 469 531 
Q 828 903 1448 1529 
Q 2069 2156 2228 2338 
Q 2531 2678 2651 2914 
Q 2772 3150 2772 3378 
Q 2772 3750 2511 3984 
Q 2250 4219 1831 4219 
Q 1534 4219 1204 4116 
Q 875 4013 500 3803 
L 500 4441 
Q 881 4594 1212 4672 
Q 1544 4750 1819 4750 
Q 2544 4750 2975 4387 
Q 3406 4025 3406 3419 
Q 3406 3131 3298 2873 
Q 3191 2616 2906 2266 
Q 2828 2175 2409 1742 
Q 1991 1309 1228 531 
z
" transform="scale(0.015625)"/>
       </defs>
       <use xlink:href="#DejaVuSans-32"/>
       <use xlink:href="#DejaVuSans-30" x="63.623047"/>
       <use xlink:href="#DejaVuSans-30" x="127.246094"/>
      </g>
     </g>
    </g>
    <g id="xtick_3">
     <g id="line2d_3">
      <g>
       <use xlink:href="#m1274e6b526" x="210.909091" y="307.584" style="stroke: #000000; stroke-width: 0.8"/>
      </g>
     </g>
     <g id="text_3">
      <!-- 400 -->
      <g transform="translate(196.593466 325.981656) scale(0.15 -0.15)">
       <defs>
        <path id="DejaVuSans-34" d="M 2419 4116 
L 825 1625 
L 2419 1625 
L 2419 4116 
z
M 2253 4666 
L 3047 4666 
L 3047 1625 
L 3713 1625 
L 3713 1100 
L 3047 1100 
L 3047 0 
L 2419 0 
L 2419 1100 
L 313 1100 
L 313 1709 
L 2253 4666 
z
" transform="scale(0.015625)"/>
       </defs>
       <use xlink:href="#DejaVuSans-34"/>
       <use xlink:href="#DejaVuSans-30" x="63.623047"/>
       <use xlink:href="#DejaVuSans-30" x="127.246094"/>
      </g>
     </g>
    </g>
    <g id="xtick_4">
     <g id="line2d_4">
      <g>
       <use xlink:href="#m1274e6b526" x="279.447273" y="307.584" style="stroke: #000000; stroke-width: 0.8"/>
      </g>
     </g>
     <g id="text_4">
      <!-- 600 -->
      <g transform="translate(265.131648 325.981656) scale(0.15 -0.15)">
       <defs>
        <path id="DejaVuSans-36" d="M 2113 2584 
Q 1688 2584 1439 2293 
Q 1191 2003 1191 1497 
Q 1191 994 1439 701 
Q 1688 409 2113 409 
Q 2538 409 2786 701 
Q 3034 994 3034 1497 
Q 3034 2003 2786 2293 
Q 2538 2584 2113 2584 
z
M 3366 4563 
L 3366 3988 
Q 3128 4100 2886 4159 
Q 2644 4219 2406 4219 
Q 1781 4219 1451 3797 
Q 1122 3375 1075 2522 
Q 1259 2794 1537 2939 
Q 1816 3084 2150 3084 
Q 2853 3084 3261 2657 
Q 3669 2231 3669 1497 
Q 3669 778 3244 343 
Q 2819 -91 2113 -91 
Q 1303 -91 875 529 
Q 447 1150 447 2328 
Q 447 3434 972 4092 
Q 1497 4750 2381 4750 
Q 2619 4750 2861 4703 
Q 3103 4656 3366 4563 
z
" transform="scale(0.015625)"/>
       </defs>
       <use xlink:href="#DejaVuSans-36"/>
       <use xlink:href="#DejaVuSans-30" x="63.623047"/>
       <use xlink:href="#DejaVuSans-30" x="127.246094"/>
      </g>
     </g>
    </g>
    <g id="xtick_5">
     <g id="line2d_5">
      <g>
       <use xlink:href="#m1274e6b526" x="347.985455" y="307.584" style="stroke: #000000; stroke-width: 0.8"/>
      </g>
     </g>
     <g id="text_5">
      <!-- 800 -->
      <g transform="translate(333.66983 325.981656) scale(0.15 -0.15)">
       <defs>
        <path id="DejaVuSans-38" d="M 2034 2216 
Q 1584 2216 1326 1975 
Q 1069 1734 1069 1313 
Q 1069 891 1326 650 
Q 1584 409 2034 409 
Q 2484 409 2743 651 
Q 3003 894 3003 1313 
Q 3003 1734 2745 1975 
Q 2488 2216 2034 2216 
z
M 1403 2484 
Q 997 2584 770 2862 
Q 544 3141 544 3541 
Q 544 4100 942 4425 
Q 1341 4750 2034 4750 
Q 2731 4750 3128 4425 
Q 3525 4100 3525 3541 
Q 3525 3141 3298 2862 
Q 3072 2584 2669 2484 
Q 3125 2378 3379 2068 
Q 3634 1759 3634 1313 
Q 3634 634 3220 271 
Q 2806 -91 2034 -91 
Q 1263 -91 848 271 
Q 434 634 434 1313 
Q 434 1759 690 2068 
Q 947 2378 1403 2484 
z
M 1172 3481 
Q 1172 3119 1398 2916 
Q 1625 2713 2034 2713 
Q 2441 2713 2670 2916 
Q 2900 3119 2900 3481 
Q 2900 3844 2670 4047 
Q 2441 4250 2034 4250 
Q 1625 4250 1398 4047 
Q 1172 3844 1172 3481 
z
" transform="scale(0.015625)"/>
       </defs>
       <use xlink:href="#DejaVuSans-38"/>
       <use xlink:href="#DejaVuSans-30" x="63.623047"/>
       <use xlink:href="#DejaVuSans-30" x="127.246094"/>
      </g>
     </g>
    </g>
    <g id="text_6">
     <!-- Time ($\mu$s) -->
     <g transform="translate(200.61 344.501187) scale(0.15 -0.15)">
      <defs>
       <path id="DejaVuSans-54" d="M -19 4666 
L 3928 4666 
L 3928 4134 
L 2272 4134 
L 2272 0 
L 1638 0 
L 1638 4134 
L -19 4134 
L -19 4666 
z
" transform="scale(0.015625)"/>
       <path id="DejaVuSans-69" d="M 603 3500 
L 1178 3500 
L 1178 0 
L 603 0 
L 603 3500 
z
M 603 4863 
L 1178 4863 
L 1178 4134 
L 603 4134 
L 603 4863 
z
" transform="scale(0.015625)"/>
       <path id="DejaVuSans-6d" d="M 3328 2828 
Q 3544 3216 3844 3400 
Q 4144 3584 4550 3584 
Q 5097 3584 5394 3201 
Q 5691 2819 5691 2113 
L 5691 0 
L 5113 0 
L 5113 2094 
Q 5113 2597 4934 2840 
Q 4756 3084 4391 3084 
Q 3944 3084 3684 2787 
Q 3425 2491 3425 1978 
L 3425 0 
L 2847 0 
L 2847 2094 
Q 2847 2600 2669 2842 
Q 2491 3084 2119 3084 
Q 1678 3084 1418 2786 
Q 1159 2488 1159 1978 
L 1159 0 
L 581 0 
L 581 3500 
L 1159 3500 
L 1159 2956 
Q 1356 3278 1631 3431 
Q 1906 3584 2284 3584 
Q 2666 3584 2933 3390 
Q 3200 3197 3328 2828 
z
" transform="scale(0.015625)"/>
       <path id="DejaVuSans-65" d="M 3597 1894 
L 3597 1613 
L 953 1613 
Q 991 1019 1311 708 
Q 1631 397 2203 397 
Q 2534 397 2845 478 
Q 3156 559 3463 722 
L 3463 178 
Q 3153 47 2828 -22 
Q 2503 -91 2169 -91 
Q 1331 -91 842 396 
Q 353 884 353 1716 
Q 353 2575 817 3079 
Q 1281 3584 2069 3584 
Q 2775 3584 3186 3129 
Q 3597 2675 3597 1894 
z
M 3022 2063 
Q 3016 2534 2758 2815 
Q 2500 3097 2075 3097 
Q 1594 3097 1305 2825 
Q 1016 2553 972 2059 
L 3022 2063 
z
" transform="scale(0.015625)"/>
       <path id="DejaVuSans-20" transform="scale(0.015625)"/>
       <path id="DejaVuSans-28" d="M 1984 4856 
Q 1566 4138 1362 3434 
Q 1159 2731 1159 2009 
Q 1159 1288 1364 580 
Q 1569 -128 1984 -844 
L 1484 -844 
Q 1016 -109 783 600 
Q 550 1309 550 2009 
Q 550 2706 781 3412 
Q 1013 4119 1484 4856 
L 1984 4856 
z
" transform="scale(0.015625)"/>
       <path id="DejaVuSans-Oblique-3bc" d="M -84 -1331 
L 856 3500 
L 1434 3500 
L 1009 1322 
Q 997 1256 987 1175 
Q 978 1094 978 1013 
Q 978 722 1161 565 
Q 1344 409 1684 409 
Q 2147 409 2431 671 
Q 2716 934 2816 1459 
L 3213 3500 
L 3788 3500 
L 3266 809 
Q 3253 750 3248 706 
Q 3244 663 3244 628 
Q 3244 531 3283 486 
Q 3322 441 3406 441 
Q 3438 441 3492 456 
Q 3547 472 3647 513 
L 3559 50 
Q 3422 -19 3297 -55 
Q 3172 -91 3053 -91 
Q 2847 -91 2730 40 
Q 2613 172 2613 403 
Q 2438 153 2195 31 
Q 1953 -91 1625 -91 
Q 1334 -91 1117 43 
Q 900 178 831 397 
L 494 -1331 
L -84 -1331 
z
" transform="scale(0.015625)"/>
       <path id="DejaVuSans-73" d="M 2834 3397 
L 2834 2853 
Q 2591 2978 2328 3040 
Q 2066 3103 1784 3103 
Q 1356 3103 1142 2972 
Q 928 2841 928 2578 
Q 928 2378 1081 2264 
Q 1234 2150 1697 2047 
L 1894 2003 
Q 2506 1872 2764 1633 
Q 3022 1394 3022 966 
Q 3022 478 2636 193 
Q 2250 -91 1575 -91 
Q 1294 -91 989 -36 
Q 684 19 347 128 
L 347 722 
Q 666 556 975 473 
Q 1284 391 1588 391 
Q 1994 391 2212 530 
Q 2431 669 2431 922 
Q 2431 1156 2273 1281 
Q 2116 1406 1581 1522 
L 1381 1569 
Q 847 1681 609 1914 
Q 372 2147 372 2553 
Q 372 3047 722 3315 
Q 1072 3584 1716 3584 
Q 2034 3584 2315 3537 
Q 2597 3491 2834 3397 
z
" transform="scale(0.015625)"/>
       <path id="DejaVuSans-29" d="M 513 4856 
L 1013 4856 
Q 1481 4119 1714 3412 
Q 1947 2706 1947 2009 
Q 1947 1309 1714 600 
Q 1481 -109 1013 -844 
L 513 -844 
Q 928 -128 1133 580 
Q 1338 1288 1338 2009 
Q 1338 2731 1133 3434 
Q 928 4138 513 4856 
z
" transform="scale(0.015625)"/>
      </defs>
      <use xlink:href="#DejaVuSans-54" transform="translate(0 0.015625)"/>
      <use xlink:href="#DejaVuSans-69" transform="translate(61.083984 0.015625)"/>
      <use xlink:href="#DejaVuSans-6d" transform="translate(88.867188 0.015625)"/>
      <use xlink:href="#DejaVuSans-65" transform="translate(186.279297 0.015625)"/>
      <use xlink:href="#DejaVuSans-20" transform="translate(247.802734 0.015625)"/>
      <use xlink:href="#DejaVuSans-28" transform="translate(279.589844 0.015625)"/>
      <use xlink:href="#DejaVuSans-Oblique-3bc" transform="translate(318.603516 0.015625)"/>
      <use xlink:href="#DejaVuSans-73" transform="translate(382.226562 0.015625)"/>
      <use xlink:href="#DejaVuSans-29" transform="translate(434.326172 0.015625)"/>
     </g>
    </g>
   </g>
   <g id="matplotlib.axis_2">
    <g id="text_7">
     <!-- Normalized frequency -->
     <g transform="translate(50.480469 257.059641) rotate(-90) scale(0.15 -0.15)">
      <defs>
       <path id="DejaVuSans-4e" d="M 628 4666 
L 1478 4666 
L 3547 763 
L 3547 4666 
L 4159 4666 
L 4159 0 
L 3309 0 
L 1241 3903 
L 1241 0 
L 628 0 
L 628 4666 
z
" transform="scale(0.015625)"/>
       <path id="DejaVuSans-6f" d="M 1959 3097 
Q 1497 3097 1228 2736 
Q 959 2375 959 1747 
Q 959 1119 1226 758 
Q 1494 397 1959 397 
Q 2419 397 2687 759 
Q 2956 1122 2956 1747 
Q 2956 2369 2687 2733 
Q 2419 3097 1959 3097 
z
M 1959 3584 
Q 2709 3584 3137 3096 
Q 3566 2609 3566 1747 
Q 3566 888 3137 398 
Q 2709 -91 1959 -91 
Q 1206 -91 779 398 
Q 353 888 353 1747 
Q 353 2609 779 3096 
Q 1206 3584 1959 3584 
z
" transform="scale(0.015625)"/>
       <path id="DejaVuSans-72" d="M 2631 2963 
Q 2534 3019 2420 3045 
Q 2306 3072 2169 3072 
Q 1681 3072 1420 2755 
Q 1159 2438 1159 1844 
L 1159 0 
L 581 0 
L 581 3500 
L 1159 3500 
L 1159 2956 
Q 1341 3275 1631 3429 
Q 1922 3584 2338 3584 
Q 2397 3584 2469 3576 
Q 2541 3569 2628 3553 
L 2631 2963 
z
" transform="scale(0.015625)"/>
       <path id="DejaVuSans-61" d="M 2194 1759 
Q 1497 1759 1228 1600 
Q 959 1441 959 1056 
Q 959 750 1161 570 
Q 1363 391 1709 391 
Q 2188 391 2477 730 
Q 2766 1069 2766 1631 
L 2766 1759 
L 2194 1759 
z
M 3341 1997 
L 3341 0 
L 2766 0 
L 2766 531 
Q 2569 213 2275 61 
Q 1981 -91 1556 -91 
Q 1019 -91 701 211 
Q 384 513 384 1019 
Q 384 1609 779 1909 
Q 1175 2209 1959 2209 
L 2766 2209 
L 2766 2266 
Q 2766 2663 2505 2880 
Q 2244 3097 1772 3097 
Q 1472 3097 1187 3025 
Q 903 2953 641 2809 
L 641 3341 
Q 956 3463 1253 3523 
Q 1550 3584 1831 3584 
Q 2591 3584 2966 3190 
Q 3341 2797 3341 1997 
z
" transform="scale(0.015625)"/>
       <path id="DejaVuSans-6c" d="M 603 4863 
L 1178 4863 
L 1178 0 
L 603 0 
L 603 4863 
z
" transform="scale(0.015625)"/>
       <path id="DejaVuSans-7a" d="M 353 3500 
L 3084 3500 
L 3084 2975 
L 922 459 
L 3084 459 
L 3084 0 
L 275 0 
L 275 525 
L 2438 3041 
L 353 3041 
L 353 3500 
z
" transform="scale(0.015625)"/>
       <path id="DejaVuSans-64" d="M 2906 2969 
L 2906 4863 
L 3481 4863 
L 3481 0 
L 2906 0 
L 2906 525 
Q 2725 213 2448 61 
Q 2172 -91 1784 -91 
Q 1150 -91 751 415 
Q 353 922 353 1747 
Q 353 2572 751 3078 
Q 1150 3584 1784 3584 
Q 2172 3584 2448 3432 
Q 2725 3281 2906 2969 
z
M 947 1747 
Q 947 1113 1208 752 
Q 1469 391 1925 391 
Q 2381 391 2643 752 
Q 2906 1113 2906 1747 
Q 2906 2381 2643 2742 
Q 2381 3103 1925 3103 
Q 1469 3103 1208 2742 
Q 947 2381 947 1747 
z
" transform="scale(0.015625)"/>
       <path id="DejaVuSans-66" d="M 2375 4863 
L 2375 4384 
L 1825 4384 
Q 1516 4384 1395 4259 
Q 1275 4134 1275 3809 
L 1275 3500 
L 2222 3500 
L 2222 3053 
L 1275 3053 
L 1275 0 
L 697 0 
L 697 3053 
L 147 3053 
L 147 3500 
L 697 3500 
L 697 3744 
Q 697 4328 969 4595 
Q 1241 4863 1831 4863 
L 2375 4863 
z
" transform="scale(0.015625)"/>
       <path id="DejaVuSans-71" d="M 947 1747 
Q 947 1113 1208 752 
Q 1469 391 1925 391 
Q 2381 391 2643 752 
Q 2906 1113 2906 1747 
Q 2906 2381 2643 2742 
Q 2381 3103 1925 3103 
Q 1469 3103 1208 2742 
Q 947 2381 947 1747 
z
M 2906 525 
Q 2725 213 2448 61 
Q 2172 -91 1784 -91 
Q 1150 -91 751 415 
Q 353 922 353 1747 
Q 353 2572 751 3078 
Q 1150 3584 1784 3584 
Q 2172 3584 2448 3432 
Q 2725 3281 2906 2969 
L 2906 3500 
L 3481 3500 
L 3481 -1331 
L 2906 -1331 
L 2906 525 
z
" transform="scale(0.015625)"/>
       <path id="DejaVuSans-75" d="M 544 1381 
L 544 3500 
L 1119 3500 
L 1119 1403 
Q 1119 906 1312 657 
Q 1506 409 1894 409 
Q 2359 409 2629 706 
Q 2900 1003 2900 1516 
L 2900 3500 
L 3475 3500 
L 3475 0 
L 2900 0 
L 2900 538 
Q 2691 219 2414 64 
Q 2138 -91 1772 -91 
Q 1169 -91 856 284 
Q 544 659 544 1381 
z
M 1991 3584 
L 1991 3584 
z
" transform="scale(0.015625)"/>
       <path id="DejaVuSans-6e" d="M 3513 2113 
L 3513 0 
L 2938 0 
L 2938 2094 
Q 2938 2591 2744 2837 
Q 2550 3084 2163 3084 
Q 1697 3084 1428 2787 
Q 1159 2491 1159 1978 
L 1159 0 
L 581 0 
L 581 3500 
L 1159 3500 
L 1159 2956 
Q 1366 3272 1645 3428 
Q 1925 3584 2291 3584 
Q 2894 3584 3203 3211 
Q 3513 2838 3513 2113 
z
" transform="scale(0.015625)"/>
       <path id="DejaVuSans-63" d="M 3122 3366 
L 3122 2828 
Q 2878 2963 2633 3030 
Q 2388 3097 2138 3097 
Q 1578 3097 1268 2742 
Q 959 2388 959 1747 
Q 959 1106 1268 751 
Q 1578 397 2138 397 
Q 2388 397 2633 464 
Q 2878 531 3122 666 
L 3122 134 
Q 2881 22 2623 -34 
Q 2366 -91 2075 -91 
Q 1284 -91 818 406 
Q 353 903 353 1747 
Q 353 2603 823 3093 
Q 1294 3584 2113 3584 
Q 2378 3584 2631 3529 
Q 2884 3475 3122 3366 
z
" transform="scale(0.015625)"/>
       <path id="DejaVuSans-79" d="M 2059 -325 
Q 1816 -950 1584 -1140 
Q 1353 -1331 966 -1331 
L 506 -1331 
L 506 -850 
L 844 -850 
Q 1081 -850 1212 -737 
Q 1344 -625 1503 -206 
L 1606 56 
L 191 3500 
L 800 3500 
L 1894 763 
L 2988 3500 
L 3597 3500 
L 2059 -325 
z
" transform="scale(0.015625)"/>
      </defs>
      <use xlink:href="#DejaVuSans-4e"/>
      <use xlink:href="#DejaVuSans-6f" x="74.804688"/>
      <use xlink:href="#DejaVuSans-72" x="135.986328"/>
      <use xlink:href="#DejaVuSans-6d" x="175.349609"/>
      <use xlink:href="#DejaVuSans-61" x="272.761719"/>
      <use xlink:href="#DejaVuSans-6c" x="334.041016"/>
      <use xlink:href="#DejaVuSans-69" x="361.824219"/>
      <use xlink:href="#DejaVuSans-7a" x="389.607422"/>
      <use xlink:href="#DejaVuSans-65" x="442.097656"/>
      <use xlink:href="#DejaVuSans-64" x="503.621094"/>
      <use xlink:href="#DejaVuSans-20" x="567.097656"/>
      <use xlink:href="#DejaVuSans-66" x="598.884766"/>
      <use xlink:href="#DejaVuSans-72" x="634.089844"/>
      <use xlink:href="#DejaVuSans-65" x="672.953125"/>
      <use xlink:href="#DejaVuSans-71" x="734.476562"/>
      <use xlink:href="#DejaVuSans-75" x="797.953125"/>
      <use xlink:href="#DejaVuSans-65" x="861.332031"/>
      <use xlink:href="#DejaVuSans-6e" x="922.855469"/>
      <use xlink:href="#DejaVuSans-63" x="986.234375"/>
      <use xlink:href="#DejaVuSans-79" x="1041.214844"/>
     </g>
    </g>
   </g>
   <g id="line2d_6">
    <path d="M 108.101818 346.6 
L 108.101818 -1 
" clip-path="url(#p288651e753)" style="fill: none; stroke: #000000; stroke-width: 1.5; stroke-linecap: square"/>
   </g>
   <g id="line2d_7">
    <defs>
     <path id="m4d381b73fa" d="M -4 4 
L 4 4 
L 4 -4 
L -4 -4 
z
" style="stroke: #663399; stroke-linejoin: miter"/>
    </defs>
    <g clip-path="url(#p288651e753)">
     <use xlink:href="#m4d381b73fa" x="73.832727" y="78.642426" style="fill: #663399; stroke: #663399; stroke-linejoin: miter"/>
     <use xlink:href="#m4d381b73fa" x="91.869091" y="177.482663" style="fill: #663399; stroke: #663399; stroke-linejoin: miter"/>
     <use xlink:href="#m4d381b73fa" x="109.905455" y="212.58279" style="fill: #663399; stroke: #663399; stroke-linejoin: miter"/>
     <use xlink:href="#m4d381b73fa" x="127.941818" y="244.668183" style="fill: #663399; stroke: #663399; stroke-linejoin: miter"/>
     <use xlink:href="#m4d381b73fa" x="145.978182" y="261.89524" style="fill: #663399; stroke: #663399; stroke-linejoin: miter"/>
     <use xlink:href="#m4d381b73fa" x="164.014545" y="268.140048" style="fill: #663399; stroke: #663399; stroke-linejoin: miter"/>
     <use xlink:href="#m4d381b73fa" x="182.050909" y="278.260943" style="fill: #663399; stroke: #663399; stroke-linejoin: miter"/>
     <use xlink:href="#m4d381b73fa" x="200.087273" y="284.72109" style="fill: #663399; stroke: #663399; stroke-linejoin: miter"/>
     <use xlink:href="#m4d381b73fa" x="218.123636" y="286.228457" style="fill: #663399; stroke: #663399; stroke-linejoin: miter"/>
     <use xlink:href="#m4d381b73fa" x="236.16" y="289.673868" style="fill: #663399; stroke: #663399; stroke-linejoin: miter"/>
     <use xlink:href="#m4d381b73fa" x="254.196364" y="287.951163" style="fill: #663399; stroke: #663399; stroke-linejoin: miter"/>
     <use xlink:href="#m4d381b73fa" x="272.232727" y="291.396574" style="fill: #663399; stroke: #663399; stroke-linejoin: miter"/>
     <use xlink:href="#m4d381b73fa" x="290.269091" y="291.611912" style="fill: #663399; stroke: #663399; stroke-linejoin: miter"/>
     <use xlink:href="#m4d381b73fa" x="308.305455" y="293.980633" style="fill: #663399; stroke: #663399; stroke-linejoin: miter"/>
     <use xlink:href="#m4d381b73fa" x="326.341818" y="293.11928" style="fill: #663399; stroke: #663399; stroke-linejoin: miter"/>
     <use xlink:href="#m4d381b73fa" x="344.378182" y="293.334618" style="fill: #663399; stroke: #663399; stroke-linejoin: miter"/>
     <use xlink:href="#m4d381b73fa" x="362.414545" y="294.195971" style="fill: #663399; stroke: #663399; stroke-linejoin: miter"/>
     <use xlink:href="#m4d381b73fa" x="380.450909" y="294.626647" style="fill: #663399; stroke: #663399; stroke-linejoin: miter"/>
     <use xlink:href="#m4d381b73fa" x="398.487273" y="295.488" style="fill: #663399; stroke: #663399; stroke-linejoin: miter"/>
    </g>
   </g>
   <g id="line2d_8">
    <path d="M 73.832727 109.930908 
L 91.869091 173.035292 
L 109.905455 214.466024 
L 127.941818 241.667075 
L 145.978182 259.525731 
L 164.014545 271.250703 
L 182.050909 278.948651 
L 200.087273 284.002683 
L 218.123636 287.320871 
L 236.16 289.499404 
L 254.196364 290.929705 
L 272.232727 291.868758 
L 290.269091 292.485287 
L 308.305455 292.890064 
L 326.341818 293.155818 
L 344.378182 293.330297 
L 362.414545 293.44485 
L 380.450909 293.520059 
L 398.487273 293.569437 
" clip-path="url(#p288651e753)" style="fill: none; stroke-dasharray: 7.4,3.2; stroke-dashoffset: 0; stroke: #663399; stroke-opacity: 0.8; stroke-width: 2"/>
   </g>
   <g id="line2d_9">
    <defs>
     <path id="m25ad2248b9" d="M -4 4 
L 4 4 
L 4 -4 
L -4 -4 
z
" style="stroke: #0000ff; stroke-linejoin: miter"/>
    </defs>
    <g clip-path="url(#p288651e753)">
     <use xlink:href="#m25ad2248b9" x="73.832727" y="78.642426" style="fill: #0000ff; stroke: #0000ff; stroke-linejoin: miter"/>
     <use xlink:href="#m25ad2248b9" x="91.869091" y="140.435858" style="fill: #0000ff; stroke: #0000ff; stroke-linejoin: miter"/>
     <use xlink:href="#m25ad2248b9" x="109.905455" y="187.870795" style="fill: #0000ff; stroke: #0000ff; stroke-linejoin: miter"/>
     <use xlink:href="#m25ad2248b9" x="127.941818" y="218.144733" style="fill: #0000ff; stroke: #0000ff; stroke-linejoin: miter"/>
     <use xlink:href="#m25ad2248b9" x="145.978182" y="238.938604" style="fill: #0000ff; stroke: #0000ff; stroke-linejoin: miter"/>
     <use xlink:href="#m25ad2248b9" x="164.014545" y="254.542656" style="fill: #0000ff; stroke: #0000ff; stroke-linejoin: miter"/>
     <use xlink:href="#m25ad2248b9" x="182.050909" y="261.912198" style="fill: #0000ff; stroke: #0000ff; stroke-linejoin: miter"/>
     <use xlink:href="#m25ad2248b9" x="200.087273" y="270.942481" style="fill: #0000ff; stroke: #0000ff; stroke-linejoin: miter"/>
     <use xlink:href="#m25ad2248b9" x="218.123636" y="275.613317" style="fill: #0000ff; stroke: #0000ff; stroke-linejoin: miter"/>
     <use xlink:href="#m25ad2248b9" x="236.16" y="280.076561" style="fill: #0000ff; stroke: #0000ff; stroke-linejoin: miter"/>
     <use xlink:href="#m25ad2248b9" x="254.196364" y="282.360081" style="fill: #0000ff; stroke: #0000ff; stroke-linejoin: miter"/>
     <use xlink:href="#m25ad2248b9" x="272.232727" y="285.923756" style="fill: #0000ff; stroke: #0000ff; stroke-linejoin: miter"/>
     <use xlink:href="#m25ad2248b9" x="290.269091" y="287.619096" style="fill: #0000ff; stroke: #0000ff; stroke-linejoin: miter"/>
     <use xlink:href="#m25ad2248b9" x="308.305455" y="289.106844" style="fill: #0000ff; stroke: #0000ff; stroke-linejoin: miter"/>
     <use xlink:href="#m25ad2248b9" x="326.341818" y="290.94058" style="fill: #0000ff; stroke: #0000ff; stroke-linejoin: miter"/>
     <use xlink:href="#m25ad2248b9" x="344.378182" y="291.978543" style="fill: #0000ff; stroke: #0000ff; stroke-linejoin: miter"/>
     <use xlink:href="#m25ad2248b9" x="362.414545" y="292.566723" style="fill: #0000ff; stroke: #0000ff; stroke-linejoin: miter"/>
     <use xlink:href="#m25ad2248b9" x="380.450909" y="292.878112" style="fill: #0000ff; stroke: #0000ff; stroke-linejoin: miter"/>
     <use xlink:href="#m25ad2248b9" x="398.487273" y="294.054471" style="fill: #0000ff; stroke: #0000ff; stroke-linejoin: miter"/>
    </g>
   </g>
   <g id="line2d_10">
    <path d="M 73.832727 100.509527 
L 91.869091 151.842362 
L 109.905455 189.489829 
L 127.941818 217.100457 
L 145.978182 237.350072 
L 164.014545 252.201127 
L 182.050909 263.092881 
L 200.087273 271.080886 
L 218.123636 276.939283 
L 236.16 281.235828 
L 254.196364 284.386911 
L 272.232727 286.697913 
L 290.269091 288.392801 
L 308.305455 289.63583 
L 326.341818 290.547467 
L 344.378182 291.216061 
L 362.414545 291.706407 
L 380.450909 292.066027 
L 398.487273 292.329772 
" clip-path="url(#p288651e753)" style="fill: none; stroke-dasharray: 7.4,3.2; stroke-dashoffset: 0; stroke: #0000ff; stroke-opacity: 0.8; stroke-width: 2"/>
   </g>
   <g id="line2d_11">
    <defs>
     <path id="m6cfeb525fc" d="M -4 4 
L 4 4 
L 4 -4 
L -4 -4 
z
" style="stroke: #008000; stroke-linejoin: miter"/>
    </defs>
    <g clip-path="url(#p288651e753)">
     <use xlink:href="#m6cfeb525fc" x="73.832727" y="78.642426" style="fill: #008000; stroke: #008000; stroke-linejoin: miter"/>
     <use xlink:href="#m6cfeb525fc" x="91.869091" y="121.330932" style="fill: #008000; stroke: #008000; stroke-linejoin: miter"/>
     <use xlink:href="#m6cfeb525fc" x="109.905455" y="161.403841" style="fill: #008000; stroke: #008000; stroke-linejoin: miter"/>
     <use xlink:href="#m6cfeb525fc" x="127.941818" y="192.716971" style="fill: #008000; stroke: #008000; stroke-linejoin: miter"/>
     <use xlink:href="#m6cfeb525fc" x="145.978182" y="213.419662" style="fill: #008000; stroke: #008000; stroke-linejoin: miter"/>
     <use xlink:href="#m6cfeb525fc" x="164.014545" y="230.939223" style="fill: #008000; stroke: #008000; stroke-linejoin: miter"/>
     <use xlink:href="#m6cfeb525fc" x="182.050909" y="244.782143" style="fill: #008000; stroke: #008000; stroke-linejoin: miter"/>
     <use xlink:href="#m6cfeb525fc" x="200.087273" y="253.6653" style="fill: #008000; stroke: #008000; stroke-linejoin: miter"/>
     <use xlink:href="#m6cfeb525fc" x="218.123636" y="261.956247" style="fill: #008000; stroke: #008000; stroke-linejoin: miter"/>
     <use xlink:href="#m6cfeb525fc" x="236.16" y="266.570554" style="fill: #008000; stroke: #008000; stroke-linejoin: miter"/>
     <use xlink:href="#m6cfeb525fc" x="254.196364" y="273.331623" style="fill: #008000; stroke: #008000; stroke-linejoin: miter"/>
     <use xlink:href="#m6cfeb525fc" x="272.232727" y="275.651114" style="fill: #008000; stroke: #008000; stroke-linejoin: miter"/>
     <use xlink:href="#m6cfeb525fc" x="290.269091" y="278.957623" style="fill: #008000; stroke: #008000; stroke-linejoin: miter"/>
     <use xlink:href="#m6cfeb525fc" x="308.305455" y="281.62257" style="fill: #008000; stroke: #008000; stroke-linejoin: miter"/>
     <use xlink:href="#m6cfeb525fc" x="326.341818" y="283.497903" style="fill: #008000; stroke: #008000; stroke-linejoin: miter"/>
     <use xlink:href="#m6cfeb525fc" x="344.378182" y="284.904403" style="fill: #008000; stroke: #008000; stroke-linejoin: miter"/>
     <use xlink:href="#m6cfeb525fc" x="362.414545" y="286.779737" style="fill: #008000; stroke: #008000; stroke-linejoin: miter"/>
     <use xlink:href="#m6cfeb525fc" x="380.450909" y="287.297921" style="fill: #008000; stroke: #008000; stroke-linejoin: miter"/>
     <use xlink:href="#m6cfeb525fc" x="398.487273" y="289.197929" style="fill: #008000; stroke: #008000; stroke-linejoin: miter"/>
    </g>
   </g>
   <g id="line2d_12">
    <path d="M 73.832727 78.839443 
L 91.869091 126.089007 
L 109.905455 162.754507 
L 127.941818 191.20681 
L 145.978182 213.285701 
L 164.014545 230.418844 
L 182.050909 243.714106 
L 200.087273 254.031183 
L 218.123636 262.0372 
L 236.16 268.249842 
L 254.196364 273.07083 
L 272.232727 276.811901 
L 290.269091 279.71496 
L 308.305455 281.967723 
L 326.341818 283.71586 
L 344.378182 285.072408 
L 362.414545 286.125085 
L 380.450909 286.941958 
L 398.487273 287.575849 
" clip-path="url(#p288651e753)" style="fill: none; stroke-dasharray: 7.4,3.2; stroke-dashoffset: 0; stroke: #008000; stroke-opacity: 0.8; stroke-width: 2"/>
   </g>
   <g id="line2d_13">
    <defs>
     <path id="mae82a7f995" d="M -4 4 
L 4 4 
L 4 -4 
L -4 -4 
z
" style="stroke: #ffd700; stroke-linejoin: miter"/>
    </defs>
    <g clip-path="url(#p288651e753)">
     <use xlink:href="#mae82a7f995" x="73.832727" y="78.642426" style="fill: #ffd700; stroke: #ffd700; stroke-linejoin: miter"/>
     <use xlink:href="#mae82a7f995" x="91.869091" y="113.481918" style="fill: #ffd700; stroke: #ffd700; stroke-linejoin: miter"/>
     <use xlink:href="#mae82a7f995" x="109.905455" y="149.982125" style="fill: #ffd700; stroke: #ffd700; stroke-linejoin: miter"/>
     <use xlink:href="#mae82a7f995" x="127.941818" y="180.576581" style="fill: #ffd700; stroke: #ffd700; stroke-linejoin: miter"/>
     <use xlink:href="#mae82a7f995" x="145.978182" y="201.704073" style="fill: #ffd700; stroke: #ffd700; stroke-linejoin: miter"/>
     <use xlink:href="#mae82a7f995" x="164.014545" y="220.380456" style="fill: #ffd700; stroke: #ffd700; stroke-linejoin: miter"/>
     <use xlink:href="#mae82a7f995" x="182.050909" y="234.234549" style="fill: #ffd700; stroke: #ffd700; stroke-linejoin: miter"/>
     <use xlink:href="#mae82a7f995" x="200.087273" y="245.726342" style="fill: #ffd700; stroke: #ffd700; stroke-linejoin: miter"/>
     <use xlink:href="#mae82a7f995" x="218.123636" y="254.083202" style="fill: #ffd700; stroke: #ffd700; stroke-linejoin: miter"/>
     <use xlink:href="#mae82a7f995" x="236.16" y="259.411699" style="fill: #ffd700; stroke: #ffd700; stroke-linejoin: miter"/>
     <use xlink:href="#mae82a7f995" x="254.196364" y="266.356508" style="fill: #ffd700; stroke: #ffd700; stroke-linejoin: miter"/>
     <use xlink:href="#mae82a7f995" x="272.232727" y="269.926601" style="fill: #ffd700; stroke: #ffd700; stroke-linejoin: miter"/>
     <use xlink:href="#mae82a7f995" x="290.269091" y="274.153875" style="fill: #ffd700; stroke: #ffd700; stroke-linejoin: miter"/>
     <use xlink:href="#mae82a7f995" x="308.305455" y="277.226642" style="fill: #ffd700; stroke: #ffd700; stroke-linejoin: miter"/>
     <use xlink:href="#mae82a7f995" x="326.341818" y="280.326051" style="fill: #ffd700; stroke: #ffd700; stroke-linejoin: miter"/>
     <use xlink:href="#mae82a7f995" x="344.378182" y="281.658176" style="fill: #ffd700; stroke: #ffd700; stroke-linejoin: miter"/>
     <use xlink:href="#mae82a7f995" x="362.414545" y="283.558673" style="fill: #ffd700; stroke: #ffd700; stroke-linejoin: miter"/>
     <use xlink:href="#mae82a7f995" x="380.450909" y="285.405886" style="fill: #ffd700; stroke: #ffd700; stroke-linejoin: miter"/>
     <use xlink:href="#mae82a7f995" x="398.487273" y="286.809057" style="fill: #ffd700; stroke: #ffd700; stroke-linejoin: miter"/>
    </g>
   </g>
   <g id="line2d_14">
    <path d="M 73.832727 71.665512 
L 91.869091 115.984221 
L 109.905455 151.265338 
L 127.941818 179.351835 
L 145.978182 201.710856 
L 164.014545 219.510365 
L 182.050909 233.68015 
L 200.087273 244.960394 
L 218.123636 253.94034 
L 236.16 261.089071 
L 254.196364 266.780013 
L 272.232727 271.310443 
L 290.269091 274.917015 
L 308.305455 277.788125 
L 326.341818 280.073751 
L 344.378182 281.893286 
L 362.414545 283.341776 
L 380.450909 284.494886 
L 398.487273 285.412851 
" clip-path="url(#p288651e753)" style="fill: none; stroke-dasharray: 7.4,3.2; stroke-dashoffset: 0; stroke: #ffd700; stroke-opacity: 0.8; stroke-width: 2"/>
   </g>
   <g id="line2d_15">
    <defs>
     <path id="m1c0d21fe8b" d="M -4 4 
L 4 4 
L 4 -4 
L -4 -4 
z
" style="stroke: #ff0000; stroke-linejoin: miter"/>
    </defs>
    <g clip-path="url(#p288651e753)">
     <use xlink:href="#m1c0d21fe8b" x="73.832727" y="78.642426" style="fill: #ff0000; stroke: #ff0000; stroke-linejoin: miter"/>
     <use xlink:href="#m1c0d21fe8b" x="91.869091" y="89.960394" style="fill: #ff0000; stroke: #ff0000; stroke-linejoin: miter"/>
     <use xlink:href="#m1c0d21fe8b" x="109.905455" y="111.25494" style="fill: #ff0000; stroke: #ff0000; stroke-linejoin: miter"/>
     <use xlink:href="#m1c0d21fe8b" x="127.941818" y="133.995672" style="fill: #ff0000; stroke: #ff0000; stroke-linejoin: miter"/>
     <use xlink:href="#m1c0d21fe8b" x="145.978182" y="154.095544" style="fill: #ff0000; stroke: #ff0000; stroke-linejoin: miter"/>
     <use xlink:href="#m1c0d21fe8b" x="164.014545" y="170.925782" style="fill: #ff0000; stroke: #ff0000; stroke-linejoin: miter"/>
     <use xlink:href="#m1c0d21fe8b" x="182.050909" y="187.001488" style="fill: #ff0000; stroke: #ff0000; stroke-linejoin: miter"/>
     <use xlink:href="#m1c0d21fe8b" x="200.087273" y="198.46617" style="fill: #ff0000; stroke: #ff0000; stroke-linejoin: miter"/>
     <use xlink:href="#m1c0d21fe8b" x="218.123636" y="211.984854" style="fill: #ff0000; stroke: #ff0000; stroke-linejoin: miter"/>
     <use xlink:href="#m1c0d21fe8b" x="236.16" y="225.985599" style="fill: #ff0000; stroke: #ff0000; stroke-linejoin: miter"/>
     <use xlink:href="#m1c0d21fe8b" x="254.196364" y="232.168563" style="fill: #ff0000; stroke: #ff0000; stroke-linejoin: miter"/>
     <use xlink:href="#m1c0d21fe8b" x="272.232727" y="241.66308" style="fill: #ff0000; stroke: #ff0000; stroke-linejoin: miter"/>
     <use xlink:href="#m1c0d21fe8b" x="290.269091" y="250.507863" style="fill: #ff0000; stroke: #ff0000; stroke-linejoin: miter"/>
     <use xlink:href="#m1c0d21fe8b" x="308.305455" y="253.316395" style="fill: #ff0000; stroke: #ff0000; stroke-linejoin: miter"/>
     <use xlink:href="#m1c0d21fe8b" x="326.341818" y="257.759746" style="fill: #ff0000; stroke: #ff0000; stroke-linejoin: miter"/>
     <use xlink:href="#m1c0d21fe8b" x="344.378182" y="262.936668" style="fill: #ff0000; stroke: #ff0000; stroke-linejoin: miter"/>
     <use xlink:href="#m1c0d21fe8b" x="362.414545" y="267.547692" style="fill: #ff0000; stroke: #ff0000; stroke-linejoin: miter"/>
     <use xlink:href="#m1c0d21fe8b" x="380.450909" y="269.664571" style="fill: #ff0000; stroke: #ff0000; stroke-linejoin: miter"/>
     <use xlink:href="#m1c0d21fe8b" x="398.487273" y="274.296554" style="fill: #ff0000; stroke: #ff0000; stroke-linejoin: miter"/>
    </g>
   </g>
   <g id="line2d_16">
    <path d="M 73.832727 53.568 
L 91.869091 83.947258 
L 109.905455 110.519006 
L 127.941818 133.76045 
L 145.978182 154.088985 
L 164.014545 171.869693 
L 182.050909 187.4219 
L 200.087273 201.024909 
L 218.123636 212.923019 
L 236.16 223.329908 
L 254.196364 232.432476 
L 272.232727 240.394196 
L 290.269091 247.358053 
L 308.305455 253.449112 
L 326.341818 258.776764 
L 344.378182 263.436687 
L 362.414545 267.51257 
L 380.450909 271.077613 
L 398.487273 274.19584 
" clip-path="url(#p288651e753)" style="fill: none; stroke-dasharray: 7.4,3.2; stroke-dashoffset: 0; stroke: #ff0000; stroke-opacity: 0.8; stroke-width: 2"/>
   </g>
   <g id="patch_3">
    <path d="M 57.6 307.584 
L 57.6 41.472 
" style="fill: none; stroke: #000000; stroke-width: 0.8; stroke-linejoin: miter; stroke-linecap: square"/>
   </g>
   <g id="patch_4">
    <path d="M 414.72 307.584 
L 414.72 41.472 
" style="fill: none; stroke: #000000; stroke-width: 0.8; stroke-linejoin: miter; stroke-linecap: square"/>
   </g>
   <g id="patch_5">
    <path d="M 57.6 307.584 
L 414.72 307.584 
" style="fill: none; stroke: #000000; stroke-width: 0.8; stroke-linejoin: miter; stroke-linecap: square"/>
   </g>
   <g id="patch_6">
    <path d="M 57.6 41.472 
L 414.72 41.472 
" style="fill: none; stroke: #000000; stroke-width: 0.8; stroke-linejoin: miter; stroke-linecap: square"/>
   </g>
   <g id="legend_1">
    <g id="patch_7">
     <path d="M 189.46 155.572 
L 404.92 155.572 
Q 407.72 155.572 407.72 152.772 
L 407.72 51.272 
Q 407.72 48.472 404.92 48.472 
L 189.46 48.472 
Q 186.66 48.472 186.66 51.272 
L 186.66 152.772 
Q 186.66 155.572 189.46 155.572 
z
" style="fill: #ffffff; opacity: 0.8; stroke: #cccccc; stroke-linejoin: miter"/>
    </g>
    <g id="line2d_17">
     <g>
      <use xlink:href="#m4d381b73fa" x="206.26" y="59.812" style="fill: #663399; stroke: #663399; stroke-linejoin: miter"/>
     </g>
    </g>
    <g id="text_8">
     <!-- 379nm, $\tau$=(125 ± 6)$\mu s$ -->
     <g transform="translate(231.46 64.712) scale(0.14 -0.14)">
      <defs>
       <path id="DejaVuSans-33" d="M 2597 2516 
Q 3050 2419 3304 2112 
Q 3559 1806 3559 1356 
Q 3559 666 3084 287 
Q 2609 -91 1734 -91 
Q 1441 -91 1130 -33 
Q 819 25 488 141 
L 488 750 
Q 750 597 1062 519 
Q 1375 441 1716 441 
Q 2309 441 2620 675 
Q 2931 909 2931 1356 
Q 2931 1769 2642 2001 
Q 2353 2234 1838 2234 
L 1294 2234 
L 1294 2753 
L 1863 2753 
Q 2328 2753 2575 2939 
Q 2822 3125 2822 3475 
Q 2822 3834 2567 4026 
Q 2313 4219 1838 4219 
Q 1578 4219 1281 4162 
Q 984 4106 628 3988 
L 628 4550 
Q 988 4650 1302 4700 
Q 1616 4750 1894 4750 
Q 2613 4750 3031 4423 
Q 3450 4097 3450 3541 
Q 3450 3153 3228 2886 
Q 3006 2619 2597 2516 
z
" transform="scale(0.015625)"/>
       <path id="DejaVuSans-37" d="M 525 4666 
L 3525 4666 
L 3525 4397 
L 1831 0 
L 1172 0 
L 2766 4134 
L 525 4134 
L 525 4666 
z
" transform="scale(0.015625)"/>
       <path id="DejaVuSans-39" d="M 703 97 
L 703 672 
Q 941 559 1184 500 
Q 1428 441 1663 441 
Q 2288 441 2617 861 
Q 2947 1281 2994 2138 
Q 2813 1869 2534 1725 
Q 2256 1581 1919 1581 
Q 1219 1581 811 2004 
Q 403 2428 403 3163 
Q 403 3881 828 4315 
Q 1253 4750 1959 4750 
Q 2769 4750 3195 4129 
Q 3622 3509 3622 2328 
Q 3622 1225 3098 567 
Q 2575 -91 1691 -91 
Q 1453 -91 1209 -44 
Q 966 3 703 97 
z
M 1959 2075 
Q 2384 2075 2632 2365 
Q 2881 2656 2881 3163 
Q 2881 3666 2632 3958 
Q 2384 4250 1959 4250 
Q 1534 4250 1286 3958 
Q 1038 3666 1038 3163 
Q 1038 2656 1286 2365 
Q 1534 2075 1959 2075 
z
" transform="scale(0.015625)"/>
       <path id="DejaVuSans-2c" d="M 750 794 
L 1409 794 
L 1409 256 
L 897 -744 
L 494 -744 
L 750 256 
L 750 794 
z
" transform="scale(0.015625)"/>
       <path id="DejaVuSans-Oblique-3c4" d="M 2103 638 
Q 2188 488 2525 488 
L 2800 488 
L 2706 0 
L 2363 0 
Q 1800 0 1600 300 
Q 1403 606 1534 1269 
L 1856 2925 
L 541 2925 
L 653 3500 
L 3881 3500 
L 3769 2925 
L 2444 2925 
L 2113 1234 
Q 2025 781 2103 638 
z
" transform="scale(0.015625)"/>
       <path id="DejaVuSans-3d" d="M 678 2906 
L 4684 2906 
L 4684 2381 
L 678 2381 
L 678 2906 
z
M 678 1631 
L 4684 1631 
L 4684 1100 
L 678 1100 
L 678 1631 
z
" transform="scale(0.015625)"/>
       <path id="DejaVuSans-31" d="M 794 531 
L 1825 531 
L 1825 4091 
L 703 3866 
L 703 4441 
L 1819 4666 
L 2450 4666 
L 2450 531 
L 3481 531 
L 3481 0 
L 794 0 
L 794 531 
z
" transform="scale(0.015625)"/>
       <path id="DejaVuSans-35" d="M 691 4666 
L 3169 4666 
L 3169 4134 
L 1269 4134 
L 1269 2991 
Q 1406 3038 1543 3061 
Q 1681 3084 1819 3084 
Q 2600 3084 3056 2656 
Q 3513 2228 3513 1497 
Q 3513 744 3044 326 
Q 2575 -91 1722 -91 
Q 1428 -91 1123 -41 
Q 819 9 494 109 
L 494 744 
Q 775 591 1075 516 
Q 1375 441 1709 441 
Q 2250 441 2565 725 
Q 2881 1009 2881 1497 
Q 2881 1984 2565 2268 
Q 2250 2553 1709 2553 
Q 1456 2553 1204 2497 
Q 953 2441 691 2322 
L 691 4666 
z
" transform="scale(0.015625)"/>
       <path id="DejaVuSans-b1" d="M 2944 4013 
L 2944 2803 
L 4684 2803 
L 4684 2272 
L 2944 2272 
L 2944 1063 
L 2419 1063 
L 2419 2272 
L 678 2272 
L 678 2803 
L 2419 2803 
L 2419 4013 
L 2944 4013 
z
M 678 531 
L 4684 531 
L 4684 0 
L 678 0 
L 678 531 
z
" transform="scale(0.015625)"/>
       <path id="DejaVuSans-Oblique-73" d="M 3200 3397 
L 3091 2853 
Q 2863 2978 2609 3040 
Q 2356 3103 2088 3103 
Q 1634 3103 1373 2948 
Q 1113 2794 1113 2528 
Q 1113 2219 1719 2053 
Q 1766 2041 1788 2034 
L 1972 1978 
Q 2547 1819 2739 1644 
Q 2931 1469 2931 1166 
Q 2931 609 2489 259 
Q 2047 -91 1331 -91 
Q 1053 -91 747 -37 
Q 441 16 72 128 
L 184 722 
Q 500 559 806 475 
Q 1113 391 1394 391 
Q 1816 391 2080 572 
Q 2344 753 2344 1031 
Q 2344 1331 1650 1516 
L 1591 1531 
L 1394 1581 
Q 956 1697 753 1886 
Q 550 2075 550 2369 
Q 550 2928 970 3256 
Q 1391 3584 2113 3584 
Q 2397 3584 2667 3537 
Q 2938 3491 3200 3397 
z
" transform="scale(0.015625)"/>
      </defs>
      <use xlink:href="#DejaVuSans-33" transform="translate(0 0.125)"/>
      <use xlink:href="#DejaVuSans-37" transform="translate(63.623047 0.125)"/>
      <use xlink:href="#DejaVuSans-39" transform="translate(127.246094 0.125)"/>
      <use xlink:href="#DejaVuSans-6e" transform="translate(190.869141 0.125)"/>
      <use xlink:href="#DejaVuSans-6d" transform="translate(254.248047 0.125)"/>
      <use xlink:href="#DejaVuSans-2c" transform="translate(351.660156 0.125)"/>
      <use xlink:href="#DejaVuSans-20" transform="translate(383.447266 0.125)"/>
      <use xlink:href="#DejaVuSans-Oblique-3c4" transform="translate(415.234375 0.125)"/>
      <use xlink:href="#DejaVuSans-3d" transform="translate(475.439453 0.125)"/>
      <use xlink:href="#DejaVuSans-28" transform="translate(559.228516 0.125)"/>
      <use xlink:href="#DejaVuSans-31" transform="translate(598.242188 0.125)"/>
      <use xlink:href="#DejaVuSans-32" transform="translate(661.865234 0.125)"/>
      <use xlink:href="#DejaVuSans-35" transform="translate(725.488281 0.125)"/>
      <use xlink:href="#DejaVuSans-20" transform="translate(789.111328 0.125)"/>
      <use xlink:href="#DejaVuSans-b1" transform="translate(820.898438 0.125)"/>
      <use xlink:href="#DejaVuSans-20" transform="translate(904.6875 0.125)"/>
      <use xlink:href="#DejaVuSans-36" transform="translate(936.474609 0.125)"/>
      <use xlink:href="#DejaVuSans-29" transform="translate(1000.097656 0.125)"/>
      <use xlink:href="#DejaVuSans-Oblique-3bc" transform="translate(1039.111328 0.125)"/>
      <use xlink:href="#DejaVuSans-Oblique-73" transform="translate(1102.734375 0.125)"/>
     </g>
    </g>
    <g id="line2d_18">
     <g>
      <use xlink:href="#m25ad2248b9" x="206.26" y="80.392" style="fill: #0000ff; stroke: #0000ff; stroke-linejoin: miter"/>
     </g>
    </g>
    <g id="text_9">
     <!-- 410nm, $\tau$=(170 ± 5)$\mu s$ -->
     <g transform="translate(231.46 85.292) scale(0.14 -0.14)">
      <use xlink:href="#DejaVuSans-34" transform="translate(0 0.125)"/>
      <use xlink:href="#DejaVuSans-31" transform="translate(63.623047 0.125)"/>
      <use xlink:href="#DejaVuSans-30" transform="translate(127.246094 0.125)"/>
      <use xlink:href="#DejaVuSans-6e" transform="translate(190.869141 0.125)"/>
      <use xlink:href="#DejaVuSans-6d" transform="translate(254.248047 0.125)"/>
      <use xlink:href="#DejaVuSans-2c" transform="translate(351.660156 0.125)"/>
      <use xlink:href="#DejaVuSans-20" transform="translate(383.447266 0.125)"/>
      <use xlink:href="#DejaVuSans-Oblique-3c4" transform="translate(415.234375 0.125)"/>
      <use xlink:href="#DejaVuSans-3d" transform="translate(475.439453 0.125)"/>
      <use xlink:href="#DejaVuSans-28" transform="translate(559.228516 0.125)"/>
      <use xlink:href="#DejaVuSans-31" transform="translate(598.242188 0.125)"/>
      <use xlink:href="#DejaVuSans-37" transform="translate(661.865234 0.125)"/>
      <use xlink:href="#DejaVuSans-30" transform="translate(725.488281 0.125)"/>
      <use xlink:href="#DejaVuSans-20" transform="translate(789.111328 0.125)"/>
      <use xlink:href="#DejaVuSans-b1" transform="translate(820.898438 0.125)"/>
      <use xlink:href="#DejaVuSans-20" transform="translate(904.6875 0.125)"/>
      <use xlink:href="#DejaVuSans-35" transform="translate(936.474609 0.125)"/>
      <use xlink:href="#DejaVuSans-29" transform="translate(1000.097656 0.125)"/>
      <use xlink:href="#DejaVuSans-Oblique-3bc" transform="translate(1039.111328 0.125)"/>
      <use xlink:href="#DejaVuSans-Oblique-73" transform="translate(1102.734375 0.125)"/>
     </g>
    </g>
    <g id="line2d_19">
     <g>
      <use xlink:href="#m6cfeb525fc" x="206.26" y="100.972" style="fill: #008000; stroke: #008000; stroke-linejoin: miter"/>
     </g>
    </g>
    <g id="text_10">
     <!-- 522nm, $\tau$=(208 ± 4)$\mu s$ -->
     <g transform="translate(231.46 105.872) scale(0.14 -0.14)">
      <use xlink:href="#DejaVuSans-35" transform="translate(0 0.125)"/>
      <use xlink:href="#DejaVuSans-32" transform="translate(63.623047 0.125)"/>
      <use xlink:href="#DejaVuSans-32" transform="translate(127.246094 0.125)"/>
      <use xlink:href="#DejaVuSans-6e" transform="translate(190.869141 0.125)"/>
      <use xlink:href="#DejaVuSans-6d" transform="translate(254.248047 0.125)"/>
      <use xlink:href="#DejaVuSans-2c" transform="translate(351.660156 0.125)"/>
      <use xlink:href="#DejaVuSans-20" transform="translate(383.447266 0.125)"/>
      <use xlink:href="#DejaVuSans-Oblique-3c4" transform="translate(415.234375 0.125)"/>
      <use xlink:href="#DejaVuSans-3d" transform="translate(475.439453 0.125)"/>
      <use xlink:href="#DejaVuSans-28" transform="translate(559.228516 0.125)"/>
      <use xlink:href="#DejaVuSans-32" transform="translate(598.242188 0.125)"/>
      <use xlink:href="#DejaVuSans-30" transform="translate(661.865234 0.125)"/>
      <use xlink:href="#DejaVuSans-38" transform="translate(725.488281 0.125)"/>
      <use xlink:href="#DejaVuSans-20" transform="translate(789.111328 0.125)"/>
      <use xlink:href="#DejaVuSans-b1" transform="translate(820.898438 0.125)"/>
      <use xlink:href="#DejaVuSans-20" transform="translate(904.6875 0.125)"/>
      <use xlink:href="#DejaVuSans-34" transform="translate(936.474609 0.125)"/>
      <use xlink:href="#DejaVuSans-29" transform="translate(1000.097656 0.125)"/>
      <use xlink:href="#DejaVuSans-Oblique-3bc" transform="translate(1039.111328 0.125)"/>
      <use xlink:href="#DejaVuSans-Oblique-73" transform="translate(1102.734375 0.125)"/>
     </g>
    </g>
    <g id="line2d_20">
     <g>
      <use xlink:href="#mae82a7f995" x="206.26" y="121.552" style="fill: #ffd700; stroke: #ffd700; stroke-linejoin: miter"/>
     </g>
    </g>
    <g id="text_11">
     <!-- 541nm, $\tau$=(231 ± 4)$\mu s$ -->
     <g transform="translate(231.46 126.452) scale(0.14 -0.14)">
      <use xlink:href="#DejaVuSans-35" transform="translate(0 0.125)"/>
      <use xlink:href="#DejaVuSans-34" transform="translate(63.623047 0.125)"/>
      <use xlink:href="#DejaVuSans-31" transform="translate(127.246094 0.125)"/>
      <use xlink:href="#DejaVuSans-6e" transform="translate(190.869141 0.125)"/>
      <use xlink:href="#DejaVuSans-6d" transform="translate(254.248047 0.125)"/>
      <use xlink:href="#DejaVuSans-2c" transform="translate(351.660156 0.125)"/>
      <use xlink:href="#DejaVuSans-20" transform="translate(383.447266 0.125)"/>
      <use xlink:href="#DejaVuSans-Oblique-3c4" transform="translate(415.234375 0.125)"/>
      <use xlink:href="#DejaVuSans-3d" transform="translate(475.439453 0.125)"/>
      <use xlink:href="#DejaVuSans-28" transform="translate(559.228516 0.125)"/>
      <use xlink:href="#DejaVuSans-32" transform="translate(598.242188 0.125)"/>
      <use xlink:href="#DejaVuSans-33" transform="translate(661.865234 0.125)"/>
      <use xlink:href="#DejaVuSans-31" transform="translate(725.488281 0.125)"/>
      <use xlink:href="#DejaVuSans-20" transform="translate(789.111328 0.125)"/>
      <use xlink:href="#DejaVuSans-b1" transform="translate(820.898438 0.125)"/>
      <use xlink:href="#DejaVuSans-20" transform="translate(904.6875 0.125)"/>
      <use xlink:href="#DejaVuSans-34" transform="translate(936.474609 0.125)"/>
      <use xlink:href="#DejaVuSans-29" transform="translate(1000.097656 0.125)"/>
      <use xlink:href="#DejaVuSans-Oblique-3bc" transform="translate(1039.111328 0.125)"/>
      <use xlink:href="#DejaVuSans-Oblique-73" transform="translate(1102.734375 0.125)"/>
     </g>
    </g>
    <g id="line2d_21">
     <g>
      <use xlink:href="#m1c0d21fe8b" x="206.26" y="142.132" style="fill: #ff0000; stroke: #ff0000; stroke-linejoin: miter"/>
     </g>
    </g>
    <g id="text_12">
     <!-- 654nm, $\tau$=(393 ± 11)$\mu s$ -->
     <g transform="translate(231.46 147.032) scale(0.14 -0.14)">
      <use xlink:href="#DejaVuSans-36" transform="translate(0 0.125)"/>
      <use xlink:href="#DejaVuSans-35" transform="translate(63.623047 0.125)"/>
      <use xlink:href="#DejaVuSans-34" transform="translate(127.246094 0.125)"/>
      <use xlink:href="#DejaVuSans-6e" transform="translate(190.869141 0.125)"/>
      <use xlink:href="#DejaVuSans-6d" transform="translate(254.248047 0.125)"/>
      <use xlink:href="#DejaVuSans-2c" transform="translate(351.660156 0.125)"/>
      <use xlink:href="#DejaVuSans-20" transform="translate(383.447266 0.125)"/>
      <use xlink:href="#DejaVuSans-Oblique-3c4" transform="translate(415.234375 0.125)"/>
      <use xlink:href="#DejaVuSans-3d" transform="translate(475.439453 0.125)"/>
      <use xlink:href="#DejaVuSans-28" transform="translate(559.228516 0.125)"/>
      <use xlink:href="#DejaVuSans-33" transform="translate(598.242188 0.125)"/>
      <use xlink:href="#DejaVuSans-39" transform="translate(661.865234 0.125)"/>
      <use xlink:href="#DejaVuSans-33" transform="translate(725.488281 0.125)"/>
      <use xlink:href="#DejaVuSans-20" transform="translate(789.111328 0.125)"/>
      <use xlink:href="#DejaVuSans-b1" transform="translate(820.898438 0.125)"/>
      <use xlink:href="#DejaVuSans-20" transform="translate(904.6875 0.125)"/>
      <use xlink:href="#DejaVuSans-31" transform="translate(936.474609 0.125)"/>
      <use xlink:href="#DejaVuSans-31" transform="translate(1000.097656 0.125)"/>
      <use xlink:href="#DejaVuSans-29" transform="translate(1063.720703 0.125)"/>
      <use xlink:href="#DejaVuSans-Oblique-3bc" transform="translate(1102.734375 0.125)"/>
      <use xlink:href="#DejaVuSans-Oblique-73" transform="translate(1166.357422 0.125)"/>
     </g>
    </g>
   </g>
  </g>
 </g>
 <defs>
  <clipPath id="p288651e753">
   <rect x="57.6" y="41.472" width="357.12" height="266.112"/>
  </clipPath>
 </defs>
</svg>
