<?xml version="1.0" encoding="utf-8" standalone="no"?>
<!DOCTYPE svg PUBLIC "-//W3C//DTD SVG 1.1//EN"
  "http://www.w3.org/Graphics/SVG/1.1/DTD/svg11.dtd">
<svg xmlns:xlink="http://www.w3.org/1999/xlink" width="432pt" height="288pt" viewBox="0 0 432 288" xmlns="http://www.w3.org/2000/svg" version="1.1">
 <metadata>
  <rdf:RDF xmlns:dc="http://purl.org/dc/elements/1.1/" xmlns:cc="http://creativecommons.org/ns#" xmlns:rdf="http://www.w3.org/1999/02/22-rdf-syntax-ns#">
   <cc:Work>
    <dc:type rdf:resource="http://purl.org/dc/dcmitype/StillImage"/>
    <dc:date>2024-12-09T17:38:35.013420</dc:date>
    <dc:format>image/svg+xml</dc:format>
    <dc:creator>
     <cc:Agent>
      <dc:title>Matplotlib v3.9.2, https://matplotlib.org/</dc:title>
     </cc:Agent>
    </dc:creator>
   </cc:Work>
  </rdf:RDF>
 </metadata>
 <defs>
  <style type="text/css">*{stroke-linejoin: round; stroke-linecap: butt}</style>
 </defs>
 <g id="figure_1">
  <g id="patch_1">
   <path d="M 0 288 
L 432 288 
L 432 0 
L 0 0 
z
" style="fill: #ffffff"/>
  </g>
  <g id="axes_1">
   <g id="patch_2">
    <path d="M 54.470209 236.968 
L 410.04 236.968 
L 410.04 10.8 
L 54.470209 10.8 
z
" style="fill: #ffffff"/>
   </g>
   <g id="matplotlib.axis_1">
    <g id="xtick_1">
     <g id="line2d_1">
      <defs>
       <path id="m714aba36bf" d="M 0 0 
L 0 3.5 
" style="stroke: #000000; stroke-width: 0.8"/>
      </defs>
      <g>
       <use xlink:href="#m714aba36bf" x="54.470209" y="236.968" style="stroke: #000000; stroke-width: 0.8"/>
      </g>
     </g>
     <g id="text_1">
      <!-- 0.01 -->
      <g transform="translate(43.337397 251.566438) scale(0.1 -0.1)">
       <defs>
        <path id="DejaVuSans-30" d="M 2034 4250 
Q 1547 4250 1301 3770 
Q 1056 3291 1056 2328 
Q 1056 1369 1301 889 
Q 1547 409 2034 409 
Q 2525 409 2770 889 
Q 3016 1369 3016 2328 
Q 3016 3291 2770 3770 
Q 2525 4250 2034 4250 
z
M 2034 4750 
Q 2819 4750 3233 4129 
Q 3647 3509 3647 2328 
Q 3647 1150 3233 529 
Q 2819 -91 2034 -91 
Q 1250 -91 836 529 
Q 422 1150 422 2328 
Q 422 3509 836 4129 
Q 1250 4750 2034 4750 
z
" transform="scale(0.015625)"/>
        <path id="DejaVuSans-2e" d="M 684 794 
L 1344 794 
L 1344 0 
L 684 0 
L 684 794 
z
" transform="scale(0.015625)"/>
        <path id="DejaVuSans-31" d="M 794 531 
L 1825 531 
L 1825 4091 
L 703 3866 
L 703 4441 
L 1819 4666 
L 2450 4666 
L 2450 531 
L 3481 531 
L 3481 0 
L 794 0 
L 794 531 
z
" transform="scale(0.015625)"/>
       </defs>
       <use xlink:href="#DejaVuSans-30"/>
       <use xlink:href="#DejaVuSans-2e" x="63.623047"/>
       <use xlink:href="#DejaVuSans-30" x="95.410156"/>
       <use xlink:href="#DejaVuSans-31" x="159.033203"/>
      </g>
     </g>
    </g>
    <g id="xtick_2">
     <g id="line2d_2">
      <g>
       <use xlink:href="#m714aba36bf" x="410.04" y="236.968" style="stroke: #000000; stroke-width: 0.8"/>
      </g>
     </g>
     <g id="text_2">
      <!-- 0.10 -->
      <g transform="translate(398.907187 251.566438) scale(0.1 -0.1)">
       <use xlink:href="#DejaVuSans-30"/>
       <use xlink:href="#DejaVuSans-2e" x="63.623047"/>
       <use xlink:href="#DejaVuSans-31" x="95.410156"/>
       <use xlink:href="#DejaVuSans-30" x="159.033203"/>
      </g>
     </g>
    </g>
    <g id="xtick_3">
     <g id="line2d_3">
      <defs>
       <path id="m4660123e1a" d="M 0 0 
L 0 2 
" style="stroke: #000000; stroke-width: 0.6"/>
      </defs>
      <g>
       <use xlink:href="#m4660123e1a" x="161.507382" y="236.968" style="stroke: #000000; stroke-width: 0.6"/>
      </g>
     </g>
    </g>
    <g id="xtick_4">
     <g id="line2d_4">
      <g>
       <use xlink:href="#m4660123e1a" x="224.120114" y="236.968" style="stroke: #000000; stroke-width: 0.6"/>
      </g>
     </g>
    </g>
    <g id="xtick_5">
     <g id="line2d_5">
      <g>
       <use xlink:href="#m4660123e1a" x="268.544554" y="236.968" style="stroke: #000000; stroke-width: 0.6"/>
      </g>
     </g>
    </g>
    <g id="xtick_6">
     <g id="line2d_6">
      <g>
       <use xlink:href="#m4660123e1a" x="303.002827" y="236.968" style="stroke: #000000; stroke-width: 0.6"/>
      </g>
     </g>
    </g>
    <g id="xtick_7">
     <g id="line2d_7">
      <g>
       <use xlink:href="#m4660123e1a" x="331.157287" y="236.968" style="stroke: #000000; stroke-width: 0.6"/>
      </g>
     </g>
    </g>
    <g id="xtick_8">
     <g id="line2d_8">
      <g>
       <use xlink:href="#m4660123e1a" x="354.961542" y="236.968" style="stroke: #000000; stroke-width: 0.6"/>
      </g>
     </g>
    </g>
    <g id="xtick_9">
     <g id="line2d_9">
      <g>
       <use xlink:href="#m4660123e1a" x="375.581727" y="236.968" style="stroke: #000000; stroke-width: 0.6"/>
      </g>
     </g>
    </g>
    <g id="xtick_10">
     <g id="line2d_10">
      <g>
       <use xlink:href="#m4660123e1a" x="393.770019" y="236.968" style="stroke: #000000; stroke-width: 0.6"/>
      </g>
     </g>
    </g>
    <g id="text_3">
     <!-- Potencia de excitación ($W \ cm^{-2}$) -->
     <g transform="translate(109.705105 270.276594) scale(0.15 -0.15)">
      <defs>
       <path id="DejaVuSans-50" d="M 1259 4147 
L 1259 2394 
L 2053 2394 
Q 2494 2394 2734 2622 
Q 2975 2850 2975 3272 
Q 2975 3691 2734 3919 
Q 2494 4147 2053 4147 
L 1259 4147 
z
M 628 4666 
L 2053 4666 
Q 2838 4666 3239 4311 
Q 3641 3956 3641 3272 
Q 3641 2581 3239 2228 
Q 2838 1875 2053 1875 
L 1259 1875 
L 1259 0 
L 628 0 
L 628 4666 
z
" transform="scale(0.015625)"/>
       <path id="DejaVuSans-6f" d="M 1959 3097 
Q 1497 3097 1228 2736 
Q 959 2375 959 1747 
Q 959 1119 1226 758 
Q 1494 397 1959 397 
Q 2419 397 2687 759 
Q 2956 1122 2956 1747 
Q 2956 2369 2687 2733 
Q 2419 3097 1959 3097 
z
M 1959 3584 
Q 2709 3584 3137 3096 
Q 3566 2609 3566 1747 
Q 3566 888 3137 398 
Q 2709 -91 1959 -91 
Q 1206 -91 779 398 
Q 353 888 353 1747 
Q 353 2609 779 3096 
Q 1206 3584 1959 3584 
z
" transform="scale(0.015625)"/>
       <path id="DejaVuSans-74" d="M 1172 4494 
L 1172 3500 
L 2356 3500 
L 2356 3053 
L 1172 3053 
L 1172 1153 
Q 1172 725 1289 603 
Q 1406 481 1766 481 
L 2356 481 
L 2356 0 
L 1766 0 
Q 1100 0 847 248 
Q 594 497 594 1153 
L 594 3053 
L 172 3053 
L 172 3500 
L 594 3500 
L 594 4494 
L 1172 4494 
z
" transform="scale(0.015625)"/>
       <path id="DejaVuSans-65" d="M 3597 1894 
L 3597 1613 
L 953 1613 
Q 991 1019 1311 708 
Q 1631 397 2203 397 
Q 2534 397 2845 478 
Q 3156 559 3463 722 
L 3463 178 
Q 3153 47 2828 -22 
Q 2503 -91 2169 -91 
Q 1331 -91 842 396 
Q 353 884 353 1716 
Q 353 2575 817 3079 
Q 1281 3584 2069 3584 
Q 2775 3584 3186 3129 
Q 3597 2675 3597 1894 
z
M 3022 2063 
Q 3016 2534 2758 2815 
Q 2500 3097 2075 3097 
Q 1594 3097 1305 2825 
Q 1016 2553 972 2059 
L 3022 2063 
z
" transform="scale(0.015625)"/>
       <path id="DejaVuSans-6e" d="M 3513 2113 
L 3513 0 
L 2938 0 
L 2938 2094 
Q 2938 2591 2744 2837 
Q 2550 3084 2163 3084 
Q 1697 3084 1428 2787 
Q 1159 2491 1159 1978 
L 1159 0 
L 581 0 
L 581 3500 
L 1159 3500 
L 1159 2956 
Q 1366 3272 1645 3428 
Q 1925 3584 2291 3584 
Q 2894 3584 3203 3211 
Q 3513 2838 3513 2113 
z
" transform="scale(0.015625)"/>
       <path id="DejaVuSans-63" d="M 3122 3366 
L 3122 2828 
Q 2878 2963 2633 3030 
Q 2388 3097 2138 3097 
Q 1578 3097 1268 2742 
Q 959 2388 959 1747 
Q 959 1106 1268 751 
Q 1578 397 2138 397 
Q 2388 397 2633 464 
Q 2878 531 3122 666 
L 3122 134 
Q 2881 22 2623 -34 
Q 2366 -91 2075 -91 
Q 1284 -91 818 406 
Q 353 903 353 1747 
Q 353 2603 823 3093 
Q 1294 3584 2113 3584 
Q 2378 3584 2631 3529 
Q 2884 3475 3122 3366 
z
" transform="scale(0.015625)"/>
       <path id="DejaVuSans-69" d="M 603 3500 
L 1178 3500 
L 1178 0 
L 603 0 
L 603 3500 
z
M 603 4863 
L 1178 4863 
L 1178 4134 
L 603 4134 
L 603 4863 
z
" transform="scale(0.015625)"/>
       <path id="DejaVuSans-61" d="M 2194 1759 
Q 1497 1759 1228 1600 
Q 959 1441 959 1056 
Q 959 750 1161 570 
Q 1363 391 1709 391 
Q 2188 391 2477 730 
Q 2766 1069 2766 1631 
L 2766 1759 
L 2194 1759 
z
M 3341 1997 
L 3341 0 
L 2766 0 
L 2766 531 
Q 2569 213 2275 61 
Q 1981 -91 1556 -91 
Q 1019 -91 701 211 
Q 384 513 384 1019 
Q 384 1609 779 1909 
Q 1175 2209 1959 2209 
L 2766 2209 
L 2766 2266 
Q 2766 2663 2505 2880 
Q 2244 3097 1772 3097 
Q 1472 3097 1187 3025 
Q 903 2953 641 2809 
L 641 3341 
Q 956 3463 1253 3523 
Q 1550 3584 1831 3584 
Q 2591 3584 2966 3190 
Q 3341 2797 3341 1997 
z
" transform="scale(0.015625)"/>
       <path id="DejaVuSans-20" transform="scale(0.015625)"/>
       <path id="DejaVuSans-64" d="M 2906 2969 
L 2906 4863 
L 3481 4863 
L 3481 0 
L 2906 0 
L 2906 525 
Q 2725 213 2448 61 
Q 2172 -91 1784 -91 
Q 1150 -91 751 415 
Q 353 922 353 1747 
Q 353 2572 751 3078 
Q 1150 3584 1784 3584 
Q 2172 3584 2448 3432 
Q 2725 3281 2906 2969 
z
M 947 1747 
Q 947 1113 1208 752 
Q 1469 391 1925 391 
Q 2381 391 2643 752 
Q 2906 1113 2906 1747 
Q 2906 2381 2643 2742 
Q 2381 3103 1925 3103 
Q 1469 3103 1208 2742 
Q 947 2381 947 1747 
z
" transform="scale(0.015625)"/>
       <path id="DejaVuSans-78" d="M 3513 3500 
L 2247 1797 
L 3578 0 
L 2900 0 
L 1881 1375 
L 863 0 
L 184 0 
L 1544 1831 
L 300 3500 
L 978 3500 
L 1906 2253 
L 2834 3500 
L 3513 3500 
z
" transform="scale(0.015625)"/>
       <path id="DejaVuSans-f3" d="M 1959 3097 
Q 1497 3097 1228 2736 
Q 959 2375 959 1747 
Q 959 1119 1226 758 
Q 1494 397 1959 397 
Q 2419 397 2687 759 
Q 2956 1122 2956 1747 
Q 2956 2369 2687 2733 
Q 2419 3097 1959 3097 
z
M 1959 3584 
Q 2709 3584 3137 3096 
Q 3566 2609 3566 1747 
Q 3566 888 3137 398 
Q 2709 -91 1959 -91 
Q 1206 -91 779 398 
Q 353 888 353 1747 
Q 353 2609 779 3096 
Q 1206 3584 1959 3584 
z
M 2394 5119 
L 3016 5119 
L 1997 3944 
L 1519 3944 
L 2394 5119 
z
" transform="scale(0.015625)"/>
       <path id="DejaVuSans-28" d="M 1984 4856 
Q 1566 4138 1362 3434 
Q 1159 2731 1159 2009 
Q 1159 1288 1364 580 
Q 1569 -128 1984 -844 
L 1484 -844 
Q 1016 -109 783 600 
Q 550 1309 550 2009 
Q 550 2706 781 3412 
Q 1013 4119 1484 4856 
L 1984 4856 
z
" transform="scale(0.015625)"/>
       <path id="DejaVuSans-Oblique-57" d="M 616 4666 
L 1228 4666 
L 1453 697 
L 3213 4666 
L 3916 4666 
L 4147 697 
L 5888 4666 
L 6528 4666 
L 4453 0 
L 3659 0 
L 3444 3891 
L 1697 0 
L 903 0 
L 616 4666 
z
" transform="scale(0.015625)"/>
       <path id="DejaVuSans-Oblique-63" d="M 3431 3366 
L 3316 2797 
Q 3109 2947 2876 3022 
Q 2644 3097 2394 3097 
Q 2119 3097 1870 3000 
Q 1622 2903 1453 2725 
Q 1184 2453 1037 2087 
Q 891 1722 891 1331 
Q 891 859 1127 628 
Q 1363 397 1844 397 
Q 2081 397 2348 469 
Q 2616 541 2906 684 
L 2797 116 
Q 2547 13 2283 -39 
Q 2019 -91 1741 -91 
Q 1044 -91 669 257 
Q 294 606 294 1253 
Q 294 1797 489 2255 
Q 684 2713 1069 3078 
Q 1331 3328 1684 3456 
Q 2038 3584 2456 3584 
Q 2700 3584 2940 3529 
Q 3181 3475 3431 3366 
z
" transform="scale(0.015625)"/>
       <path id="DejaVuSans-Oblique-6d" d="M 5747 2113 
L 5338 0 
L 4763 0 
L 5166 2094 
Q 5191 2228 5203 2325 
Q 5216 2422 5216 2491 
Q 5216 2772 5059 2928 
Q 4903 3084 4622 3084 
Q 4203 3084 3875 2770 
Q 3547 2456 3450 1953 
L 3066 0 
L 2491 0 
L 2900 2094 
Q 2925 2209 2937 2307 
Q 2950 2406 2950 2484 
Q 2950 2769 2794 2926 
Q 2638 3084 2363 3084 
Q 1938 3084 1609 2770 
Q 1281 2456 1184 1953 
L 800 0 
L 225 0 
L 909 3500 
L 1484 3500 
L 1375 2956 
Q 1609 3263 1923 3423 
Q 2238 3584 2597 3584 
Q 2978 3584 3223 3384 
Q 3469 3184 3519 2828 
Q 3781 3197 4126 3390 
Q 4472 3584 4856 3584 
Q 5306 3584 5551 3325 
Q 5797 3066 5797 2591 
Q 5797 2488 5784 2364 
Q 5772 2241 5747 2113 
z
" transform="scale(0.015625)"/>
       <path id="DejaVuSans-2212" d="M 678 2272 
L 4684 2272 
L 4684 1741 
L 678 1741 
L 678 2272 
z
" transform="scale(0.015625)"/>
       <path id="DejaVuSans-32" d="M 1228 531 
L 3431 531 
L 3431 0 
L 469 0 
L 469 531 
Q 828 903 1448 1529 
Q 2069 2156 2228 2338 
Q 2531 2678 2651 2914 
Q 2772 3150 2772 3378 
Q 2772 3750 2511 3984 
Q 2250 4219 1831 4219 
Q 1534 4219 1204 4116 
Q 875 4013 500 3803 
L 500 4441 
Q 881 4594 1212 4672 
Q 1544 4750 1819 4750 
Q 2544 4750 2975 4387 
Q 3406 4025 3406 3419 
Q 3406 3131 3298 2873 
Q 3191 2616 2906 2266 
Q 2828 2175 2409 1742 
Q 1991 1309 1228 531 
z
" transform="scale(0.015625)"/>
       <path id="DejaVuSans-29" d="M 513 4856 
L 1013 4856 
Q 1481 4119 1714 3412 
Q 1947 2706 1947 2009 
Q 1947 1309 1714 600 
Q 1481 -109 1013 -844 
L 513 -844 
Q 928 -128 1133 580 
Q 1338 1288 1338 2009 
Q 1338 2731 1133 3434 
Q 928 4138 513 4856 
z
" transform="scale(0.015625)"/>
      </defs>
      <use xlink:href="#DejaVuSans-50" transform="translate(0 0.765625)"/>
      <use xlink:href="#DejaVuSans-6f" transform="translate(60.302734 0.765625)"/>
      <use xlink:href="#DejaVuSans-74" transform="translate(121.484375 0.765625)"/>
      <use xlink:href="#DejaVuSans-65" transform="translate(160.693359 0.765625)"/>
      <use xlink:href="#DejaVuSans-6e" transform="translate(222.216797 0.765625)"/>
      <use xlink:href="#DejaVuSans-63" transform="translate(285.595703 0.765625)"/>
      <use xlink:href="#DejaVuSans-69" transform="translate(340.576172 0.765625)"/>
      <use xlink:href="#DejaVuSans-61" transform="translate(368.359375 0.765625)"/>
      <use xlink:href="#DejaVuSans-20" transform="translate(429.638672 0.765625)"/>
      <use xlink:href="#DejaVuSans-64" transform="translate(461.425781 0.765625)"/>
      <use xlink:href="#DejaVuSans-65" transform="translate(524.902344 0.765625)"/>
      <use xlink:href="#DejaVuSans-20" transform="translate(586.425781 0.765625)"/>
      <use xlink:href="#DejaVuSans-65" transform="translate(618.212891 0.765625)"/>
      <use xlink:href="#DejaVuSans-78" transform="translate(679.736328 0.765625)"/>
      <use xlink:href="#DejaVuSans-63" transform="translate(738.916016 0.765625)"/>
      <use xlink:href="#DejaVuSans-69" transform="translate(793.896484 0.765625)"/>
      <use xlink:href="#DejaVuSans-74" transform="translate(821.679688 0.765625)"/>
      <use xlink:href="#DejaVuSans-61" transform="translate(860.888672 0.765625)"/>
      <use xlink:href="#DejaVuSans-63" transform="translate(922.167969 0.765625)"/>
      <use xlink:href="#DejaVuSans-69" transform="translate(977.148438 0.765625)"/>
      <use xlink:href="#DejaVuSans-f3" transform="translate(1004.931641 0.765625)"/>
      <use xlink:href="#DejaVuSans-6e" transform="translate(1066.113281 0.765625)"/>
      <use xlink:href="#DejaVuSans-20" transform="translate(1129.492188 0.765625)"/>
      <use xlink:href="#DejaVuSans-28" transform="translate(1161.279297 0.765625)"/>
      <use xlink:href="#DejaVuSans-Oblique-57" transform="translate(1200.292969 0.765625)"/>
      <use xlink:href="#DejaVuSans-Oblique-63" transform="translate(1331.6403 0.765625)"/>
      <use xlink:href="#DejaVuSans-Oblique-6d" transform="translate(1386.620769 0.765625)"/>
      <use xlink:href="#DejaVuSans-2212" transform="translate(1488.682774 39.046875) scale(0.7)"/>
      <use xlink:href="#DejaVuSans-32" transform="translate(1547.335118 39.046875) scale(0.7)"/>
      <use xlink:href="#DejaVuSans-29" transform="translate(1594.605626 0.765625)"/>
     </g>
    </g>
   </g>
   <g id="matplotlib.axis_2">
    <g id="ytick_1">
     <g id="line2d_11">
      <defs>
       <path id="m1f7dd529e8" d="M 0 0 
L -3.5 0 
" style="stroke: #000000; stroke-width: 0.8"/>
      </defs>
      <g>
       <use xlink:href="#m1f7dd529e8" x="54.470209" y="195.090429" style="stroke: #000000; stroke-width: 0.8"/>
      </g>
     </g>
     <g id="text_4">
      <!-- $\mathdefault{10^{4}}$ -->
      <g transform="translate(29.870209 198.889647) scale(0.1 -0.1)">
       <defs>
        <path id="DejaVuSans-34" d="M 2419 4116 
L 825 1625 
L 2419 1625 
L 2419 4116 
z
M 2253 4666 
L 3047 4666 
L 3047 1625 
L 3713 1625 
L 3713 1100 
L 3047 1100 
L 3047 0 
L 2419 0 
L 2419 1100 
L 313 1100 
L 313 1709 
L 2253 4666 
z
" transform="scale(0.015625)"/>
       </defs>
       <use xlink:href="#DejaVuSans-31" transform="translate(0 0.684375)"/>
       <use xlink:href="#DejaVuSans-30" transform="translate(63.623047 0.684375)"/>
       <use xlink:href="#DejaVuSans-34" transform="translate(128.203125 38.965625) scale(0.7)"/>
      </g>
     </g>
    </g>
    <g id="ytick_2">
     <g id="line2d_12">
      <g>
       <use xlink:href="#m1f7dd529e8" x="54.470209" y="115.000022" style="stroke: #000000; stroke-width: 0.8"/>
      </g>
     </g>
     <g id="text_5">
      <!-- $\mathdefault{10^{5}}$ -->
      <g transform="translate(29.870209 118.79924) scale(0.1 -0.1)">
       <defs>
        <path id="DejaVuSans-35" d="M 691 4666 
L 3169 4666 
L 3169 4134 
L 1269 4134 
L 1269 2991 
Q 1406 3038 1543 3061 
Q 1681 3084 1819 3084 
Q 2600 3084 3056 2656 
Q 3513 2228 3513 1497 
Q 3513 744 3044 326 
Q 2575 -91 1722 -91 
Q 1428 -91 1123 -41 
Q 819 9 494 109 
L 494 744 
Q 775 591 1075 516 
Q 1375 441 1709 441 
Q 2250 441 2565 725 
Q 2881 1009 2881 1497 
Q 2881 1984 2565 2268 
Q 2250 2553 1709 2553 
Q 1456 2553 1204 2497 
Q 953 2441 691 2322 
L 691 4666 
z
" transform="scale(0.015625)"/>
       </defs>
       <use xlink:href="#DejaVuSans-31" transform="translate(0 0.684375)"/>
       <use xlink:href="#DejaVuSans-30" transform="translate(63.623047 0.684375)"/>
       <use xlink:href="#DejaVuSans-35" transform="translate(128.203125 38.965625) scale(0.7)"/>
      </g>
     </g>
    </g>
    <g id="ytick_3">
     <g id="line2d_13">
      <g>
       <use xlink:href="#m1f7dd529e8" x="54.470209" y="34.909615" style="stroke: #000000; stroke-width: 0.8"/>
      </g>
     </g>
     <g id="text_6">
      <!-- $\mathdefault{10^{6}}$ -->
      <g transform="translate(29.870209 38.708834) scale(0.1 -0.1)">
       <defs>
        <path id="DejaVuSans-36" d="M 2113 2584 
Q 1688 2584 1439 2293 
Q 1191 2003 1191 1497 
Q 1191 994 1439 701 
Q 1688 409 2113 409 
Q 2538 409 2786 701 
Q 3034 994 3034 1497 
Q 3034 2003 2786 2293 
Q 2538 2584 2113 2584 
z
M 3366 4563 
L 3366 3988 
Q 3128 4100 2886 4159 
Q 2644 4219 2406 4219 
Q 1781 4219 1451 3797 
Q 1122 3375 1075 2522 
Q 1259 2794 1537 2939 
Q 1816 3084 2150 3084 
Q 2853 3084 3261 2657 
Q 3669 2231 3669 1497 
Q 3669 778 3244 343 
Q 2819 -91 2113 -91 
Q 1303 -91 875 529 
Q 447 1150 447 2328 
Q 447 3434 972 4092 
Q 1497 4750 2381 4750 
Q 2619 4750 2861 4703 
Q 3103 4656 3366 4563 
z
" transform="scale(0.015625)"/>
       </defs>
       <use xlink:href="#DejaVuSans-31" transform="translate(0 0.765625)"/>
       <use xlink:href="#DejaVuSans-30" transform="translate(63.623047 0.765625)"/>
       <use xlink:href="#DejaVuSans-36" transform="translate(128.203125 39.046875) scale(0.7)"/>
      </g>
     </g>
    </g>
    <g id="ytick_4">
     <g id="line2d_14">
      <defs>
       <path id="m062971c60c" d="M 0 0 
L -2 0 
" style="stroke: #000000; stroke-width: 0.6"/>
      </defs>
      <g>
       <use xlink:href="#m062971c60c" x="54.470209" y="236.968" style="stroke: #000000; stroke-width: 0.6"/>
      </g>
     </g>
    </g>
    <g id="ytick_5">
     <g id="line2d_15">
      <g>
       <use xlink:href="#m062971c60c" x="54.470209" y="226.961606" style="stroke: #000000; stroke-width: 0.6"/>
      </g>
     </g>
    </g>
    <g id="ytick_6">
     <g id="line2d_16">
      <g>
       <use xlink:href="#m062971c60c" x="54.470209" y="219.200043" style="stroke: #000000; stroke-width: 0.6"/>
      </g>
     </g>
    </g>
    <g id="ytick_7">
     <g id="line2d_17">
      <g>
       <use xlink:href="#m062971c60c" x="54.470209" y="212.858385" style="stroke: #000000; stroke-width: 0.6"/>
      </g>
     </g>
    </g>
    <g id="ytick_8">
     <g id="line2d_18">
      <g>
       <use xlink:href="#m062971c60c" x="54.470209" y="207.49659" style="stroke: #000000; stroke-width: 0.6"/>
      </g>
     </g>
    </g>
    <g id="ytick_9">
     <g id="line2d_19">
      <g>
       <use xlink:href="#m062971c60c" x="54.470209" y="202.851991" style="stroke: #000000; stroke-width: 0.6"/>
      </g>
     </g>
    </g>
    <g id="ytick_10">
     <g id="line2d_20">
      <g>
       <use xlink:href="#m062971c60c" x="54.470209" y="198.755165" style="stroke: #000000; stroke-width: 0.6"/>
      </g>
     </g>
    </g>
    <g id="ytick_11">
     <g id="line2d_21">
      <g>
       <use xlink:href="#m062971c60c" x="54.470209" y="170.980814" style="stroke: #000000; stroke-width: 0.6"/>
      </g>
     </g>
    </g>
    <g id="ytick_12">
     <g id="line2d_22">
      <g>
       <use xlink:href="#m062971c60c" x="54.470209" y="156.877593" style="stroke: #000000; stroke-width: 0.6"/>
      </g>
     </g>
    </g>
    <g id="ytick_13">
     <g id="line2d_23">
      <g>
       <use xlink:href="#m062971c60c" x="54.470209" y="146.871199" style="stroke: #000000; stroke-width: 0.6"/>
      </g>
     </g>
    </g>
    <g id="ytick_14">
     <g id="line2d_24">
      <g>
       <use xlink:href="#m062971c60c" x="54.470209" y="139.109637" style="stroke: #000000; stroke-width: 0.6"/>
      </g>
     </g>
    </g>
    <g id="ytick_15">
     <g id="line2d_25">
      <g>
       <use xlink:href="#m062971c60c" x="54.470209" y="132.767978" style="stroke: #000000; stroke-width: 0.6"/>
      </g>
     </g>
    </g>
    <g id="ytick_16">
     <g id="line2d_26">
      <g>
       <use xlink:href="#m062971c60c" x="54.470209" y="127.406183" style="stroke: #000000; stroke-width: 0.6"/>
      </g>
     </g>
    </g>
    <g id="ytick_17">
     <g id="line2d_27">
      <g>
       <use xlink:href="#m062971c60c" x="54.470209" y="122.761584" style="stroke: #000000; stroke-width: 0.6"/>
      </g>
     </g>
    </g>
    <g id="ytick_18">
     <g id="line2d_28">
      <g>
       <use xlink:href="#m062971c60c" x="54.470209" y="118.664758" style="stroke: #000000; stroke-width: 0.6"/>
      </g>
     </g>
    </g>
    <g id="ytick_19">
     <g id="line2d_29">
      <g>
       <use xlink:href="#m062971c60c" x="54.470209" y="90.890407" style="stroke: #000000; stroke-width: 0.6"/>
      </g>
     </g>
    </g>
    <g id="ytick_20">
     <g id="line2d_30">
      <g>
       <use xlink:href="#m062971c60c" x="54.470209" y="76.787186" style="stroke: #000000; stroke-width: 0.6"/>
      </g>
     </g>
    </g>
    <g id="ytick_21">
     <g id="line2d_31">
      <g>
       <use xlink:href="#m062971c60c" x="54.470209" y="66.780792" style="stroke: #000000; stroke-width: 0.6"/>
      </g>
     </g>
    </g>
    <g id="ytick_22">
     <g id="line2d_32">
      <g>
       <use xlink:href="#m062971c60c" x="54.470209" y="59.01923" style="stroke: #000000; stroke-width: 0.6"/>
      </g>
     </g>
    </g>
    <g id="ytick_23">
     <g id="line2d_33">
      <g>
       <use xlink:href="#m062971c60c" x="54.470209" y="52.677571" style="stroke: #000000; stroke-width: 0.6"/>
      </g>
     </g>
    </g>
    <g id="ytick_24">
     <g id="line2d_34">
      <g>
       <use xlink:href="#m062971c60c" x="54.470209" y="47.315776" style="stroke: #000000; stroke-width: 0.6"/>
      </g>
     </g>
    </g>
    <g id="ytick_25">
     <g id="line2d_35">
      <g>
       <use xlink:href="#m062971c60c" x="54.470209" y="42.671177" style="stroke: #000000; stroke-width: 0.6"/>
      </g>
     </g>
    </g>
    <g id="ytick_26">
     <g id="line2d_36">
      <g>
       <use xlink:href="#m062971c60c" x="54.470209" y="38.574351" style="stroke: #000000; stroke-width: 0.6"/>
      </g>
     </g>
    </g>
    <g id="ytick_27">
     <g id="line2d_37">
      <g>
       <use xlink:href="#m062971c60c" x="54.470209" y="10.8" style="stroke: #000000; stroke-width: 0.6"/>
      </g>
     </g>
    </g>
    <g id="text_7">
     <!-- Intensidad integrada (1/s) -->
     <g transform="translate(22.750678 221.282047) rotate(-90) scale(0.15 -0.15)">
      <defs>
       <path id="DejaVuSans-49" d="M 628 4666 
L 1259 4666 
L 1259 0 
L 628 0 
L 628 4666 
z
" transform="scale(0.015625)"/>
       <path id="DejaVuSans-73" d="M 2834 3397 
L 2834 2853 
Q 2591 2978 2328 3040 
Q 2066 3103 1784 3103 
Q 1356 3103 1142 2972 
Q 928 2841 928 2578 
Q 928 2378 1081 2264 
Q 1234 2150 1697 2047 
L 1894 2003 
Q 2506 1872 2764 1633 
Q 3022 1394 3022 966 
Q 3022 478 2636 193 
Q 2250 -91 1575 -91 
Q 1294 -91 989 -36 
Q 684 19 347 128 
L 347 722 
Q 666 556 975 473 
Q 1284 391 1588 391 
Q 1994 391 2212 530 
Q 2431 669 2431 922 
Q 2431 1156 2273 1281 
Q 2116 1406 1581 1522 
L 1381 1569 
Q 847 1681 609 1914 
Q 372 2147 372 2553 
Q 372 3047 722 3315 
Q 1072 3584 1716 3584 
Q 2034 3584 2315 3537 
Q 2597 3491 2834 3397 
z
" transform="scale(0.015625)"/>
       <path id="DejaVuSans-67" d="M 2906 1791 
Q 2906 2416 2648 2759 
Q 2391 3103 1925 3103 
Q 1463 3103 1205 2759 
Q 947 2416 947 1791 
Q 947 1169 1205 825 
Q 1463 481 1925 481 
Q 2391 481 2648 825 
Q 2906 1169 2906 1791 
z
M 3481 434 
Q 3481 -459 3084 -895 
Q 2688 -1331 1869 -1331 
Q 1566 -1331 1297 -1286 
Q 1028 -1241 775 -1147 
L 775 -588 
Q 1028 -725 1275 -790 
Q 1522 -856 1778 -856 
Q 2344 -856 2625 -561 
Q 2906 -266 2906 331 
L 2906 616 
Q 2728 306 2450 153 
Q 2172 0 1784 0 
Q 1141 0 747 490 
Q 353 981 353 1791 
Q 353 2603 747 3093 
Q 1141 3584 1784 3584 
Q 2172 3584 2450 3431 
Q 2728 3278 2906 2969 
L 2906 3500 
L 3481 3500 
L 3481 434 
z
" transform="scale(0.015625)"/>
       <path id="DejaVuSans-72" d="M 2631 2963 
Q 2534 3019 2420 3045 
Q 2306 3072 2169 3072 
Q 1681 3072 1420 2755 
Q 1159 2438 1159 1844 
L 1159 0 
L 581 0 
L 581 3500 
L 1159 3500 
L 1159 2956 
Q 1341 3275 1631 3429 
Q 1922 3584 2338 3584 
Q 2397 3584 2469 3576 
Q 2541 3569 2628 3553 
L 2631 2963 
z
" transform="scale(0.015625)"/>
       <path id="DejaVuSans-2f" d="M 1625 4666 
L 2156 4666 
L 531 -594 
L 0 -594 
L 1625 4666 
z
" transform="scale(0.015625)"/>
      </defs>
      <use xlink:href="#DejaVuSans-49"/>
      <use xlink:href="#DejaVuSans-6e" x="29.492188"/>
      <use xlink:href="#DejaVuSans-74" x="92.871094"/>
      <use xlink:href="#DejaVuSans-65" x="132.080078"/>
      <use xlink:href="#DejaVuSans-6e" x="193.603516"/>
      <use xlink:href="#DejaVuSans-73" x="256.982422"/>
      <use xlink:href="#DejaVuSans-69" x="309.082031"/>
      <use xlink:href="#DejaVuSans-64" x="336.865234"/>
      <use xlink:href="#DejaVuSans-61" x="400.341797"/>
      <use xlink:href="#DejaVuSans-64" x="461.621094"/>
      <use xlink:href="#DejaVuSans-20" x="525.097656"/>
      <use xlink:href="#DejaVuSans-69" x="556.884766"/>
      <use xlink:href="#DejaVuSans-6e" x="584.667969"/>
      <use xlink:href="#DejaVuSans-74" x="648.046875"/>
      <use xlink:href="#DejaVuSans-65" x="687.255859"/>
      <use xlink:href="#DejaVuSans-67" x="748.779297"/>
      <use xlink:href="#DejaVuSans-72" x="812.255859"/>
      <use xlink:href="#DejaVuSans-61" x="853.369141"/>
      <use xlink:href="#DejaVuSans-64" x="914.648438"/>
      <use xlink:href="#DejaVuSans-61" x="978.125"/>
      <use xlink:href="#DejaVuSans-20" x="1039.404297"/>
      <use xlink:href="#DejaVuSans-28" x="1071.191406"/>
      <use xlink:href="#DejaVuSans-31" x="1110.205078"/>
      <use xlink:href="#DejaVuSans-2f" x="1173.828125"/>
      <use xlink:href="#DejaVuSans-73" x="1207.519531"/>
      <use xlink:href="#DejaVuSans-29" x="1259.619141"/>
     </g>
    </g>
   </g>
   <g id="line2d_38">
    <defs>
     <path id="m5de926abb9" d="M 0 5 
C 1.326016 5 2.597899 4.473168 3.535534 3.535534 
C 4.473168 2.597899 5 1.326016 5 0 
C 5 -1.326016 4.473168 -2.597899 3.535534 -3.535534 
C 2.597899 -4.473168 1.326016 -5 0 -5 
C -1.326016 -5 -2.597899 -4.473168 -3.535534 -3.535534 
C -4.473168 -2.597899 -5 -1.326016 -5 0 
C -5 1.326016 -4.473168 2.597899 -3.535534 3.535534 
C -2.597899 4.473168 -1.326016 5 0 5 
z
" style="stroke: #663399"/>
    </defs>
    <g clip-path="url(#p92f9047add)">
     <use xlink:href="#m5de926abb9" x="126.793026" y="217.6557" style="fill: #663399; stroke: #663399"/>
     <use xlink:href="#m5de926abb9" x="165.744855" y="206.61348" style="fill: #663399; stroke: #663399"/>
     <use xlink:href="#m5de926abb9" x="199.909453" y="195.383838" style="fill: #663399; stroke: #663399"/>
     <use xlink:href="#m5de926abb9" x="230.69877" y="183.852187" style="fill: #663399; stroke: #663399"/>
     <use xlink:href="#m5de926abb9" x="258.898939" y="171.904275" style="fill: #663399; stroke: #663399"/>
     <use xlink:href="#m5de926abb9" x="285.267394" y="163.066543" style="fill: #663399; stroke: #663399"/>
     <use xlink:href="#m5de926abb9" x="310.185051" y="150.124845" style="fill: #663399; stroke: #663399"/>
     <use xlink:href="#m5de926abb9" x="333.766017" y="141.138467" style="fill: #663399; stroke: #663399"/>
     <use xlink:href="#m5de926abb9" x="356.427213" y="130.719899" style="fill: #663399; stroke: #663399"/>
     <use xlink:href="#m5de926abb9" x="378.260894" y="122.923701" style="fill: #663399; stroke: #663399"/>
    </g>
   </g>
   <g id="line2d_39">
    <path d="M 126.793026 221.713107 
L 133.053332 219.288307 
L 139.0697 216.957991 
L 144.860432 214.715071 
L 150.44184 212.553227 
L 155.828531 210.466803 
L 161.033636 208.450713 
L 166.068998 206.50037 
L 170.94534 204.611619 
L 175.672398 202.780691 
L 180.259043 201.004149 
L 184.713376 199.278855 
L 189.042816 197.601935 
L 193.254178 195.970751 
L 197.353731 194.382874 
L 201.347258 192.836064 
L 205.240107 191.328249 
L 209.037228 189.857512 
L 212.743218 188.422074 
L 216.362347 187.020279 
L 219.898595 185.650586 
L 223.355673 184.311558 
L 226.737049 183.001852 
L 230.045966 181.720211 
L 233.285466 180.465458 
L 236.4584 179.236487 
L 239.56745 178.032261 
L 242.615138 176.851802 
L 245.603838 175.694191 
L 248.535791 174.558559 
L 251.413113 173.444088 
L 254.2378 172.350003 
L 257.011745 171.275573 
L 259.736739 170.220103 
L 262.414479 169.182936 
L 265.046577 168.163447 
L 267.634561 167.161045 
L 270.179887 166.175165 
L 272.683938 165.205273 
L 275.148031 164.250857 
L 277.573422 163.311432 
L 279.961307 162.386534 
L 282.312829 161.47572 
L 284.629079 160.578569 
L 286.911099 159.694675 
L 289.159887 158.823654 
L 291.376395 157.965135 
L 293.561539 157.118765 
L 295.716192 156.284204 
L 297.841195 155.461128 
L 299.937352 154.649225 
L 302.005436 153.848195 
L 304.04619 153.057752 
L 306.060325 152.277618 
L 308.048527 151.507529 
L 310.011456 150.747229 
L 311.949747 149.996472 
L 313.864009 149.255022 
L 315.754832 148.52265 
L 317.622782 147.799138 
L 319.468407 147.084274 
L 321.292234 146.377852 
L 323.094771 145.679677 
L 324.87651 144.989557 
L 326.637925 144.307309 
L 328.379475 143.632755 
L 330.101603 142.965725 
L 331.804737 142.306051 
L 333.489292 141.653573 
L 335.155669 141.008137 
L 336.804255 140.369591 
L 338.435428 139.73779 
L 340.049549 139.112593 
L 341.646974 138.493864 
L 343.228043 137.881469 
L 344.793088 137.275281 
L 346.34243 136.675176 
L 347.876382 136.081031 
L 349.395246 135.49273 
L 350.899316 134.91016 
L 352.388877 134.333209 
L 353.864208 133.76177 
L 355.325577 133.195739 
L 356.773245 132.635014 
L 358.207468 132.079498 
L 359.628493 131.529093 
L 361.03656 130.983707 
L 362.431905 130.443249 
L 363.814753 129.907632 
L 365.185329 129.376767 
L 366.543846 128.850574 
L 367.890516 128.328969 
L 369.225544 127.811873 
L 370.549129 127.29921 
L 371.861465 126.790904 
L 373.162743 126.286881 
L 374.453147 125.787069 
L 375.732857 125.2914 
L 377.002049 124.799805 
L 378.260894 124.312217 
" clip-path="url(#p92f9047add)" style="fill: none; stroke-dasharray: 5.55,2.4; stroke-dashoffset: 0; stroke: #000000; stroke-width: 1.5"/>
   </g>
   <g id="line2d_40">
    <defs>
     <path id="m77ec4a8d12" d="M 0 5 
C 1.326016 5 2.597899 4.473168 3.535534 3.535534 
C 4.473168 2.597899 5 1.326016 5 0 
C 5 -1.326016 4.473168 -2.597899 3.535534 -3.535534 
C 2.597899 -4.473168 1.326016 -5 0 -5 
C -1.326016 -5 -2.597899 -4.473168 -3.535534 -3.535534 
C -4.473168 -2.597899 -5 -1.326016 -5 0 
C -5 1.326016 -4.473168 2.597899 -3.535534 3.535534 
C -2.597899 4.473168 -1.326016 5 0 5 
z
" style="stroke: #0000ff"/>
    </defs>
    <g clip-path="url(#p92f9047add)">
     <use xlink:href="#m77ec4a8d12" x="126.793026" y="167.951414" style="fill: #0000ff; stroke: #0000ff"/>
     <use xlink:href="#m77ec4a8d12" x="165.744855" y="156.73412" style="fill: #0000ff; stroke: #0000ff"/>
     <use xlink:href="#m77ec4a8d12" x="199.909453" y="146.708968" style="fill: #0000ff; stroke: #0000ff"/>
     <use xlink:href="#m77ec4a8d12" x="230.69877" y="134.098625" style="fill: #0000ff; stroke: #0000ff"/>
     <use xlink:href="#m77ec4a8d12" x="258.898939" y="122.708581" style="fill: #0000ff; stroke: #0000ff"/>
     <use xlink:href="#m77ec4a8d12" x="285.267394" y="113.534957" style="fill: #0000ff; stroke: #0000ff"/>
     <use xlink:href="#m77ec4a8d12" x="310.185051" y="104.103882" style="fill: #0000ff; stroke: #0000ff"/>
     <use xlink:href="#m77ec4a8d12" x="333.766017" y="93.705692" style="fill: #0000ff; stroke: #0000ff"/>
     <use xlink:href="#m77ec4a8d12" x="356.427213" y="83.419869" style="fill: #0000ff; stroke: #0000ff"/>
     <use xlink:href="#m77ec4a8d12" x="378.260894" y="76.153113" style="fill: #0000ff; stroke: #0000ff"/>
    </g>
   </g>
   <g id="line2d_41">
    <path d="M 126.793026 171.459423 
L 133.053332 169.117637 
L 139.0697 166.8671 
L 144.860432 164.700967 
L 150.44184 162.613136 
L 155.828531 160.598142 
L 161.033636 158.651074 
L 166.068998 156.767501 
L 170.94534 154.943413 
L 175.672398 153.175167 
L 180.259043 151.459446 
L 184.713376 149.793218 
L 189.042816 148.173709 
L 193.254178 146.598369 
L 197.353731 145.064854 
L 201.347258 143.570999 
L 205.240107 142.114805 
L 209.037228 140.69442 
L 212.743218 139.308124 
L 216.362347 137.95432 
L 219.898595 136.63152 
L 223.355673 135.338334 
L 226.737049 134.073467 
L 230.045966 132.835703 
L 233.285466 131.623907 
L 236.4584 130.437011 
L 239.56745 129.274012 
L 242.615138 128.133966 
L 245.603838 127.015986 
L 248.535791 125.919234 
L 251.413113 124.842917 
L 254.2378 123.786289 
L 257.011745 122.748642 
L 259.736739 121.729307 
L 262.414479 120.727647 
L 265.046577 119.743062 
L 267.634561 118.774977 
L 270.179887 117.822849 
L 272.683938 116.886162 
L 275.148031 115.964421 
L 277.573422 115.057158 
L 279.961307 114.163924 
L 282.312829 113.284292 
L 284.629079 112.417855 
L 286.911099 111.564222 
L 289.159887 110.723021 
L 291.376395 109.893894 
L 293.561539 109.076499 
L 295.716192 108.27051 
L 297.841195 107.475613 
L 299.937352 106.691505 
L 302.005436 105.917899 
L 304.04619 105.154517 
L 306.060325 104.401092 
L 308.048527 103.657367 
L 310.011456 102.923096 
L 311.949747 102.198042 
L 313.864009 101.481975 
L 315.754832 100.774677 
L 317.622782 100.075935 
L 319.468407 99.385544 
L 321.292234 98.703307 
L 323.094771 98.029034 
L 324.87651 97.362541 
L 326.637925 96.70365 
L 328.379475 96.05219 
L 330.101603 95.407996 
L 331.804737 94.770906 
L 333.489292 94.140766 
L 335.155669 93.517427 
L 336.804255 92.900741 
L 338.435428 92.290571 
L 340.049549 91.686778 
L 341.646974 91.089231 
L 343.228043 90.497802 
L 344.793088 89.912367 
L 346.34243 89.332807 
L 347.876382 88.759003 
L 349.395246 88.190843 
L 350.899316 87.628217 
L 352.388877 87.071018 
L 353.864208 86.519143 
L 355.325577 85.97249 
L 356.773245 85.430962 
L 358.207468 84.894464 
L 359.628493 84.362903 
L 361.03656 83.836188 
L 362.431905 83.314233 
L 363.814753 82.796953 
L 365.185329 82.284263 
L 366.543846 81.776084 
L 367.890516 81.272336 
L 369.225544 80.772944 
L 370.549129 80.277832 
L 371.861465 79.786927 
L 373.162743 79.30016 
L 374.453147 78.81746 
L 375.732857 78.33876 
L 377.002049 77.863995 
L 378.260894 77.3931 
" clip-path="url(#p92f9047add)" style="fill: none; stroke-dasharray: 5.55,2.4; stroke-dashoffset: 0; stroke: #000000; stroke-width: 1.5"/>
   </g>
   <g id="line2d_42">
    <defs>
     <path id="m01fd601ec5" d="M 0 5 
C 1.326016 5 2.597899 4.473168 3.535534 3.535534 
C 4.473168 2.597899 5 1.326016 5 0 
C 5 -1.326016 4.473168 -2.597899 3.535534 -3.535534 
C 2.597899 -4.473168 1.326016 -5 0 -5 
C -1.326016 -5 -2.597899 -4.473168 -3.535534 -3.535534 
C -4.473168 -2.597899 -5 -1.326016 -5 0 
C -5 1.326016 -4.473168 2.597899 -3.535534 3.535534 
C -2.597899 4.473168 -1.326016 5 0 5 
z
" style="stroke: #008000"/>
    </defs>
    <g clip-path="url(#p92f9047add)">
     <use xlink:href="#m01fd601ec5" x="126.793026" y="137.770188" style="fill: #008000; stroke: #008000"/>
     <use xlink:href="#m01fd601ec5" x="165.744855" y="128.186553" style="fill: #008000; stroke: #008000"/>
     <use xlink:href="#m01fd601ec5" x="199.909453" y="120.161236" style="fill: #008000; stroke: #008000"/>
     <use xlink:href="#m01fd601ec5" x="230.69877" y="108.849323" style="fill: #008000; stroke: #008000"/>
     <use xlink:href="#m01fd601ec5" x="258.898939" y="98.277684" style="fill: #008000; stroke: #008000"/>
     <use xlink:href="#m01fd601ec5" x="285.267394" y="90.855641" style="fill: #008000; stroke: #008000"/>
     <use xlink:href="#m01fd601ec5" x="310.185051" y="81.004046" style="fill: #008000; stroke: #008000"/>
     <use xlink:href="#m01fd601ec5" x="333.766017" y="74.807166" style="fill: #008000; stroke: #008000"/>
     <use xlink:href="#m01fd601ec5" x="356.427213" y="65.436407" style="fill: #008000; stroke: #008000"/>
     <use xlink:href="#m01fd601ec5" x="378.260894" y="58.665553" style="fill: #008000; stroke: #008000"/>
    </g>
   </g>
   <g id="line2d_43">
    <path d="M 126.793026 140.869118 
L 133.053332 138.848964 
L 139.0697 136.907525 
L 144.860432 135.038899 
L 150.44184 133.23782 
L 155.828531 131.499574 
L 161.033636 129.819924 
L 166.068998 128.19505 
L 170.94534 126.62149 
L 175.672398 125.096103 
L 180.259043 123.616027 
L 184.713376 122.178646 
L 189.042816 120.781567 
L 193.254178 119.422592 
L 197.353731 118.099696 
L 201.347258 116.811014 
L 205.240107 115.554821 
L 209.037228 114.329517 
L 212.743218 113.133622 
L 216.362347 111.965755 
L 219.898595 110.824634 
L 223.355673 109.70906 
L 226.737049 108.617915 
L 230.045966 107.550152 
L 233.285466 106.504789 
L 236.4584 105.480906 
L 239.56745 104.477639 
L 242.615138 103.494172 
L 245.603838 102.52974 
L 248.535791 101.583621 
L 251.413113 100.65513 
L 254.2378 99.743624 
L 257.011745 98.848492 
L 259.736739 97.969157 
L 262.414479 97.10507 
L 265.046577 96.255711 
L 267.634561 95.420588 
L 270.179887 94.59923 
L 272.683938 93.791191 
L 275.148031 92.996046 
L 277.573422 92.21339 
L 279.961307 91.442837 
L 282.312829 90.684018 
L 284.629079 89.936581 
L 286.911099 89.20019 
L 289.159887 88.474523 
L 291.376395 87.759272 
L 293.561539 87.054142 
L 295.716192 86.358851 
L 297.841195 85.673128 
L 299.937352 84.996714 
L 302.005436 84.329358 
L 304.04619 83.670822 
L 306.060325 83.020875 
L 308.048527 82.379297 
L 310.011456 81.745874 
L 311.949747 81.120402 
L 313.864009 80.502684 
L 315.754832 79.892529 
L 317.622782 79.289755 
L 319.468407 78.694186 
L 321.292234 78.10565 
L 323.094771 77.523985 
L 324.87651 76.949031 
L 326.637925 76.380635 
L 328.379475 75.818649 
L 330.101603 75.262931 
L 331.804737 74.713342 
L 333.489292 74.169749 
L 335.155669 73.632021 
L 336.804255 73.100034 
L 338.435428 72.573667 
L 340.049549 72.052802 
L 341.646974 71.537325 
L 343.228043 71.027125 
L 344.793088 70.522097 
L 346.34243 70.022136 
L 347.876382 69.527141 
L 349.395246 69.037014 
L 350.899316 68.551662 
L 352.388877 68.070991 
L 353.864208 67.594913 
L 355.325577 67.12334 
L 356.773245 66.656188 
L 358.207468 66.193375 
L 359.628493 65.73482 
L 361.03656 65.280447 
L 362.431905 64.83018 
L 363.814753 64.383945 
L 365.185329 63.94167 
L 366.543846 63.503287 
L 367.890516 63.068726 
L 369.225544 62.637922 
L 370.549129 62.210811 
L 371.861465 61.78733 
L 373.162743 61.367417 
L 374.453147 60.951013 
L 375.732857 60.53806 
L 377.002049 60.128501 
L 378.260894 59.722281 
" clip-path="url(#p92f9047add)" style="fill: none; stroke-dasharray: 5.55,2.4; stroke-dashoffset: 0; stroke: #000000; stroke-width: 1.5"/>
   </g>
   <g id="line2d_44">
    <defs>
     <path id="m740785d651" d="M 0 5 
C 1.326016 5 2.597899 4.473168 3.535534 3.535534 
C 4.473168 2.597899 5 1.326016 5 0 
C 5 -1.326016 4.473168 -2.597899 3.535534 -3.535534 
C 2.597899 -4.473168 1.326016 -5 0 -5 
C -1.326016 -5 -2.597899 -4.473168 -3.535534 -3.535534 
C -4.473168 -2.597899 -5 -1.326016 -5 0 
C -5 1.326016 -4.473168 2.597899 -3.535534 3.535534 
C -2.597899 4.473168 -1.326016 5 0 5 
z
" style="stroke: #ffd700"/>
    </defs>
    <g clip-path="url(#p92f9047add)">
     <use xlink:href="#m740785d651" x="126.793026" y="101.370038" style="fill: #ffd700; stroke: #ffd700"/>
     <use xlink:href="#m740785d651" x="165.744855" y="90.2921" style="fill: #ffd700; stroke: #ffd700"/>
     <use xlink:href="#m740785d651" x="199.909453" y="82.941938" style="fill: #ffd700; stroke: #ffd700"/>
     <use xlink:href="#m740785d651" x="230.69877" y="72.051619" style="fill: #ffd700; stroke: #ffd700"/>
     <use xlink:href="#m740785d651" x="258.898939" y="66.213441" style="fill: #ffd700; stroke: #ffd700"/>
     <use xlink:href="#m740785d651" x="285.267394" y="56.9621" style="fill: #ffd700; stroke: #ffd700"/>
     <use xlink:href="#m740785d651" x="310.185051" y="47.975462" style="fill: #ffd700; stroke: #ffd700"/>
     <use xlink:href="#m740785d651" x="333.766017" y="42.555629" style="fill: #ffd700; stroke: #ffd700"/>
     <use xlink:href="#m740785d651" x="356.427213" y="35.460497" style="fill: #ffd700; stroke: #ffd700"/>
     <use xlink:href="#m740785d651" x="378.260894" y="30.332347" style="fill: #ffd700; stroke: #ffd700"/>
    </g>
   </g>
   <g id="line2d_45">
    <path d="M 126.793026 102.277948 
L 133.053332 100.476097 
L 139.0697 98.744456 
L 144.860432 97.077758 
L 150.44184 95.471309 
L 155.828531 93.920902 
L 161.033636 92.422761 
L 166.068998 90.973475 
L 170.94534 89.569958 
L 175.672398 88.209409 
L 180.259043 86.889273 
L 184.713376 85.60722 
L 189.042816 84.361114 
L 193.254178 83.148993 
L 197.353731 81.969053 
L 201.347258 80.81963 
L 205.240107 79.699184 
L 209.037228 78.60629 
L 212.743218 77.539626 
L 216.362347 76.497963 
L 219.898595 75.480154 
L 223.355673 74.485132 
L 226.737049 73.5119 
L 230.045966 72.559522 
L 233.285466 71.627124 
L 236.4584 70.713885 
L 239.56745 69.819033 
L 242.615138 68.941843 
L 245.603838 68.08163 
L 248.535791 67.237751 
L 251.413113 66.409595 
L 254.2378 65.596589 
L 257.011745 64.798188 
L 259.736739 64.013876 
L 262.414479 63.243164 
L 265.046577 62.48559 
L 267.634561 61.740712 
L 270.179887 61.008112 
L 272.683938 60.287392 
L 275.148031 59.578173 
L 277.573422 58.880093 
L 279.961307 58.192808 
L 282.312829 57.51599 
L 284.629079 56.849323 
L 286.911099 56.192508 
L 289.159887 55.545259 
L 291.376395 54.9073 
L 293.561539 54.278368 
L 295.716192 53.658212 
L 297.841195 53.04659 
L 299.937352 52.443271 
L 302.005436 51.848032 
L 304.04619 51.260659 
L 306.060325 50.680947 
L 308.048527 50.1087 
L 310.011456 49.543726 
L 311.949747 48.985845 
L 313.864009 48.434879 
L 315.754832 47.890659 
L 317.622782 47.353022 
L 319.468407 46.821812 
L 321.292234 46.296875 
L 323.094771 45.778066 
L 324.87651 45.265243 
L 326.637925 44.75827 
L 328.379475 44.257014 
L 330.101603 43.761348 
L 331.804737 43.271149 
L 333.489292 42.786298 
L 335.155669 42.306679 
L 336.804255 41.83218 
L 338.435428 41.362694 
L 340.049549 40.898114 
L 341.646974 40.438341 
L 343.228043 39.983275 
L 344.793088 39.532822 
L 346.34243 39.086888 
L 347.876382 38.645383 
L 349.395246 38.208221 
L 350.899316 37.775317 
L 352.388877 37.346589 
L 353.864208 36.921957 
L 355.325577 36.501344 
L 356.773245 36.084674 
L 358.207468 35.671873 
L 359.628493 35.262872 
L 361.03656 34.857599 
L 362.431905 34.455989 
L 363.814753 34.057975 
L 365.185329 33.663494 
L 366.543846 33.272484 
L 367.890516 32.884883 
L 369.225544 32.500633 
L 370.549129 32.119677 
L 371.861465 31.741958 
L 373.162743 31.367422 
L 374.453147 30.996016 
L 375.732857 30.627688 
L 377.002049 30.262387 
L 378.260894 29.900064 
" clip-path="url(#p92f9047add)" style="fill: none; stroke-dasharray: 5.55,2.4; stroke-dashoffset: 0; stroke: #000000; stroke-width: 1.5"/>
   </g>
   <g id="line2d_46">
    <defs>
     <path id="m90c347a6eb" d="M 0 5 
C 1.326016 5 2.597899 4.473168 3.535534 3.535534 
C 4.473168 2.597899 5 1.326016 5 0 
C 5 -1.326016 4.473168 -2.597899 3.535534 -3.535534 
C 2.597899 -4.473168 1.326016 -5 0 -5 
C -1.326016 -5 -2.597899 -4.473168 -3.535534 -3.535534 
C -4.473168 -2.597899 -5 -1.326016 -5 0 
C -5 1.326016 -4.473168 2.597899 -3.535534 3.535534 
C -2.597899 4.473168 -1.326016 5 0 5 
z
" style="stroke: #ff0000"/>
    </defs>
    <g clip-path="url(#p92f9047add)">
     <use xlink:href="#m90c347a6eb" x="126.793026" y="152.453549" style="fill: #ff0000; stroke: #ff0000"/>
     <use xlink:href="#m90c347a6eb" x="165.744855" y="139.820153" style="fill: #ff0000; stroke: #ff0000"/>
     <use xlink:href="#m90c347a6eb" x="199.909453" y="131.193149" style="fill: #ff0000; stroke: #ff0000"/>
     <use xlink:href="#m90c347a6eb" x="230.69877" y="120.050862" style="fill: #ff0000; stroke: #ff0000"/>
     <use xlink:href="#m90c347a6eb" x="258.898939" y="112.046264" style="fill: #ff0000; stroke: #ff0000"/>
     <use xlink:href="#m90c347a6eb" x="285.267394" y="102.676533" style="fill: #ff0000; stroke: #ff0000"/>
     <use xlink:href="#m90c347a6eb" x="310.185051" y="95.727539" style="fill: #ff0000; stroke: #ff0000"/>
     <use xlink:href="#m90c347a6eb" x="333.766017" y="85.274386" style="fill: #ff0000; stroke: #ff0000"/>
     <use xlink:href="#m90c347a6eb" x="356.427213" y="80.755077" style="fill: #ff0000; stroke: #ff0000"/>
     <use xlink:href="#m90c347a6eb" x="378.260894" y="69.772275" style="fill: #ff0000; stroke: #ff0000"/>
    </g>
   </g>
   <g id="line2d_47">
    <path d="M 126.793026 153.524363 
L 133.053332 151.50059 
L 139.0697 149.555675 
L 144.860432 147.683701 
L 150.44184 145.879396 
L 155.828531 144.138037 
L 161.033636 142.455379 
L 166.068998 140.827595 
L 170.94534 139.251216 
L 175.672398 137.723097 
L 180.259043 136.24037 
L 184.713376 134.800415 
L 189.042816 133.400834 
L 193.254178 132.039424 
L 197.353731 130.714159 
L 201.347258 129.423169 
L 205.240107 128.164725 
L 209.037228 126.937227 
L 212.743218 125.73919 
L 216.362347 124.569231 
L 219.898595 123.426066 
L 223.355673 122.308494 
L 226.737049 121.215395 
L 230.045966 120.145719 
L 233.285466 119.098484 
L 236.4584 118.072767 
L 239.56745 117.067703 
L 242.615138 116.082475 
L 245.603838 115.116316 
L 248.535791 114.168501 
L 251.413113 113.238348 
L 254.2378 112.325209 
L 257.011745 111.428474 
L 259.736739 110.547564 
L 262.414479 109.681929 
L 265.046577 108.831049 
L 267.634561 107.99443 
L 270.179887 107.171601 
L 272.683938 106.362115 
L 275.148031 105.565546 
L 277.573422 104.781488 
L 279.961307 104.009555 
L 282.312829 103.249377 
L 284.629079 102.500601 
L 286.911099 101.762891 
L 289.159887 101.035924 
L 291.376395 100.319392 
L 293.561539 99.612999 
L 295.716192 98.916463 
L 297.841195 98.229512 
L 299.937352 97.551886 
L 302.005436 96.883335 
L 304.04619 96.223619 
L 306.060325 95.572509 
L 308.048527 94.929781 
L 310.011456 94.295224 
L 311.949747 93.668631 
L 313.864009 93.049806 
L 315.754832 92.438559 
L 317.622782 91.834705 
L 319.468407 91.238069 
L 321.292234 90.64848 
L 323.094771 90.065772 
L 324.87651 89.489788 
L 326.637925 88.920374 
L 328.379475 88.357382 
L 330.101603 87.800669 
L 331.804737 87.250096 
L 333.489292 86.705529 
L 335.155669 86.166838 
L 336.804255 85.633898 
L 338.435428 85.106588 
L 340.049549 84.58479 
L 341.646974 84.06839 
L 343.228043 83.557276 
L 344.793088 83.051343 
L 346.34243 82.550487 
L 347.876382 82.054605 
L 349.395246 81.563601 
L 350.899316 81.077379 
L 352.388877 80.595848 
L 353.864208 80.118917 
L 355.325577 79.646499 
L 356.773245 79.17851 
L 358.207468 78.714868 
L 359.628493 78.255492 
L 361.03656 77.800306 
L 362.431905 77.349232 
L 363.814753 76.902197 
L 365.185329 76.459131 
L 366.543846 76.019962 
L 367.890516 75.584623 
L 369.225544 75.153048 
L 370.549129 74.725171 
L 371.861465 74.300932 
L 373.162743 73.880267 
L 374.453147 73.463117 
L 375.732857 73.049424 
L 377.002049 72.639132 
L 378.260894 72.232184 
" clip-path="url(#p92f9047add)" style="fill: none; stroke-dasharray: 5.55,2.4; stroke-dashoffset: 0; stroke: #000000; stroke-width: 1.5"/>
   </g>
   <g id="patch_3">
    <path d="M 54.470209 236.968 
L 54.470209 10.8 
" style="fill: none; stroke: #000000; stroke-width: 0.8; stroke-linejoin: miter; stroke-linecap: square"/>
   </g>
   <g id="patch_4">
    <path d="M 410.04 236.968 
L 410.04 10.8 
" style="fill: none; stroke: #000000; stroke-width: 0.8; stroke-linejoin: miter; stroke-linecap: square"/>
   </g>
   <g id="patch_5">
    <path d="M 54.470209 236.968 
L 410.04 236.968 
" style="fill: none; stroke: #000000; stroke-width: 0.8; stroke-linejoin: miter; stroke-linecap: square"/>
   </g>
   <g id="patch_6">
    <path d="M 54.470209 10.8 
L 410.04 10.8 
" style="fill: none; stroke: #000000; stroke-width: 0.8; stroke-linejoin: miter; stroke-linecap: square"/>
   </g>
  </g>
 </g>
 <defs>
  <clipPath id="p92f9047add">
   <rect x="54.470209" y="10.8" width="355.569791" height="226.168"/>
  </clipPath>
 </defs>
</svg>
