<?xml version="1.0" encoding="utf-8" standalone="no"?>
<!DOCTYPE svg PUBLIC "-//W3C//DTD SVG 1.1//EN"
  "http://www.w3.org/Graphics/SVG/1.1/DTD/svg11.dtd">
<svg xmlns:xlink="http://www.w3.org/1999/xlink" width="1152pt" height="648pt" viewBox="0 0 1152 648" xmlns="http://www.w3.org/2000/svg" version="1.1">
 <metadata>
  <rdf:RDF xmlns:dc="http://purl.org/dc/elements/1.1/" xmlns:cc="http://creativecommons.org/ns#" xmlns:rdf="http://www.w3.org/1999/02/22-rdf-syntax-ns#">
   <cc:Work>
    <dc:type rdf:resource="http://purl.org/dc/dcmitype/StillImage"/>
    <dc:date>2024-12-09T17:24:59.653997</dc:date>
    <dc:format>image/svg+xml</dc:format>
    <dc:creator>
     <cc:Agent>
      <dc:title>Matplotlib v3.9.2, https://matplotlib.org/</dc:title>
     </cc:Agent>
    </dc:creator>
   </cc:Work>
  </rdf:RDF>
 </metadata>
 <defs>
  <style type="text/css">*{stroke-linejoin: round; stroke-linecap: butt}</style>
 </defs>
 <g id="figure_1">
  <g id="patch_1">
   <path d="M 0 648 
L 1152 648 
L 1152 0 
L 0 0 
z
" style="fill: #ffffff"/>
  </g>
  <g id="axes_1">
   <g id="patch_2">
    <path d="M 144 576.72 
L 1036.8 576.72 
L 1036.8 77.76 
L 144 77.76 
z
" style="fill: #ffffff"/>
   </g>
   <g id="PolyCollection_1">
    <defs>
     <path id="m4d9929a871" d="M 236.231405 -71.28 
L 191.960331 -71.28 
L 191.960331 -637.667027 
L 236.231405 -637.667027 
L 236.231405 -637.667027 
L 236.231405 -71.28 
z
" style="stroke: #663399; stroke-opacity: 0.2"/>
    </defs>
    <g clip-path="url(#pae3bebfdba)">
     <use xlink:href="#m4d9929a871" x="0" y="648" style="fill: #663399; fill-opacity: 0.2; stroke: #663399; stroke-opacity: 0.2"/>
    </g>
   </g>
   <g id="PolyCollection_2">
    <defs>
     <path id="m96d0d1ee22" d="M 322.31405 -71.28 
L 253.447934 -71.28 
L 253.447934 -637.667027 
L 322.31405 -637.667027 
L 322.31405 -637.667027 
L 322.31405 -71.28 
z
" style="stroke: #0000ff; stroke-opacity: 0.2"/>
    </defs>
    <g clip-path="url(#pae3bebfdba)">
     <use xlink:href="#m96d0d1ee22" x="0" y="648" style="fill: #0000ff; fill-opacity: 0.2; stroke: #0000ff; stroke-opacity: 0.2"/>
    </g>
   </g>
   <g id="PolyCollection_3">
    <defs>
     <path id="m13f01f13e1" d="M 592.859504 -71.28 
L 506.77686 -71.28 
L 506.77686 -637.667027 
L 592.859504 -637.667027 
L 592.859504 -637.667027 
L 592.859504 -71.28 
z
" style="stroke: #008000; stroke-opacity: 0.2"/>
    </defs>
    <g clip-path="url(#pae3bebfdba)">
     <use xlink:href="#m13f01f13e1" x="0" y="648" style="fill: #008000; fill-opacity: 0.2; stroke: #008000; stroke-opacity: 0.2"/>
    </g>
   </g>
   <g id="PolyCollection_4">
    <defs>
     <path id="m89b5e23477" d="M 678.942149 -71.28 
L 592.859504 -71.28 
L 592.859504 -637.667027 
L 678.942149 -637.667027 
L 678.942149 -637.667027 
L 678.942149 -71.28 
z
" style="stroke: #ffd700; stroke-opacity: 0.2"/>
    </defs>
    <g clip-path="url(#pae3bebfdba)">
     <use xlink:href="#m89b5e23477" x="0" y="648" style="fill: #ffd700; fill-opacity: 0.2; stroke: #ffd700; stroke-opacity: 0.2"/>
    </g>
   </g>
   <g id="PolyCollection_5">
    <defs>
     <path id="me1878e9922" d="M 974.082645 -71.28 
L 826.512397 -71.28 
L 826.512397 -637.667027 
L 974.082645 -637.667027 
L 974.082645 -637.667027 
L 974.082645 -71.28 
z
" style="stroke: #ff0000; stroke-opacity: 0.2"/>
    </defs>
    <g clip-path="url(#pae3bebfdba)">
     <use xlink:href="#me1878e9922" x="0" y="648" style="fill: #ff0000; fill-opacity: 0.2; stroke: #ff0000; stroke-opacity: 0.2"/>
    </g>
   </g>
   <g id="matplotlib.axis_1">
    <g id="xtick_1">
     <g id="line2d_1">
      <defs>
       <path id="m16ff7da521" d="M 0 0 
L 0 3.5 
" style="stroke: #000000; stroke-width: 0.8"/>
      </defs>
      <g>
       <use xlink:href="#m16ff7da521" x="260.826446" y="576.72" style="stroke: #000000; stroke-width: 0.8"/>
      </g>
     </g>
     <g id="text_1">
      <!-- 400 -->
      <g transform="translate(241.738946 598.916875) scale(0.2 -0.2)">
       <defs>
        <path id="DejaVuSans-34" d="M 2419 4116 
L 825 1625 
L 2419 1625 
L 2419 4116 
z
M 2253 4666 
L 3047 4666 
L 3047 1625 
L 3713 1625 
L 3713 1100 
L 3047 1100 
L 3047 0 
L 2419 0 
L 2419 1100 
L 313 1100 
L 313 1709 
L 2253 4666 
z
" transform="scale(0.015625)"/>
        <path id="DejaVuSans-30" d="M 2034 4250 
Q 1547 4250 1301 3770 
Q 1056 3291 1056 2328 
Q 1056 1369 1301 889 
Q 1547 409 2034 409 
Q 2525 409 2770 889 
Q 3016 1369 3016 2328 
Q 3016 3291 2770 3770 
Q 2525 4250 2034 4250 
z
M 2034 4750 
Q 2819 4750 3233 4129 
Q 3647 3509 3647 2328 
Q 3647 1150 3233 529 
Q 2819 -91 2034 -91 
Q 1250 -91 836 529 
Q 422 1150 422 2328 
Q 422 3509 836 4129 
Q 1250 4750 2034 4750 
z
" transform="scale(0.015625)"/>
       </defs>
       <use xlink:href="#DejaVuSans-34"/>
       <use xlink:href="#DejaVuSans-30" x="63.623047"/>
       <use xlink:href="#DejaVuSans-30" x="127.246094"/>
      </g>
     </g>
    </g>
    <g id="xtick_2">
     <g id="line2d_2">
      <g>
       <use xlink:href="#m16ff7da521" x="383.801653" y="576.72" style="stroke: #000000; stroke-width: 0.8"/>
      </g>
     </g>
     <g id="text_2">
      <!-- 450 -->
      <g transform="translate(364.714153 598.916875) scale(0.2 -0.2)">
       <defs>
        <path id="DejaVuSans-35" d="M 691 4666 
L 3169 4666 
L 3169 4134 
L 1269 4134 
L 1269 2991 
Q 1406 3038 1543 3061 
Q 1681 3084 1819 3084 
Q 2600 3084 3056 2656 
Q 3513 2228 3513 1497 
Q 3513 744 3044 326 
Q 2575 -91 1722 -91 
Q 1428 -91 1123 -41 
Q 819 9 494 109 
L 494 744 
Q 775 591 1075 516 
Q 1375 441 1709 441 
Q 2250 441 2565 725 
Q 2881 1009 2881 1497 
Q 2881 1984 2565 2268 
Q 2250 2553 1709 2553 
Q 1456 2553 1204 2497 
Q 953 2441 691 2322 
L 691 4666 
z
" transform="scale(0.015625)"/>
       </defs>
       <use xlink:href="#DejaVuSans-34"/>
       <use xlink:href="#DejaVuSans-35" x="63.623047"/>
       <use xlink:href="#DejaVuSans-30" x="127.246094"/>
      </g>
     </g>
    </g>
    <g id="xtick_3">
     <g id="line2d_3">
      <g>
       <use xlink:href="#m16ff7da521" x="506.77686" y="576.72" style="stroke: #000000; stroke-width: 0.8"/>
      </g>
     </g>
     <g id="text_3">
      <!-- 500 -->
      <g transform="translate(487.68936 598.916875) scale(0.2 -0.2)">
       <use xlink:href="#DejaVuSans-35"/>
       <use xlink:href="#DejaVuSans-30" x="63.623047"/>
       <use xlink:href="#DejaVuSans-30" x="127.246094"/>
      </g>
     </g>
    </g>
    <g id="xtick_4">
     <g id="line2d_4">
      <g>
       <use xlink:href="#m16ff7da521" x="629.752066" y="576.72" style="stroke: #000000; stroke-width: 0.8"/>
      </g>
     </g>
     <g id="text_4">
      <!-- 550 -->
      <g transform="translate(610.664566 598.916875) scale(0.2 -0.2)">
       <use xlink:href="#DejaVuSans-35"/>
       <use xlink:href="#DejaVuSans-35" x="63.623047"/>
       <use xlink:href="#DejaVuSans-30" x="127.246094"/>
      </g>
     </g>
    </g>
    <g id="xtick_5">
     <g id="line2d_5">
      <g>
       <use xlink:href="#m16ff7da521" x="752.727273" y="576.72" style="stroke: #000000; stroke-width: 0.8"/>
      </g>
     </g>
     <g id="text_5">
      <!-- 600 -->
      <g transform="translate(733.639773 598.916875) scale(0.2 -0.2)">
       <defs>
        <path id="DejaVuSans-36" d="M 2113 2584 
Q 1688 2584 1439 2293 
Q 1191 2003 1191 1497 
Q 1191 994 1439 701 
Q 1688 409 2113 409 
Q 2538 409 2786 701 
Q 3034 994 3034 1497 
Q 3034 2003 2786 2293 
Q 2538 2584 2113 2584 
z
M 3366 4563 
L 3366 3988 
Q 3128 4100 2886 4159 
Q 2644 4219 2406 4219 
Q 1781 4219 1451 3797 
Q 1122 3375 1075 2522 
Q 1259 2794 1537 2939 
Q 1816 3084 2150 3084 
Q 2853 3084 3261 2657 
Q 3669 2231 3669 1497 
Q 3669 778 3244 343 
Q 2819 -91 2113 -91 
Q 1303 -91 875 529 
Q 447 1150 447 2328 
Q 447 3434 972 4092 
Q 1497 4750 2381 4750 
Q 2619 4750 2861 4703 
Q 3103 4656 3366 4563 
z
" transform="scale(0.015625)"/>
       </defs>
       <use xlink:href="#DejaVuSans-36"/>
       <use xlink:href="#DejaVuSans-30" x="63.623047"/>
       <use xlink:href="#DejaVuSans-30" x="127.246094"/>
      </g>
     </g>
    </g>
    <g id="xtick_6">
     <g id="line2d_6">
      <g>
       <use xlink:href="#m16ff7da521" x="875.702479" y="576.72" style="stroke: #000000; stroke-width: 0.8"/>
      </g>
     </g>
     <g id="text_6">
      <!-- 650 -->
      <g transform="translate(856.614979 598.916875) scale(0.2 -0.2)">
       <use xlink:href="#DejaVuSans-36"/>
       <use xlink:href="#DejaVuSans-35" x="63.623047"/>
       <use xlink:href="#DejaVuSans-30" x="127.246094"/>
      </g>
     </g>
    </g>
    <g id="xtick_7">
     <g id="line2d_7">
      <g>
       <use xlink:href="#m16ff7da521" x="998.677686" y="576.72" style="stroke: #000000; stroke-width: 0.8"/>
      </g>
     </g>
     <g id="text_7">
      <!-- 700 -->
      <g transform="translate(979.590186 598.916875) scale(0.2 -0.2)">
       <defs>
        <path id="DejaVuSans-37" d="M 525 4666 
L 3525 4666 
L 3525 4397 
L 1831 0 
L 1172 0 
L 2766 4134 
L 525 4134 
L 525 4666 
z
" transform="scale(0.015625)"/>
       </defs>
       <use xlink:href="#DejaVuSans-37"/>
       <use xlink:href="#DejaVuSans-30" x="63.623047"/>
       <use xlink:href="#DejaVuSans-30" x="127.246094"/>
      </g>
     </g>
    </g>
    <g id="text_8">
     <!-- Wavelength (nm) -->
     <g transform="translate(504.015625 622.273125) scale(0.2 -0.2)">
      <defs>
       <path id="DejaVuSans-57" d="M 213 4666 
L 850 4666 
L 1831 722 
L 2809 4666 
L 3519 4666 
L 4500 722 
L 5478 4666 
L 6119 4666 
L 4947 0 
L 4153 0 
L 3169 4050 
L 2175 0 
L 1381 0 
L 213 4666 
z
" transform="scale(0.015625)"/>
       <path id="DejaVuSans-61" d="M 2194 1759 
Q 1497 1759 1228 1600 
Q 959 1441 959 1056 
Q 959 750 1161 570 
Q 1363 391 1709 391 
Q 2188 391 2477 730 
Q 2766 1069 2766 1631 
L 2766 1759 
L 2194 1759 
z
M 3341 1997 
L 3341 0 
L 2766 0 
L 2766 531 
Q 2569 213 2275 61 
Q 1981 -91 1556 -91 
Q 1019 -91 701 211 
Q 384 513 384 1019 
Q 384 1609 779 1909 
Q 1175 2209 1959 2209 
L 2766 2209 
L 2766 2266 
Q 2766 2663 2505 2880 
Q 2244 3097 1772 3097 
Q 1472 3097 1187 3025 
Q 903 2953 641 2809 
L 641 3341 
Q 956 3463 1253 3523 
Q 1550 3584 1831 3584 
Q 2591 3584 2966 3190 
Q 3341 2797 3341 1997 
z
" transform="scale(0.015625)"/>
       <path id="DejaVuSans-76" d="M 191 3500 
L 800 3500 
L 1894 563 
L 2988 3500 
L 3597 3500 
L 2284 0 
L 1503 0 
L 191 3500 
z
" transform="scale(0.015625)"/>
       <path id="DejaVuSans-65" d="M 3597 1894 
L 3597 1613 
L 953 1613 
Q 991 1019 1311 708 
Q 1631 397 2203 397 
Q 2534 397 2845 478 
Q 3156 559 3463 722 
L 3463 178 
Q 3153 47 2828 -22 
Q 2503 -91 2169 -91 
Q 1331 -91 842 396 
Q 353 884 353 1716 
Q 353 2575 817 3079 
Q 1281 3584 2069 3584 
Q 2775 3584 3186 3129 
Q 3597 2675 3597 1894 
z
M 3022 2063 
Q 3016 2534 2758 2815 
Q 2500 3097 2075 3097 
Q 1594 3097 1305 2825 
Q 1016 2553 972 2059 
L 3022 2063 
z
" transform="scale(0.015625)"/>
       <path id="DejaVuSans-6c" d="M 603 4863 
L 1178 4863 
L 1178 0 
L 603 0 
L 603 4863 
z
" transform="scale(0.015625)"/>
       <path id="DejaVuSans-6e" d="M 3513 2113 
L 3513 0 
L 2938 0 
L 2938 2094 
Q 2938 2591 2744 2837 
Q 2550 3084 2163 3084 
Q 1697 3084 1428 2787 
Q 1159 2491 1159 1978 
L 1159 0 
L 581 0 
L 581 3500 
L 1159 3500 
L 1159 2956 
Q 1366 3272 1645 3428 
Q 1925 3584 2291 3584 
Q 2894 3584 3203 3211 
Q 3513 2838 3513 2113 
z
" transform="scale(0.015625)"/>
       <path id="DejaVuSans-67" d="M 2906 1791 
Q 2906 2416 2648 2759 
Q 2391 3103 1925 3103 
Q 1463 3103 1205 2759 
Q 947 2416 947 1791 
Q 947 1169 1205 825 
Q 1463 481 1925 481 
Q 2391 481 2648 825 
Q 2906 1169 2906 1791 
z
M 3481 434 
Q 3481 -459 3084 -895 
Q 2688 -1331 1869 -1331 
Q 1566 -1331 1297 -1286 
Q 1028 -1241 775 -1147 
L 775 -588 
Q 1028 -725 1275 -790 
Q 1522 -856 1778 -856 
Q 2344 -856 2625 -561 
Q 2906 -266 2906 331 
L 2906 616 
Q 2728 306 2450 153 
Q 2172 0 1784 0 
Q 1141 0 747 490 
Q 353 981 353 1791 
Q 353 2603 747 3093 
Q 1141 3584 1784 3584 
Q 2172 3584 2450 3431 
Q 2728 3278 2906 2969 
L 2906 3500 
L 3481 3500 
L 3481 434 
z
" transform="scale(0.015625)"/>
       <path id="DejaVuSans-74" d="M 1172 4494 
L 1172 3500 
L 2356 3500 
L 2356 3053 
L 1172 3053 
L 1172 1153 
Q 1172 725 1289 603 
Q 1406 481 1766 481 
L 2356 481 
L 2356 0 
L 1766 0 
Q 1100 0 847 248 
Q 594 497 594 1153 
L 594 3053 
L 172 3053 
L 172 3500 
L 594 3500 
L 594 4494 
L 1172 4494 
z
" transform="scale(0.015625)"/>
       <path id="DejaVuSans-68" d="M 3513 2113 
L 3513 0 
L 2938 0 
L 2938 2094 
Q 2938 2591 2744 2837 
Q 2550 3084 2163 3084 
Q 1697 3084 1428 2787 
Q 1159 2491 1159 1978 
L 1159 0 
L 581 0 
L 581 4863 
L 1159 4863 
L 1159 2956 
Q 1366 3272 1645 3428 
Q 1925 3584 2291 3584 
Q 2894 3584 3203 3211 
Q 3513 2838 3513 2113 
z
" transform="scale(0.015625)"/>
       <path id="DejaVuSans-20" transform="scale(0.015625)"/>
       <path id="DejaVuSans-28" d="M 1984 4856 
Q 1566 4138 1362 3434 
Q 1159 2731 1159 2009 
Q 1159 1288 1364 580 
Q 1569 -128 1984 -844 
L 1484 -844 
Q 1016 -109 783 600 
Q 550 1309 550 2009 
Q 550 2706 781 3412 
Q 1013 4119 1484 4856 
L 1984 4856 
z
" transform="scale(0.015625)"/>
       <path id="DejaVuSans-6d" d="M 3328 2828 
Q 3544 3216 3844 3400 
Q 4144 3584 4550 3584 
Q 5097 3584 5394 3201 
Q 5691 2819 5691 2113 
L 5691 0 
L 5113 0 
L 5113 2094 
Q 5113 2597 4934 2840 
Q 4756 3084 4391 3084 
Q 3944 3084 3684 2787 
Q 3425 2491 3425 1978 
L 3425 0 
L 2847 0 
L 2847 2094 
Q 2847 2600 2669 2842 
Q 2491 3084 2119 3084 
Q 1678 3084 1418 2786 
Q 1159 2488 1159 1978 
L 1159 0 
L 581 0 
L 581 3500 
L 1159 3500 
L 1159 2956 
Q 1356 3278 1631 3431 
Q 1906 3584 2284 3584 
Q 2666 3584 2933 3390 
Q 3200 3197 3328 2828 
z
" transform="scale(0.015625)"/>
       <path id="DejaVuSans-29" d="M 513 4856 
L 1013 4856 
Q 1481 4119 1714 3412 
Q 1947 2706 1947 2009 
Q 1947 1309 1714 600 
Q 1481 -109 1013 -844 
L 513 -844 
Q 928 -128 1133 580 
Q 1338 1288 1338 2009 
Q 1338 2731 1133 3434 
Q 928 4138 513 4856 
z
" transform="scale(0.015625)"/>
      </defs>
      <use xlink:href="#DejaVuSans-57"/>
      <use xlink:href="#DejaVuSans-61" x="92.501953"/>
      <use xlink:href="#DejaVuSans-76" x="153.78125"/>
      <use xlink:href="#DejaVuSans-65" x="212.960938"/>
      <use xlink:href="#DejaVuSans-6c" x="274.484375"/>
      <use xlink:href="#DejaVuSans-65" x="302.267578"/>
      <use xlink:href="#DejaVuSans-6e" x="363.791016"/>
      <use xlink:href="#DejaVuSans-67" x="427.169922"/>
      <use xlink:href="#DejaVuSans-74" x="490.646484"/>
      <use xlink:href="#DejaVuSans-68" x="529.855469"/>
      <use xlink:href="#DejaVuSans-20" x="593.234375"/>
      <use xlink:href="#DejaVuSans-28" x="625.021484"/>
      <use xlink:href="#DejaVuSans-6e" x="664.035156"/>
      <use xlink:href="#DejaVuSans-6d" x="727.414062"/>
      <use xlink:href="#DejaVuSans-29" x="824.826172"/>
     </g>
    </g>
   </g>
   <g id="matplotlib.axis_2">
    <g id="ytick_1">
     <g id="line2d_8">
      <defs>
       <path id="m3691cd6c15" d="M 0 0 
L -3.5 0 
" style="stroke: #000000; stroke-width: 0.8"/>
      </defs>
      <g>
       <use xlink:href="#m3691cd6c15" x="144" y="549.749189" style="stroke: #000000; stroke-width: 0.8"/>
      </g>
     </g>
     <g id="text_9">
      <!-- 0.0 -->
      <g transform="translate(105.19375 557.347627) scale(0.2 -0.2)">
       <defs>
        <path id="DejaVuSans-2e" d="M 684 794 
L 1344 794 
L 1344 0 
L 684 0 
L 684 794 
z
" transform="scale(0.015625)"/>
       </defs>
       <use xlink:href="#DejaVuSans-30"/>
       <use xlink:href="#DejaVuSans-2e" x="63.623047"/>
       <use xlink:href="#DejaVuSans-30" x="95.410156"/>
      </g>
     </g>
    </g>
    <g id="ytick_2">
     <g id="line2d_9">
      <g>
       <use xlink:href="#m3691cd6c15" x="144" y="482.322162" style="stroke: #000000; stroke-width: 0.8"/>
      </g>
     </g>
     <g id="text_10">
      <!-- 0.5 -->
      <g transform="translate(105.19375 489.9206) scale(0.2 -0.2)">
       <use xlink:href="#DejaVuSans-30"/>
       <use xlink:href="#DejaVuSans-2e" x="63.623047"/>
       <use xlink:href="#DejaVuSans-35" x="95.410156"/>
      </g>
     </g>
    </g>
    <g id="ytick_3">
     <g id="line2d_10">
      <g>
       <use xlink:href="#m3691cd6c15" x="144" y="414.895135" style="stroke: #000000; stroke-width: 0.8"/>
      </g>
     </g>
     <g id="text_11">
      <!-- 1.0 -->
      <g transform="translate(105.19375 422.493573) scale(0.2 -0.2)">
       <defs>
        <path id="DejaVuSans-31" d="M 794 531 
L 1825 531 
L 1825 4091 
L 703 3866 
L 703 4441 
L 1819 4666 
L 2450 4666 
L 2450 531 
L 3481 531 
L 3481 0 
L 794 0 
L 794 531 
z
" transform="scale(0.015625)"/>
       </defs>
       <use xlink:href="#DejaVuSans-31"/>
       <use xlink:href="#DejaVuSans-2e" x="63.623047"/>
       <use xlink:href="#DejaVuSans-30" x="95.410156"/>
      </g>
     </g>
    </g>
    <g id="ytick_4">
     <g id="line2d_11">
      <g>
       <use xlink:href="#m3691cd6c15" x="144" y="347.468108" style="stroke: #000000; stroke-width: 0.8"/>
      </g>
     </g>
     <g id="text_12">
      <!-- 1.5 -->
      <g transform="translate(105.19375 355.066546) scale(0.2 -0.2)">
       <use xlink:href="#DejaVuSans-31"/>
       <use xlink:href="#DejaVuSans-2e" x="63.623047"/>
       <use xlink:href="#DejaVuSans-35" x="95.410156"/>
      </g>
     </g>
    </g>
    <g id="ytick_5">
     <g id="line2d_12">
      <g>
       <use xlink:href="#m3691cd6c15" x="144" y="280.041081" style="stroke: #000000; stroke-width: 0.8"/>
      </g>
     </g>
     <g id="text_13">
      <!-- 2.0 -->
      <g transform="translate(105.19375 287.639519) scale(0.2 -0.2)">
       <defs>
        <path id="DejaVuSans-32" d="M 1228 531 
L 3431 531 
L 3431 0 
L 469 0 
L 469 531 
Q 828 903 1448 1529 
Q 2069 2156 2228 2338 
Q 2531 2678 2651 2914 
Q 2772 3150 2772 3378 
Q 2772 3750 2511 3984 
Q 2250 4219 1831 4219 
Q 1534 4219 1204 4116 
Q 875 4013 500 3803 
L 500 4441 
Q 881 4594 1212 4672 
Q 1544 4750 1819 4750 
Q 2544 4750 2975 4387 
Q 3406 4025 3406 3419 
Q 3406 3131 3298 2873 
Q 3191 2616 2906 2266 
Q 2828 2175 2409 1742 
Q 1991 1309 1228 531 
z
" transform="scale(0.015625)"/>
       </defs>
       <use xlink:href="#DejaVuSans-32"/>
       <use xlink:href="#DejaVuSans-2e" x="63.623047"/>
       <use xlink:href="#DejaVuSans-30" x="95.410156"/>
      </g>
     </g>
    </g>
    <g id="ytick_6">
     <g id="line2d_13">
      <g>
       <use xlink:href="#m3691cd6c15" x="144" y="212.614054" style="stroke: #000000; stroke-width: 0.8"/>
      </g>
     </g>
     <g id="text_14">
      <!-- 2.5 -->
      <g transform="translate(105.19375 220.212492) scale(0.2 -0.2)">
       <use xlink:href="#DejaVuSans-32"/>
       <use xlink:href="#DejaVuSans-2e" x="63.623047"/>
       <use xlink:href="#DejaVuSans-35" x="95.410156"/>
      </g>
     </g>
    </g>
    <g id="ytick_7">
     <g id="line2d_14">
      <g>
       <use xlink:href="#m3691cd6c15" x="144" y="145.187027" style="stroke: #000000; stroke-width: 0.8"/>
      </g>
     </g>
     <g id="text_15">
      <!-- 3.0 -->
      <g transform="translate(105.19375 152.785465) scale(0.2 -0.2)">
       <defs>
        <path id="DejaVuSans-33" d="M 2597 2516 
Q 3050 2419 3304 2112 
Q 3559 1806 3559 1356 
Q 3559 666 3084 287 
Q 2609 -91 1734 -91 
Q 1441 -91 1130 -33 
Q 819 25 488 141 
L 488 750 
Q 750 597 1062 519 
Q 1375 441 1716 441 
Q 2309 441 2620 675 
Q 2931 909 2931 1356 
Q 2931 1769 2642 2001 
Q 2353 2234 1838 2234 
L 1294 2234 
L 1294 2753 
L 1863 2753 
Q 2328 2753 2575 2939 
Q 2822 3125 2822 3475 
Q 2822 3834 2567 4026 
Q 2313 4219 1838 4219 
Q 1578 4219 1281 4162 
Q 984 4106 628 3988 
L 628 4550 
Q 988 4650 1302 4700 
Q 1616 4750 1894 4750 
Q 2613 4750 3031 4423 
Q 3450 4097 3450 3541 
Q 3450 3153 3228 2886 
Q 3006 2619 2597 2516 
z
" transform="scale(0.015625)"/>
       </defs>
       <use xlink:href="#DejaVuSans-33"/>
       <use xlink:href="#DejaVuSans-2e" x="63.623047"/>
       <use xlink:href="#DejaVuSans-30" x="95.410156"/>
      </g>
     </g>
    </g>
    <g id="ytick_8">
     <g id="line2d_15">
      <g>
       <use xlink:href="#m3691cd6c15" x="144" y="77.76" style="stroke: #000000; stroke-width: 0.8"/>
      </g>
     </g>
     <g id="text_16">
      <!-- 3.5 -->
      <g transform="translate(105.19375 85.358438) scale(0.2 -0.2)">
       <use xlink:href="#DejaVuSans-33"/>
       <use xlink:href="#DejaVuSans-2e" x="63.623047"/>
       <use xlink:href="#DejaVuSans-35" x="95.410156"/>
      </g>
     </g>
    </g>
    <g id="text_17">
     <!-- Intensity (1/s) -->
     <g transform="translate(97.034375 396.686875) rotate(-90) scale(0.2 -0.2)">
      <defs>
       <path id="DejaVuSans-49" d="M 628 4666 
L 1259 4666 
L 1259 0 
L 628 0 
L 628 4666 
z
" transform="scale(0.015625)"/>
       <path id="DejaVuSans-73" d="M 2834 3397 
L 2834 2853 
Q 2591 2978 2328 3040 
Q 2066 3103 1784 3103 
Q 1356 3103 1142 2972 
Q 928 2841 928 2578 
Q 928 2378 1081 2264 
Q 1234 2150 1697 2047 
L 1894 2003 
Q 2506 1872 2764 1633 
Q 3022 1394 3022 966 
Q 3022 478 2636 193 
Q 2250 -91 1575 -91 
Q 1294 -91 989 -36 
Q 684 19 347 128 
L 347 722 
Q 666 556 975 473 
Q 1284 391 1588 391 
Q 1994 391 2212 530 
Q 2431 669 2431 922 
Q 2431 1156 2273 1281 
Q 2116 1406 1581 1522 
L 1381 1569 
Q 847 1681 609 1914 
Q 372 2147 372 2553 
Q 372 3047 722 3315 
Q 1072 3584 1716 3584 
Q 2034 3584 2315 3537 
Q 2597 3491 2834 3397 
z
" transform="scale(0.015625)"/>
       <path id="DejaVuSans-69" d="M 603 3500 
L 1178 3500 
L 1178 0 
L 603 0 
L 603 3500 
z
M 603 4863 
L 1178 4863 
L 1178 4134 
L 603 4134 
L 603 4863 
z
" transform="scale(0.015625)"/>
       <path id="DejaVuSans-79" d="M 2059 -325 
Q 1816 -950 1584 -1140 
Q 1353 -1331 966 -1331 
L 506 -1331 
L 506 -850 
L 844 -850 
Q 1081 -850 1212 -737 
Q 1344 -625 1503 -206 
L 1606 56 
L 191 3500 
L 800 3500 
L 1894 763 
L 2988 3500 
L 3597 3500 
L 2059 -325 
z
" transform="scale(0.015625)"/>
       <path id="DejaVuSans-2f" d="M 1625 4666 
L 2156 4666 
L 531 -594 
L 0 -594 
L 1625 4666 
z
" transform="scale(0.015625)"/>
      </defs>
      <use xlink:href="#DejaVuSans-49"/>
      <use xlink:href="#DejaVuSans-6e" x="29.492188"/>
      <use xlink:href="#DejaVuSans-74" x="92.871094"/>
      <use xlink:href="#DejaVuSans-65" x="132.080078"/>
      <use xlink:href="#DejaVuSans-6e" x="193.603516"/>
      <use xlink:href="#DejaVuSans-73" x="256.982422"/>
      <use xlink:href="#DejaVuSans-69" x="309.082031"/>
      <use xlink:href="#DejaVuSans-74" x="336.865234"/>
      <use xlink:href="#DejaVuSans-79" x="376.074219"/>
      <use xlink:href="#DejaVuSans-20" x="435.253906"/>
      <use xlink:href="#DejaVuSans-28" x="467.041016"/>
      <use xlink:href="#DejaVuSans-31" x="506.054688"/>
      <use xlink:href="#DejaVuSans-2f" x="569.677734"/>
      <use xlink:href="#DejaVuSans-73" x="603.369141"/>
      <use xlink:href="#DejaVuSans-29" x="655.46875"/>
     </g>
    </g>
    <g id="text_18">
     <!-- 1e6 -->
     <g transform="translate(144 74.76) scale(0.1 -0.1)">
      <use xlink:href="#DejaVuSans-31"/>
      <use xlink:href="#DejaVuSans-65" x="63.623047"/>
      <use xlink:href="#DejaVuSans-36" x="125.146484"/>
     </g>
    </g>
   </g>
   <g id="line2d_16">
    <path d="M 187.041322 549.72033 
L 199.338843 549.636451 
L 201.798347 549.444689 
L 206.717355 548.384466 
L 209.17686 548.139571 
L 211.636364 548.418719 
L 214.095868 548.496395 
L 219.014876 548.259861 
L 221.47438 548.448926 
L 226.393388 549.439564 
L 231.312397 549.612987 
L 238.690909 549.683111 
L 255.907438 549.687426 
L 260.826446 549.632945 
L 265.745455 549.465726 
L 268.204959 549.418527 
L 270.664463 549.141807 
L 273.123967 547.294036 
L 275.583471 544.707266 
L 278.042975 542.951466 
L 280.502479 542.278544 
L 282.961983 539.392398 
L 285.421488 539.41775 
L 287.880992 541.880455 
L 290.340496 541.877758 
L 292.8 541.558963 
L 295.259504 543.532148 
L 297.719008 546.216013 
L 300.178512 547.781399 
L 302.638017 548.87102 
L 305.097521 549.240789 
L 310.016529 549.497012 
L 317.395041 549.666389 
L 337.071074 549.705227 
L 371.504132 549.681762 
L 499.398347 549.690393 
L 509.236364 549.652634 
L 519.07438 549.48973 
L 526.452893 549.622426 
L 533.831405 549.553921 
L 541.209917 549.262096 
L 543.669421 549.07438 
L 546.128926 548.748842 
L 548.58843 547.000864 
L 553.507438 539.46387 
L 555.966942 538.078919 
L 558.426446 533.018926 
L 560.88595 527.615863 
L 563.345455 531.201632 
L 565.804959 533.948609 
L 568.264463 534.692464 
L 570.723967 535.809056 
L 573.183471 536.024283 
L 575.642975 533.858257 
L 578.102479 530.816759 
L 580.561983 530.459126 
L 583.021488 535.667459 
L 585.480992 540.11117 
L 587.940496 543.190967 
L 590.4 544.996663 
L 592.859504 545.758318 
L 595.319008 545.417407 
L 597.778512 544.153016 
L 600.238017 539.293954 
L 602.697521 511.302838 
L 605.157025 481.668659 
L 607.616529 477.715008 
L 610.076033 484.278355 
L 614.995041 511.102984 
L 617.454545 516.136816 
L 619.91405 511.560409 
L 622.373554 513.298948 
L 624.833058 518.818524 
L 627.292562 516.60422 
L 629.752066 512.288891 
L 632.21157 516.704282 
L 634.671074 526.654893 
L 637.130579 533.881722 
L 639.590083 538.003401 
L 642.049587 540.200713 
L 644.509091 540.728262 
L 646.968595 541.582428 
L 649.428099 543.868474 
L 651.887603 545.925268 
L 654.347107 547.325592 
L 656.806612 548.047061 
L 659.266116 548.572453 
L 664.185124 549.00965 
L 671.563636 549.390747 
L 681.401653 549.608402 
L 733.05124 549.706306 
L 755.186777 549.689853 
L 784.700826 549.710891 
L 851.107438 549.425 
L 860.945455 549.062782 
L 863.404959 548.859692 
L 865.864463 548.443802 
L 868.323967 547.56752 
L 873.242975 544.391438 
L 875.702479 541.831638 
L 880.621488 539.826898 
L 883.080992 534.110974 
L 885.540496 529.437741 
L 888 531.235616 
L 890.459504 534.420059 
L 892.919008 536.38758 
L 895.378512 536.05476 
L 897.838017 535.431195 
L 900.297521 535.411506 
L 902.757025 534.65929 
L 905.216529 535.191424 
L 907.676033 536.709342 
L 910.135537 538.000974 
L 912.595041 539.590633 
L 915.054545 540.974236 
L 917.51405 542.84628 
L 919.973554 543.942104 
L 922.433058 544.805709 
L 927.352066 547.247377 
L 929.81157 547.925962 
L 932.271074 548.450814 
L 937.190083 548.892327 
L 944.568595 549.273154 
L 959.32562 549.594107 
L 974.082645 549.618381 
L 993.758678 549.565788 
L 996.218182 549.520207 
L 996.218182 549.520207 
" clip-path="url(#pae3bebfdba)" style="fill: none; stroke: #ffff00; stroke-width: 1.5; stroke-linecap: square"/>
   </g>
   <g id="line2d_17">
    <path d="M 187.041322 549.706845 
L 199.338843 549.613526 
L 201.798347 549.253466 
L 204.257851 548.645813 
L 206.717355 547.797581 
L 209.17686 547.572105 
L 211.636364 547.848826 
L 214.095868 547.960215 
L 219.014876 547.693204 
L 221.47438 548.002829 
L 223.933884 548.783364 
L 226.393388 549.334108 
L 228.852893 549.525871 
L 238.690909 549.693899 
L 258.366942 549.662073 
L 268.204959 549.27747 
L 270.664463 548.869941 
L 273.123967 546.342506 
L 275.583471 542.801239 
L 278.042975 540.319115 
L 280.502479 539.289369 
L 282.961983 535.511298 
L 285.421488 535.840612 
L 287.880992 538.90045 
L 292.8 538.738356 
L 295.259504 540.365235 
L 297.719008 545.07326 
L 300.178512 547.006797 
L 302.638017 548.512847 
L 305.097521 549.035002 
L 307.557025 549.294461 
L 312.476033 549.504294 
L 319.854545 549.648049 
L 349.368595 549.696596 
L 371.504132 549.685808 
L 388.720661 549.557966 
L 393.639669 549.556887 
L 408.396694 549.697136 
L 494.479339 549.659376 
L 509.236364 549.604626 
L 519.07438 549.38778 
L 523.993388 549.550145 
L 531.371901 549.558775 
L 536.290909 549.385083 
L 543.669421 548.840812 
L 546.128926 548.573801 
L 548.58843 546.774578 
L 551.047934 539.958515 
L 553.507438 536.46175 
L 555.966942 534.892588 
L 558.426446 527.718082 
L 560.88595 521.277992 
L 563.345455 526.26031 
L 565.804959 529.542388 
L 568.264463 530.274376 
L 570.723967 531.630198 
L 573.183471 532.070632 
L 575.642975 529.556143 
L 578.102479 525.591434 
L 580.561983 525.029632 
L 583.021488 528.999735 
L 585.480992 535.560115 
L 587.940496 540.40704 
L 590.4 542.763749 
L 592.859504 543.891399 
L 595.319008 543.52055 
L 597.778512 541.61695 
L 600.238017 535.123188 
L 605.157025 458.936042 
L 607.616529 453.03348 
L 610.076033 461.606692 
L 614.995041 496.774471 
L 617.454545 503.171138 
L 619.91405 498.280521 
L 622.373554 499.603709 
L 624.833058 506.770663 
L 627.292562 504.255635 
L 629.752066 498.800518 
L 632.21157 502.640083 
L 634.671074 516.416234 
L 637.130579 527.600759 
L 639.590083 532.48841 
L 642.049587 536.137291 
L 644.509091 536.631396 
L 646.968595 537.464255 
L 649.428099 541.14631 
L 651.887603 543.80725 
L 654.347107 545.905579 
L 656.806612 547.280821 
L 661.72562 548.447848 
L 664.185124 548.7599 
L 674.02314 549.368631 
L 683.861157 549.606514 
L 710.915702 549.676098 
L 740.429752 549.69336 
L 838.809917 549.60948 
L 848.647934 549.358382 
L 858.48595 548.936559 
L 860.945455 548.749651 
L 863.404959 548.41791 
L 865.864463 547.850444 
L 868.323967 546.693936 
L 873.242975 541.960289 
L 875.702479 538.349706 
L 878.161983 536.790793 
L 880.621488 535.470303 
L 883.080992 528.612704 
L 885.540496 520.879094 
L 888 522.544002 
L 890.459504 528.135591 
L 892.919008 530.34477 
L 895.378512 530.003319 
L 897.838017 529.179631 
L 900.297521 529.265668 
L 902.757025 528.332208 
L 905.216529 528.574136 
L 907.676033 531.141757 
L 910.135537 532.61733 
L 912.595041 535.144225 
L 915.054545 536.951809 
L 917.51405 539.723869 
L 922.433058 542.828749 
L 924.892562 544.027601 
L 927.352066 545.847861 
L 929.81157 547.061278 
L 932.271074 547.772229 
L 934.730579 548.203762 
L 942.109091 548.915521 
L 956.866116 549.474626 
L 969.163636 549.610829 
L 979.001653 549.576037 
L 993.758678 549.454129 
L 996.218182 549.426079 
L 996.218182 549.426079 
" clip-path="url(#pae3bebfdba)" style="fill: none; stroke: #fffd00; stroke-width: 1.5; stroke-linecap: square"/>
   </g>
   <g id="line2d_18">
    <path d="M 187.041322 549.643733 
L 194.419835 549.627551 
L 199.338843 549.537738 
L 201.798347 549.064131 
L 204.257851 548.236396 
L 206.717355 547.166734 
L 209.17686 546.737628 
L 211.636364 547.152979 
L 214.095868 547.354451 
L 219.014876 546.923188 
L 221.47438 547.390322 
L 223.933884 548.413325 
L 226.393388 549.0644 
L 228.852893 549.40693 
L 236.231405 549.615414 
L 248.528926 549.669895 
L 258.366942 549.597344 
L 263.28595 549.322241 
L 268.204959 549.123466 
L 270.664463 548.691394 
L 273.123967 545.662842 
L 275.583471 540.411085 
L 278.042975 537.093945 
L 280.502479 535.763745 
L 282.961983 530.793834 
L 285.421488 530.663565 
L 287.880992 535.446568 
L 290.340496 535.32439 
L 292.8 534.679518 
L 295.259504 537.538964 
L 297.719008 543.369514 
L 300.178512 546.421531 
L 302.638017 548.082393 
L 305.097521 548.729153 
L 307.557025 549.105126 
L 314.935537 549.528298 
L 322.31405 549.642654 
L 354.287603 549.654791 
L 376.42314 549.643194 
L 386.261157 549.52641 
L 391.180165 549.456556 
L 405.93719 549.643194 
L 420.694215 549.672053 
L 440.370248 549.668007 
L 506.77686 549.625123 
L 511.695868 549.440373 
L 516.614876 549.195748 
L 521.533884 549.371328 
L 526.452893 549.497552 
L 531.371901 549.501597 
L 536.290909 549.274503 
L 543.669421 548.591332 
L 546.128926 548.194592 
L 548.58843 545.631825 
L 551.047934 538.546324 
L 553.507438 533.284858 
L 555.966942 530.377135 
L 558.426446 523.148418 
L 560.88595 514.319793 
L 563.345455 520.31001 
L 565.804959 524.263661 
L 568.264463 525.205751 
L 570.723967 526.784083 
L 573.183471 527.482627 
L 575.642975 524.330818 
L 578.102479 519.511674 
L 580.561983 519.150265 
L 583.021488 523.140057 
L 585.480992 530.716967 
L 587.940496 537.574565 
L 590.4 540.781934 
L 592.859504 542.35676 
L 595.319008 541.900683 
L 597.778512 539.239473 
L 600.238017 531.375594 
L 602.697521 483.846552 
L 605.157025 439.69965 
L 607.616529 432.90894 
L 610.076033 442.836086 
L 614.995041 483.998128 
L 617.454545 492.328063 
L 619.91405 486.405273 
L 622.373554 487.931821 
L 624.833058 496.636381 
L 627.292562 493.56926 
L 629.752066 486.86054 
L 632.21157 491.413213 
L 634.671074 507.78018 
L 637.130579 522.108963 
L 639.590083 527.907148 
L 642.049587 532.177976 
L 644.509091 532.623533 
L 646.968595 534.181907 
L 649.428099 538.255308 
L 651.887603 542.769952 
L 654.347107 544.856414 
L 656.806612 546.492194 
L 659.266116 547.574802 
L 661.72562 548.096688 
L 674.02314 549.262636 
L 681.401653 549.500518 
L 691.239669 549.6378 
L 742.889256 549.680144 
L 811.755372 549.681223 
L 824.052893 549.659916 
L 841.269421 549.518049 
L 856.026446 548.906351 
L 860.945455 548.475628 
L 863.404959 548.073223 
L 865.864463 547.227958 
L 868.323967 545.787986 
L 870.783471 542.722484 
L 873.242975 539.857375 
L 875.702479 535.63914 
L 878.161983 533.047784 
L 880.621488 531.525821 
L 885.540496 513.092351 
L 888 515.796714 
L 890.459504 521.166872 
L 892.919008 525.008595 
L 895.378512 524.539033 
L 897.838017 523.449682 
L 900.297521 523.455885 
L 902.757025 522.522695 
L 905.216529 522.639748 
L 907.676033 525.610314 
L 910.135537 528.008828 
L 912.595041 531.048168 
L 915.054545 533.37548 
L 917.51405 536.92376 
L 919.973554 538.48456 
L 922.433058 540.624694 
L 927.352066 544.630669 
L 929.81157 546.279934 
L 932.271074 547.196132 
L 937.190083 548.075111 
L 939.649587 548.441914 
L 947.028099 549.011538 
L 956.866116 549.393984 
L 966.704132 549.562281 
L 981.461157 549.533692 
L 991.299174 549.57307 
L 996.218182 549.299586 
L 996.218182 549.299586 
" clip-path="url(#pae3bebfdba)" style="fill: none; stroke: #ffe800; stroke-width: 1.5; stroke-linecap: square"/>
   </g>
   <g id="line2d_19">
    <path d="M 184.581818 549.6467 
L 196.879339 549.618381 
L 199.338843 549.483527 
L 201.798347 549.015583 
L 204.257851 547.69671 
L 206.717355 545.986761 
L 209.17686 545.561971 
L 211.636364 546.054188 
L 214.095868 546.290183 
L 216.555372 546.206573 
L 219.014876 545.638838 
L 221.47438 546.28344 
L 223.933884 547.749304 
L 226.393388 548.872638 
L 228.852893 549.336536 
L 241.150413 549.66558 
L 255.907438 549.645352 
L 260.826446 549.460602 
L 263.28595 549.154483 
L 265.745455 549.02772 
L 268.204959 548.772846 
L 270.664463 548.190276 
L 273.123967 543.754926 
L 275.583471 536.157249 
L 278.042975 531.363187 
L 280.502479 529.700437 
L 282.961983 522.430455 
L 285.421488 522.265933 
L 287.880992 529.130004 
L 290.340496 529.042349 
L 292.8 528.063309 
L 295.259504 532.255921 
L 297.719008 540.660026 
L 300.178512 544.743407 
L 302.638017 547.518703 
L 305.097521 548.433014 
L 307.557025 548.918488 
L 310.016529 549.200333 
L 319.854545 549.552302 
L 324.773554 549.631866 
L 337.071074 549.658837 
L 349.368595 549.691202 
L 376.42314 549.588713 
L 381.342149 549.417448 
L 388.720661 549.395872 
L 393.639669 549.383735 
L 403.477686 549.626472 
L 418.234711 549.669625 
L 428.072727 549.53612 
L 430.532231 549.46195 
L 437.910744 549.653443 
L 467.424793 549.627821 
L 474.803306 549.58197 
L 487.100826 549.554999 
L 506.77686 549.579273 
L 511.695868 549.35137 
L 516.614876 548.969733 
L 526.452893 549.468693 
L 533.831405 549.347324 
L 536.290909 549.031766 
L 541.209917 548.646083 
L 543.669421 548.160608 
L 546.128926 547.533537 
L 548.58843 543.876295 
L 551.047934 533.973962 
L 553.507438 526.492259 
L 555.966942 522.38865 
L 558.426446 512.107377 
L 560.88595 500.658268 
L 563.345455 508.748163 
L 565.804959 515.490865 
L 568.264463 515.864411 
L 570.723967 518.841989 
L 573.183471 518.824458 
L 575.642975 514.827383 
L 578.102479 507.557401 
L 580.561983 506.899314 
L 583.021488 512.983928 
L 585.480992 523.653581 
L 587.940496 533.546475 
L 590.4 537.354753 
L 592.859504 539.354639 
L 595.319008 538.714082 
L 597.778512 535.596256 
L 600.238017 523.633353 
L 602.697521 463.972571 
L 605.157025 399.25611 
L 607.616529 389.724626 
L 610.076033 403.953077 
L 614.995041 459.351123 
L 617.454545 471.376059 
L 619.91405 462.15339 
L 622.373554 466.43096 
L 624.833058 476.747296 
L 627.292562 473.021278 
L 629.752066 463.443943 
L 632.21157 470.577723 
L 634.671074 493.945233 
L 637.130579 510.490477 
L 639.590083 520.802766 
L 642.049587 525.193614 
L 644.509091 525.460626 
L 646.968595 527.055949 
L 649.428099 534.41898 
L 651.887603 538.553606 
L 654.347107 543.504098 
L 656.806612 545.367781 
L 659.266116 546.547754 
L 661.72562 547.464762 
L 664.185124 547.753349 
L 666.644628 548.310296 
L 671.563636 548.887472 
L 681.401653 549.420145 
L 691.239669 549.60085 
L 698.618182 549.630518 
L 713.375207 549.648049 
L 723.213223 549.666928 
L 767.484298 549.653443 
L 777.322314 549.669625 
L 792.079339 549.65614 
L 841.269421 549.472738 
L 853.566942 548.820045 
L 860.945455 548.002829 
L 863.404959 547.39194 
L 865.864463 546.23759 
L 868.323967 544.314571 
L 873.242975 536.056109 
L 875.702479 530.292446 
L 878.161983 526.222551 
L 880.621488 524.594862 
L 883.080992 512.277293 
L 885.540496 499.023837 
L 888 501.733055 
L 890.459504 511.766196 
L 892.919008 515.594703 
L 895.378512 514.550933 
L 897.838017 513.159239 
L 900.297521 513.74046 
L 902.757025 512.069618 
L 905.216529 512.737146 
L 910.135537 520.3564 
L 912.595041 523.099331 
L 915.054545 528.115902 
L 917.51405 532.056337 
L 919.973554 533.995539 
L 922.433058 537.383072 
L 924.892562 539.738973 
L 927.352066 542.856798 
L 929.81157 545.187077 
L 932.271074 546.238938 
L 934.730579 547.033229 
L 942.109091 548.240172 
L 947.028099 548.731041 
L 961.785124 549.402614 
L 971.62314 549.506452 
L 976.542149 549.483527 
L 983.920661 549.486224 
L 991.299174 549.497012 
L 993.758678 549.215167 
L 993.758678 549.215167 
" clip-path="url(#pae3bebfdba)" style="fill: none; stroke: #ffd100; stroke-width: 1.5; stroke-linecap: square"/>
   </g>
   <g id="line2d_20">
    <path d="M 187.041322 549.707384 
L 194.419835 549.639957 
L 196.879339 549.579273 
L 199.338843 549.401266 
L 201.798347 548.446499 
L 206.717355 544.456168 
L 209.17686 543.664574 
L 211.636364 544.533034 
L 214.095868 544.960522 
L 216.555372 544.701602 
L 219.014876 543.981481 
L 221.47438 545.133135 
L 223.933884 547.182917 
L 226.393388 548.569216 
L 228.852893 549.124815 
L 233.771901 549.506452 
L 241.150413 549.693899 
L 250.98843 549.679065 
L 253.447934 549.735704 
L 260.826446 549.335187 
L 263.28595 548.948156 
L 268.204959 548.516623 
L 270.664463 547.541628 
L 273.123967 540.956705 
L 275.583471 529.801578 
L 278.042975 524.277955 
L 280.502479 522.290207 
L 282.961983 511.79047 
L 285.421488 511.682587 
L 287.880992 521.102142 
L 290.340496 520.681398 
L 292.8 520.081297 
L 297.719008 535.322502 
L 300.178512 543.316651 
L 302.638017 546.60709 
L 305.097521 547.830216 
L 307.557025 548.578656 
L 312.476033 549.270457 
L 322.31405 549.61029 
L 371.504132 549.649397 
L 378.882645 549.501058 
L 381.342149 549.376992 
L 386.261157 549.403963 
L 391.180165 549.278549 
L 415.775207 549.687156 
L 425.613223 549.525331 
L 430.532231 549.433631 
L 447.74876 549.662883 
L 482.181818 549.476784 
L 484.641322 549.432282 
L 489.560331 549.569833 
L 509.236364 549.472738 
L 514.155372 548.948156 
L 516.614876 548.569216 
L 523.993388 549.345976 
L 531.371901 549.32305 
L 536.290909 548.887472 
L 541.209917 548.15926 
L 543.669421 547.532189 
L 546.128926 546.496509 
L 548.58843 541.454316 
L 551.047934 528.98571 
L 553.507438 518.059835 
L 555.966942 514.066806 
L 558.426446 495.145434 
L 560.88595 483.454936 
L 563.345455 495.211513 
L 565.804959 502.321018 
L 568.264463 503.773397 
L 570.723967 507.111034 
L 573.183471 508.173684 
L 575.642975 501.724963 
L 578.102479 493.787454 
L 580.561983 492.066716 
L 583.021488 501.083058 
L 585.480992 514.871885 
L 587.940496 527.282504 
L 590.4 533.4305 
L 592.859504 535.712231 
L 595.319008 535.113479 
L 597.778512 530.616096 
L 600.238017 515.14429 
L 602.697521 435.695024 
L 605.157025 381.052162 
L 607.616529 369.458759 
L 610.076033 383.6036 
L 612.535537 415.214739 
L 614.995041 445.072775 
L 617.454545 459.07602 
L 619.91405 448.220269 
L 622.373554 452.060912 
L 624.833058 463.89975 
L 627.292562 459.116477 
L 629.752066 448.806884 
L 632.21157 455.572512 
L 634.671074 480.395098 
L 637.130579 502.326413 
L 639.590083 512.619822 
L 642.049587 519.272173 
L 644.509091 519.784618 
L 646.968595 521.038761 
L 649.428099 530.454271 
L 651.887603 535.594908 
L 654.347107 541.149546 
L 656.806612 544.144655 
L 659.266116 545.586245 
L 661.72562 546.76352 
L 666.644628 547.942145 
L 676.482645 549.062782 
L 681.401653 549.308216 
L 698.618182 549.579273 
L 710.915702 549.580622 
L 733.05124 549.633215 
L 742.889256 549.626472 
L 755.186777 549.653443 
L 765.024793 549.631866 
L 779.781818 549.6467 
L 833.890909 549.580622 
L 843.728926 549.283943 
L 848.647934 548.989961 
L 851.107438 548.621809 
L 856.026446 548.256355 
L 860.945455 547.526794 
L 863.404959 546.876798 
L 865.864463 545.28552 
L 868.323967 542.83657 
L 870.783471 537.93058 
L 873.242975 531.93362 
L 875.702479 525.00347 
L 878.161983 520.384719 
L 880.621488 518.334937 
L 885.540496 485.375258 
L 888 490.03986 
L 890.459504 500.67445 
L 892.919008 507.222963 
L 895.378512 506.61612 
L 897.838017 504.188747 
L 900.297521 504.412605 
L 902.757025 502.330458 
L 905.216529 503.374229 
L 907.676033 508.405633 
L 912.595041 516.467209 
L 915.054545 522.361679 
L 917.51405 527.403872 
L 919.973554 530.078028 
L 922.433058 533.907883 
L 924.892562 537.202368 
L 927.352066 541.010646 
L 929.81157 543.760321 
L 932.271074 545.161454 
L 934.730579 546.160723 
L 937.190083 546.917254 
L 942.109091 547.828867 
L 944.568595 548.236127 
L 947.028099 548.522017 
L 951.947107 548.762058 
L 954.406612 549.006143 
L 969.163636 549.437676 
L 974.082645 549.34193 
L 979.001653 549.34193 
L 988.839669 549.475435 
L 991.299174 549.335187 
L 993.758678 549.050645 
L 996.218182 548.913094 
L 996.218182 548.913094 
" clip-path="url(#pae3bebfdba)" style="fill: none; stroke: #ffb700; stroke-width: 1.5; stroke-linecap: square"/>
   </g>
   <g id="line2d_21">
    <path d="M 187.041322 549.684459 
L 194.419835 549.635912 
L 196.879339 549.583319 
L 201.798347 549.023674 
L 204.257851 545.510726 
L 206.717355 542.500784 
L 209.17686 541.83865 
L 211.636364 543.063125 
L 214.095868 543.589056 
L 216.555372 542.939059 
L 219.014876 542.143421 
L 221.47438 543.450156 
L 223.933884 546.576073 
L 226.393388 548.252309 
L 228.852893 548.95355 
L 231.312397 549.243486 
L 236.231405 549.569833 
L 248.528926 549.653443 
L 255.907438 549.599501 
L 258.366942 549.497012 
L 260.826446 549.20303 
L 263.28595 548.493698 
L 265.745455 548.319736 
L 268.204959 547.915174 
L 270.664463 546.979287 
L 273.123967 539.745715 
L 275.583471 523.158667 
L 278.042975 516.73422 
L 280.502479 513.562452 
L 282.961983 500.824138 
L 285.421488 500.701421 
L 287.880992 513.095857 
L 290.340496 511.945552 
L 292.8 511.543687 
L 295.259504 518.104337 
L 297.719008 532.610587 
L 300.178512 540.576416 
L 302.638017 545.704916 
L 305.097521 547.35553 
L 307.557025 548.14982 
L 312.476033 549.049297 
L 317.395041 549.44307 
L 327.233058 549.626472 
L 354.287603 549.683111 
L 366.585124 549.606244 
L 376.42314 549.54556 
L 381.342149 549.236744 
L 383.801653 549.317656 
L 393.639669 549.232698 
L 410.856198 549.631866 
L 423.153719 549.599501 
L 430.532231 549.333839 
L 437.910744 549.607592 
L 469.884298 549.638609 
L 487.100826 549.437676 
L 506.77686 549.515892 
L 511.695868 549.084359 
L 514.155372 548.64878 
L 516.614876 548.352101 
L 519.07438 548.433014 
L 521.533884 548.905003 
L 526.452893 549.278549 
L 533.831405 549.034463 
L 538.750413 548.171397 
L 541.209917 547.556462 
L 543.669421 547.20719 
L 546.128926 545.872135 
L 548.58843 538.773418 
L 551.047934 523.273293 
L 553.507438 509.769008 
L 555.966942 504.156382 
L 558.426446 483.473816 
L 560.88595 469.034992 
L 563.345455 482.380149 
L 565.804959 491.403234 
L 568.264463 493.34783 
L 570.723967 496.980798 
L 573.183471 498.156725 
L 575.642975 490.571185 
L 578.102479 480.412629 
L 580.561983 478.705376 
L 583.021488 489.191628 
L 585.480992 508.351692 
L 587.940496 521.629422 
L 590.4 528.485402 
L 592.859504 532.375941 
L 595.319008 531.368582 
L 597.778512 526.469334 
L 600.238017 506.645788 
L 602.697521 413.574914 
L 605.157025 325.35474 
L 607.616529 313.894843 
L 610.076033 336.410076 
L 614.995041 411.214968 
L 617.454545 428.317159 
L 619.91405 416.648238 
L 622.373554 423.005258 
L 624.833058 436.218258 
L 627.292562 427.14258 
L 629.752066 416.056229 
L 632.21157 429.853147 
L 634.671074 461.802769 
L 637.130579 487.638109 
L 639.590083 499.352881 
L 642.049587 508.459575 
L 644.509091 507.801487 
L 646.968595 511.100017 
L 649.428099 522.740619 
L 651.887603 532.379987 
L 654.347107 537.721556 
L 656.806612 542.03284 
L 659.266116 544.619341 
L 664.185124 546.531571 
L 666.644628 547.371712 
L 671.563636 548.303554 
L 676.482645 548.945459 
L 681.401653 549.240789 
L 686.320661 549.378341 
L 693.699174 549.532074 
L 723.213223 549.652094 
L 760.105785 549.670974 
L 789.619835 549.648049 
L 801.917355 549.662883 
L 819.133884 549.658837 
L 831.431405 549.587364 
L 843.728926 549.070873 
L 851.107438 548.369632 
L 860.945455 546.809371 
L 863.404959 545.696825 
L 865.864463 543.928888 
L 868.323967 539.930466 
L 870.783471 532.718471 
L 873.242975 526.268401 
L 875.702479 515.927792 
L 878.161983 511.736528 
L 880.621488 505.945895 
L 883.080992 487.408857 
L 885.540496 466.795066 
L 888 473.563391 
L 890.459504 487.127012 
L 892.919008 494.138074 
L 895.378512 493.020134 
L 897.838017 490.617035 
L 900.297521 490.166622 
L 902.757025 487.798585 
L 905.216529 488.507918 
L 907.676033 496.013894 
L 910.135537 501.298825 
L 912.595041 505.658656 
L 915.054545 514.630496 
L 917.51405 519.456923 
L 919.973554 524.760733 
L 924.892562 533.325314 
L 927.352066 538.685763 
L 929.81157 541.92226 
L 932.271074 543.722562 
L 934.730579 545.057617 
L 937.190083 545.86809 
L 939.649587 546.872752 
L 947.028099 548.019012 
L 954.406612 548.825439 
L 959.32562 549.116724 
L 966.704132 549.399917 
L 981.461157 549.244835 
L 986.380165 549.345976 
L 988.839669 549.453859 
L 991.299174 549.304171 
L 993.758678 548.772846 
L 996.218182 548.550337 
L 996.218182 548.550337 
" clip-path="url(#pae3bebfdba)" style="fill: none; stroke: #ff9a00; stroke-width: 1.5; stroke-linecap: square"/>
   </g>
   <g id="line2d_22">
    <path d="M 187.041322 549.679065 
L 194.419835 549.580622 
L 196.879339 549.494315 
L 199.338843 549.180105 
L 201.798347 547.575342 
L 204.257851 544.001709 
L 206.717355 539.915632 
L 209.17686 538.21647 
L 211.636364 539.915632 
L 214.095868 540.603387 
L 216.555372 540.143535 
L 219.014876 539.10381 
L 221.47438 540.767909 
L 223.933884 545.025252 
L 226.393388 547.320468 
L 228.852893 548.562474 
L 231.312397 549.002098 
L 233.771901 549.312262 
L 238.690909 549.525331 
L 246.069421 549.633215 
L 255.907438 549.54556 
L 258.366942 549.395872 
L 260.826446 548.965687 
L 263.28595 548.035194 
L 265.745455 547.588827 
L 268.204959 547.30024 
L 270.664463 545.278777 
L 273.123967 532.726562 
L 275.583471 514.746471 
L 278.042975 503.452444 
L 280.502479 499.099355 
L 282.961983 482.800894 
L 285.421488 517.200815 
L 287.880992 497.56067 
L 290.340496 497.682039 
L 292.8 494.198759 
L 295.259504 505.974215 
L 297.719008 526.295372 
L 300.178512 537.287326 
L 302.638017 543.71447 
L 305.097521 546.139146 
L 307.557025 547.503869 
L 310.016529 548.229384 
L 314.935537 549.026371 
L 317.395041 549.308216 
L 327.233058 549.550954 
L 349.368595 549.635912 
L 366.585124 549.523983 
L 373.963636 549.554999 
L 376.42314 549.533423 
L 378.882645 549.216516 
L 381.342149 549.02772 
L 386.261157 549.057388 
L 391.180165 548.807908 
L 408.396694 549.60085 
L 420.694215 549.612987 
L 423.153719 549.560394 
L 425.613223 549.285291 
L 430.532231 549.112678 
L 432.991736 549.16662 
L 435.45124 549.457904 
L 440.370248 549.615684 
L 479.722314 549.309565 
L 482.181818 549.205727 
L 487.100826 549.372946 
L 492.019835 549.4161 
L 501.857851 549.611638 
L 506.77686 549.412054 
L 509.236364 549.159877 
L 511.695868 548.744526 
L 514.155372 548.102621 
L 516.614876 547.65086 
L 519.07438 547.94619 
L 521.533884 548.596187 
L 523.993388 548.971081 
L 526.452893 549.077616 
L 531.371901 548.994006 
L 533.831405 548.698676 
L 538.750413 547.692665 
L 541.209917 546.97659 
L 543.669421 546.016429 
L 546.128926 544.381998 
L 548.58843 536.043972 
L 551.047934 513.97106 
L 553.507438 498.027265 
L 555.966942 489.302208 
L 558.426446 462.385339 
L 560.88595 443.503074 
L 563.345455 460.990948 
L 565.804959 472.344311 
L 568.264463 474.630087 
L 570.723967 480.122693 
L 573.183471 480.849556 
L 575.642975 471.81838 
L 578.102479 456.296678 
L 580.561983 456.11058 
L 583.021488 468.351282 
L 585.480992 494.12324 
L 587.940496 512.122211 
L 590.4 521.632119 
L 592.859504 526.33448 
L 595.319008 524.84704 
L 597.778512 518.638359 
L 600.238017 494.531848 
L 602.697521 378.781219 
L 605.157025 270.252025 
L 607.616529 256.286539 
L 610.076033 277.132279 
L 614.995041 370.663005 
L 617.454545 392.586229 
L 619.91405 377.122515 
L 622.373554 386.3762 
L 624.833058 402.279538 
L 627.292562 392.007705 
L 629.752066 377.972095 
L 632.21157 392.850543 
L 634.671074 432.736326 
L 637.130579 466.826083 
L 639.590083 481.958056 
L 642.049587 492.989118 
L 644.509091 491.810493 
L 646.968595 494.438799 
L 649.428099 511.686632 
L 651.887603 523.166758 
L 654.347107 533.928112 
L 656.806612 539.215739 
L 659.266116 541.892592 
L 661.72562 544.061045 
L 664.185124 545.397449 
L 666.644628 546.435825 
L 674.02314 548.206459 
L 676.482645 548.573262 
L 686.320661 549.261018 
L 701.077686 549.573879 
L 708.456198 549.554999 
L 831.431405 549.554999 
L 838.809917 549.314959 
L 848.647934 548.3993 
L 856.026446 547.412168 
L 860.945455 546.02452 
L 863.404959 544.748801 
L 865.864463 542.438751 
L 868.323967 538.711385 
L 870.783471 530.045663 
L 873.242975 520.700277 
L 875.702479 508.655113 
L 878.161983 502.745809 
L 880.621488 498.224152 
L 883.080992 470.997119 
L 885.540496 450.302416 
L 888 455.896162 
L 890.459504 473.61059 
L 892.919008 481.29862 
L 895.378512 479.630475 
L 897.838017 477.704759 
L 900.297521 477.269181 
L 902.757025 474.17428 
L 905.216529 475.285478 
L 907.676033 483.699022 
L 910.135537 490.02098 
L 912.595041 497.249157 
L 915.054545 506.48666 
L 917.51405 513.949483 
L 919.973554 518.162324 
L 922.433058 524.834903 
L 924.892562 529.051789 
L 927.352066 536.278618 
L 929.81157 539.987104 
L 932.271074 542.276926 
L 934.730579 543.869552 
L 937.190083 545.013115 
L 939.649587 545.974624 
L 942.109091 546.762172 
L 947.028099 547.631981 
L 949.487603 548.032497 
L 951.947107 548.190276 
L 954.406612 548.582702 
L 959.32562 548.973778 
L 969.163636 549.266412 
L 974.082645 549.103238 
L 976.542149 549.16662 
L 983.920661 549.078965 
L 986.380165 549.317656 
L 988.839669 549.410706 
L 991.299174 549.173362 
L 993.758678 548.654174 
L 996.218182 548.326479 
L 996.218182 548.326479 
" clip-path="url(#pae3bebfdba)" style="fill: none; stroke: #ff7900; stroke-width: 1.5; stroke-linecap: square"/>
   </g>
   <g id="line2d_23">
    <path d="M 185.81157 549.660186 
L 190.730579 549.65614 
L 195.649587 549.501058 
L 198.109091 549.327096 
L 200.568595 548.261749 
L 203.028099 544.77712 
L 205.487603 539.899449 
L 207.947107 535.286092 
L 210.406612 535.996773 
L 212.866116 537.631204 
L 215.32562 538.046554 
L 217.785124 536.178826 
L 220.244628 536.25839 
L 222.704132 540.247373 
L 225.163636 545.47027 
L 227.62314 547.772229 
L 230.082645 548.566519 
L 235.001653 549.269109 
L 239.920661 549.525331 
L 247.299174 549.629169 
L 257.13719 549.447116 
L 259.596694 549.068176 
L 264.515702 547.27192 
L 266.975207 546.85657 
L 269.434711 545.947653 
L 271.894215 540.30536 
L 274.353719 519.489288 
L 276.813223 496.818973 
L 279.272727 489.732392 
L 281.732231 477.662955 
L 284.191736 458.711914 
L 286.65124 473.704988 
L 289.110744 484.721216 
L 291.570248 480.548831 
L 294.029752 486.632098 
L 296.489256 507.825761 
L 298.94876 525.212494 
L 301.408264 537.399255 
L 303.867769 543.738744 
L 306.327273 546.140495 
L 308.786777 547.32721 
L 311.246281 548.054074 
L 313.705785 548.617764 
L 316.165289 549.010189 
L 321.084298 549.375643 
L 330.922314 549.554999 
L 357.97686 549.571182 
L 367.814876 549.475435 
L 375.193388 549.490269 
L 377.652893 549.32305 
L 382.571901 548.841621 
L 385.031405 548.940065 
L 387.490909 548.762058 
L 389.950413 548.416831 
L 392.409917 548.520669 
L 397.328926 548.958944 
L 402.247934 549.248881 
L 407.166942 549.559045 
L 421.923967 549.58197 
L 424.383471 549.344627 
L 426.842975 548.985915 
L 431.761983 548.957596 
L 439.140496 549.549605 
L 471.11405 549.537468 
L 478.492562 549.219213 
L 483.41157 549.053342 
L 488.330579 549.263715 
L 505.547107 549.376992 
L 508.006612 549.228653 
L 512.92562 548.125546 
L 515.385124 547.332605 
L 517.844628 547.097958 
L 520.304132 547.692665 
L 522.763636 548.496395 
L 525.22314 548.731041 
L 530.142149 548.872638 
L 532.601653 548.714859 
L 539.980165 546.82825 
L 542.439669 545.850558 
L 544.899174 544.661146 
L 547.358678 541.597262 
L 549.818182 524.415507 
L 552.277686 493.097001 
L 554.73719 483.771843 
L 557.196694 467.331786 
L 559.656198 433.945967 
L 562.115702 427.129095 
L 564.575207 450.009782 
L 567.034711 456.598751 
L 569.494215 461.828392 
L 571.953719 466.095174 
L 574.413223 463.178281 
L 576.872727 446.421316 
L 579.332231 435.968778 
L 581.791736 441.415533 
L 584.25124 464.004936 
L 586.710744 490.94473 
L 589.170248 510.726472 
L 591.629752 519.019996 
L 594.089256 520.933575 
L 596.54876 516.873119 
L 599.008264 503.355349 
L 601.467769 432.551576 
L 603.927273 275.186335 
L 606.386777 219.901567 
L 608.846281 222.95736 
L 611.305785 258.076053 
L 613.765289 318.574278 
L 616.224793 360.468039 
L 618.684298 360.21721 
L 621.143802 344.900487 
L 623.603306 367.197256 
L 626.06281 374.661428 
L 628.522314 356.689428 
L 630.981818 349.283244 
L 635.900826 429.010309 
L 638.360331 459.708486 
L 640.819835 473.816917 
L 643.279339 480.783477 
L 645.738843 477.606316 
L 648.198347 489.902309 
L 650.657851 509.353657 
L 653.117355 523.189683 
L 655.57686 533.549172 
L 658.036364 538.830056 
L 660.495868 541.776618 
L 662.955372 543.590405 
L 665.414876 545.006372 
L 667.87438 545.80336 
L 670.333884 546.767566 
L 672.793388 547.435094 
L 675.252893 547.962373 
L 680.171901 548.64878 
L 690.009917 549.319005 
L 697.38843 549.424191 
L 707.226446 549.542862 
L 709.68595 549.490269 
L 714.604959 549.554999 
L 729.361983 549.569833 
L 793.309091 549.57253 
L 808.066116 549.594107 
L 830.201653 549.501058 
L 837.580165 549.198985 
L 842.499174 548.793074 
L 844.958678 548.477515 
L 847.418182 547.997435 
L 849.877686 547.66974 
L 857.256198 545.96923 
L 862.175207 544.069136 
L 864.634711 541.674128 
L 867.094215 537.300811 
L 869.553719 529.676163 
L 874.472727 503.989163 
L 876.932231 489.458639 
L 879.391736 485.092064 
L 881.85124 468.525244 
L 884.310744 431.002103 
L 886.770248 414.984139 
L 891.689256 452.425018 
L 894.14876 459.251331 
L 896.608264 453.737148 
L 899.067769 452.984663 
L 901.527273 451.216726 
L 903.986777 448.80149 
L 906.446281 453.126259 
L 908.905785 463.272678 
L 911.365289 474.170235 
L 913.824793 482.568945 
L 916.284298 494.361932 
L 918.743802 504.508351 
L 921.203306 509.680004 
L 923.66281 518.51699 
L 926.122314 525.679089 
L 928.581818 533.627387 
L 931.041322 537.62581 
L 933.500826 540.219053 
L 935.960331 542.537194 
L 938.419835 544.013846 
L 940.879339 545.011766 
L 943.338843 545.861347 
L 945.798347 546.419643 
L 948.257851 547.21663 
L 955.636364 548.296811 
L 960.555372 548.789028 
L 967.933884 549.127512 
L 970.393388 548.926579 
L 975.312397 548.760709 
L 980.231405 548.851061 
L 985.150413 548.911746 
L 990.069421 549.232698 
L 994.98843 547.769532 
L 994.98843 547.769532 
" clip-path="url(#pae3bebfdba)" style="fill: none; stroke: #ff5500; stroke-width: 1.5; stroke-linecap: square"/>
   </g>
   <g id="line2d_24">
    <path d="M 187.041322 549.666928 
L 194.419835 549.492966 
L 196.879339 549.308216 
L 199.338843 548.818696 
L 201.798347 546.013732 
L 204.257851 539.887312 
L 206.717355 533.392741 
L 209.17686 530.04836 
L 211.636364 532.467642 
L 214.095868 533.902489 
L 216.555372 532.593056 
L 219.014876 530.541926 
L 221.47438 533.626038 
L 223.933884 540.744984 
L 226.393388 545.940911 
L 228.852893 547.77088 
L 231.312397 548.496395 
L 233.771901 548.927928 
L 238.690909 549.445768 
L 246.069421 549.584667 
L 250.98843 549.550954 
L 255.907438 549.405311 
L 258.366942 549.155831 
L 260.826446 548.315691 
L 263.28595 546.6435 
L 265.745455 545.660414 
L 268.204959 545.23023 
L 270.664463 541.385541 
L 273.123967 521.498613 
L 275.583471 492.10043 
L 278.042975 470.968799 
L 280.502479 465.253685 
L 282.961983 439.18235 
L 285.421488 432.981761 
L 287.880992 460.606614 
L 290.340496 462.742702 
L 292.8 459.463051 
L 295.259504 474.804049 
L 297.719008 507.252631 
L 300.178512 526.014876 
L 302.638017 538.912317 
L 305.097521 543.125158 
L 307.557025 545.535 
L 310.016529 546.901072 
L 312.476033 547.917871 
L 314.935537 548.592141 
L 319.854545 549.197636 
L 322.31405 549.367552 
L 337.071074 549.560394 
L 344.449587 549.54556 
L 356.747107 549.534771 
L 366.585124 549.412054 
L 376.42314 549.28664 
L 381.342149 548.561125 
L 386.261157 548.566519 
L 388.720661 548.277931 
L 391.180165 548.19567 
L 393.639669 548.291417 
L 396.099174 548.687888 
L 398.558678 548.673054 
L 403.477686 549.301474 
L 408.396694 549.550954 
L 413.315702 549.503755 
L 420.694215 549.510498 
L 423.153719 549.390477 
L 425.613223 548.840273 
L 428.072727 548.577307 
L 430.532231 548.539548 
L 432.991736 548.790377 
L 435.45124 549.163923 
L 437.910744 549.394523 
L 440.370248 549.505103 
L 452.667769 549.370249 
L 457.586777 549.434979 
L 464.965289 549.464647 
L 469.884298 549.484875 
L 482.181818 548.867244 
L 501.857851 549.428237 
L 506.77686 549.158528 
L 509.236364 548.691933 
L 511.695868 548.055422 
L 514.155372 546.833645 
L 516.614876 545.961139 
L 519.07438 546.644849 
L 521.533884 547.573993 
L 523.993388 548.307599 
L 526.452893 548.507183 
L 528.912397 548.589444 
L 531.371901 548.415483 
L 533.831405 548.008223 
L 538.750413 546.232195 
L 541.209917 545.232927 
L 543.669421 543.408352 
L 546.128926 541.16438 
L 548.58843 531.39825 
L 551.047934 493.037665 
L 553.507438 466.076294 
L 555.966942 455.634545 
L 560.88595 388.27899 
L 563.345455 408.412701 
L 565.804959 427.150672 
L 568.264463 432.101164 
L 570.723967 439.435876 
L 573.183471 441.340015 
L 575.642975 429.170785 
L 578.102479 408.250876 
L 580.561983 404.731185 
L 583.021488 423.683574 
L 587.940496 488.658954 
L 590.4 503.093732 
L 592.859504 511.826881 
L 595.319008 509.953758 
L 597.778512 500.741877 
L 600.238017 466.467371 
L 602.697521 299.11349 
L 605.157025 178.423157 
L 607.616529 159.110708 
L 610.076033 185.899466 
L 612.535537 238.533003 
L 614.995041 299.584131 
L 617.454545 322.966475 
L 619.91405 304.874455 
L 622.373554 315.293279 
L 624.833058 338.200938 
L 627.292562 325.627146 
L 629.752066 306.854113 
L 632.21157 319.965972 
L 637.130579 421.930471 
L 639.590083 447.819752 
L 642.049587 459.620831 
L 644.509091 456.296678 
L 646.968595 460.938355 
L 649.428099 485.088019 
L 651.887603 506.075355 
L 654.347107 522.960431 
L 656.806612 531.690883 
L 659.266116 536.656209 
L 661.72562 540.527869 
L 664.185124 542.232424 
L 666.644628 544.136563 
L 669.104132 545.037389 
L 671.563636 546.152632 
L 674.02314 546.984681 
L 676.482645 547.656254 
L 681.401653 548.458636 
L 691.239669 549.184151 
L 693.699174 549.34193 
L 701.077686 549.370249 
L 782.241322 549.569833 
L 784.700826 549.486224 
L 792.079339 549.528029 
L 796.998347 549.475435 
L 804.37686 549.521286 
L 811.755372 549.559045 
L 819.133884 549.478133 
L 824.052893 549.478133 
L 833.890909 549.287988 
L 838.809917 548.948156 
L 843.728926 548.307599 
L 853.566942 545.939562 
L 856.026446 545.170894 
L 858.48595 544.021938 
L 860.945455 542.574954 
L 863.404959 540.382227 
L 865.864463 536.05476 
L 868.323967 529.109776 
L 870.783471 514.853006 
L 873.242975 497.946353 
L 875.702479 479.905578 
L 878.161983 467.579917 
L 880.621488 459.209526 
L 883.080992 422.833993 
L 885.540496 383.958267 
L 888 392.378554 
L 890.459504 414.359765 
L 892.919008 432.443693 
L 895.378512 431.738406 
L 897.838017 426.019246 
L 900.297521 424.473819 
L 902.757025 420.372907 
L 905.216529 419.984527 
L 907.676033 435.186625 
L 910.135537 444.780142 
L 912.595041 458.111814 
L 915.054545 470.374093 
L 917.51405 510.897736 
L 917.51405 510.897736 
" clip-path="url(#pae3bebfdba)" style="fill: none; stroke: #ff2d00; stroke-width: 1.5; stroke-linecap: square"/>
   </g>
   <g id="line2d_25">
    <path d="M 187.041322 549.602198 
L 191.960331 549.586016 
L 196.879339 549.173362 
L 199.338843 548.637992 
L 201.798347 544.913323 
L 204.257851 537.134941 
L 206.717355 528.502933 
L 209.17686 525.196312 
L 211.636364 528.45978 
L 214.095868 529.858216 
L 216.555372 528.264241 
L 219.014876 526.101182 
L 221.47438 530.047012 
L 223.933884 538.68846 
L 226.393388 544.868821 
L 228.852893 547.199099 
L 231.312397 548.112061 
L 233.771901 548.695979 
L 236.231405 549.104587 
L 241.150413 549.402614 
L 243.609917 549.514543 
L 255.907438 549.331142 
L 258.366942 548.994006 
L 260.826446 547.847747 
L 263.28595 545.574108 
L 265.745455 544.646312 
L 268.204959 544.16758 
L 270.664463 540.224447 
L 273.123967 515.103834 
L 275.583471 472.0773 
L 278.042975 452.892962 
L 280.502479 445.579827 
L 282.961983 415.137872 
L 285.421488 409.44838 
L 287.880992 443.126831 
L 290.340496 442.549656 
L 292.8 439.603095 
L 295.259504 455.304152 
L 297.719008 494.717947 
L 300.178512 522.233568 
L 302.638017 535.670426 
L 305.097521 541.888546 
L 307.557025 544.53708 
L 310.016529 546.318502 
L 312.476033 547.528143 
L 314.935537 548.226687 
L 317.395041 548.728344 
L 319.854545 549.022326 
L 324.773554 549.285291 
L 334.61157 549.445768 
L 341.990083 549.464647 
L 354.287603 549.495664 
L 361.666116 549.385083 
L 364.12562 549.26776 
L 371.504132 549.321702 
L 376.42314 549.215167 
L 378.882645 548.566519 
L 381.342149 548.217247 
L 386.261157 548.199716 
L 391.180165 547.656254 
L 401.018182 548.853758 
L 408.396694 549.401266 
L 420.694215 549.439025 
L 423.153719 549.310914 
L 428.072727 548.180837 
L 430.532231 548.074302 
L 437.910744 549.336536 
L 442.829752 549.444419 
L 450.208264 549.336536 
L 455.127273 549.228653 
L 457.586777 549.359461 
L 469.884298 549.348673 
L 472.343802 549.324399 
L 477.26281 548.879381 
L 484.641322 548.685191 
L 489.560331 548.900957 
L 494.479339 549.107284 
L 504.317355 549.239441 
L 506.77686 548.995355 
L 509.236364 548.44515 
L 511.695868 547.58613 
L 514.155372 546.004292 
L 516.614876 544.921414 
L 519.07438 545.343507 
L 521.533884 547.007606 
L 523.993388 547.892249 
L 528.912397 548.281977 
L 531.371901 548.116107 
L 533.831405 547.437791 
L 536.290909 546.545057 
L 538.750413 545.321931 
L 541.209917 543.972042 
L 543.669421 541.656597 
L 546.128926 538.567091 
L 548.58843 524.880753 
L 551.047934 476.829557 
L 553.507438 447.657928 
L 555.966942 435.163699 
L 560.88595 357.850522 
L 565.804959 402.286281 
L 568.264463 405.866656 
L 570.723967 414.88165 
L 573.183471 420.542823 
L 575.642975 402.011179 
L 578.102479 377.338281 
L 580.561983 376.132686 
L 583.021488 396.948758 
L 585.480992 434.930402 
L 587.940496 476.445222 
L 590.4 493.211627 
L 592.859504 503.312196 
L 595.319008 500.513974 
L 597.778512 488.427005 
L 600.238017 447.335626 
L 602.697521 269.116554 
L 605.157025 133.127029 
L 607.616529 115.578471 
L 610.076033 143.796682 
L 612.535537 197.236646 
L 614.995041 266.099869 
L 617.454545 288.37641 
L 619.91405 267.279842 
L 622.373554 276.874708 
L 624.833058 302.406626 
L 627.292562 292.480019 
L 629.752066 270.249328 
L 632.21157 283.342308 
L 634.671074 344.123728 
L 637.130579 392.212683 
L 639.590083 422.842085 
L 642.049587 436.340975 
L 644.509091 433.994515 
L 646.968595 437.696259 
L 649.428099 469.960091 
L 651.887603 495.800825 
L 654.347107 516.882559 
L 656.806612 527.085617 
L 659.266116 533.280812 
L 661.72562 538.425494 
L 666.644628 542.31064 
L 669.104132 543.791337 
L 671.563636 545.477013 
L 678.942149 547.774926 
L 681.401653 547.979904 
L 683.861157 548.468076 
L 688.780165 548.918488 
L 693.699174 549.122118 
L 701.077686 549.275851 
L 705.996694 549.266412 
L 710.915702 549.378341 
L 750.267769 549.484875 
L 765.024793 549.472738 
L 774.86281 549.51724 
L 792.079339 549.412054 
L 794.538843 549.467344 
L 799.457851 549.412054 
L 806.836364 549.486224 
L 814.214876 549.506452 
L 819.133884 549.451162 
L 833.890909 549.180105 
L 838.809917 548.7688 
L 846.18843 547.122232 
L 853.566942 544.829713 
L 858.48595 542.547983 
L 860.945455 540.732847 
L 863.404959 537.941368 
L 865.864463 532.31256 
L 868.323967 524.03387 
L 870.783471 505.583138 
L 873.242975 488.192359 
L 875.702479 462.769673 
L 878.161983 449.912687 
L 880.621488 441.435762 
L 883.080992 394.702089 
L 885.540496 351.675555 
L 888 362.173943 
L 890.459504 385.314898 
L 892.919008 407.375673 
L 895.378512 405.006287 
L 897.838017 398.991797 
L 900.297521 399.419284 
L 902.757025 395.446483 
L 905.216529 395.844303 
L 907.676033 413.376678 
L 910.135537 420.808485 
L 912.595041 438.460881 
L 915.054545 453.050741 
L 917.51405 473.432583 
L 919.973554 480.868435 
L 924.892562 504.543413 
L 927.352066 517.006625 
L 929.81157 526.712071 
L 932.271074 532.464945 
L 934.730579 536.211191 
L 937.190083 538.84489 
L 939.649587 540.757121 
L 942.109091 542.460328 
L 944.568595 543.760321 
L 947.028099 544.673283 
L 949.487603 545.727841 
L 954.406612 546.975241 
L 959.32562 547.905734 
L 961.785124 548.242869 
L 966.704132 548.71351 
L 974.082645 548.099924 
L 976.542149 548.056771 
L 979.001653 548.14982 
L 981.461157 548.082393 
L 983.920661 548.14982 
L 988.839669 548.860501 
L 991.299174 548.567868 
L 993.758678 546.839039 
L 996.218182 546.170163 
L 996.218182 546.170163 
" clip-path="url(#pae3bebfdba)" style="fill: none; stroke: #ff0100; stroke-width: 1.5; stroke-linecap: square"/>
   </g>
   <g id="line2d_26">
    <path d="M 191.960331 576.72 
L 191.960331 77.76 
" clip-path="url(#pae3bebfdba)" style="fill: none; stroke: #000000; stroke-linecap: square"/>
   </g>
   <g id="line2d_27">
    <path d="M 236.231405 576.72 
L 236.231405 77.76 
" clip-path="url(#pae3bebfdba)" style="fill: none; stroke: #000000; stroke-linecap: square"/>
   </g>
   <g id="line2d_28">
    <path d="M 253.447934 576.72 
L 253.447934 77.76 
" clip-path="url(#pae3bebfdba)" style="fill: none; stroke: #000000; stroke-linecap: square"/>
   </g>
   <g id="line2d_29">
    <path d="M 322.31405 576.72 
L 322.31405 77.76 
" clip-path="url(#pae3bebfdba)" style="fill: none; stroke: #000000; stroke-linecap: square"/>
   </g>
   <g id="line2d_30">
    <path d="M 506.77686 576.72 
L 506.77686 77.76 
" clip-path="url(#pae3bebfdba)" style="fill: none; stroke: #000000; stroke-linecap: square"/>
   </g>
   <g id="line2d_31">
    <path d="M 592.859504 576.72 
L 592.859504 77.76 
" clip-path="url(#pae3bebfdba)" style="fill: none; stroke: #000000; stroke-linecap: square"/>
   </g>
   <g id="line2d_32">
    <path d="M 592.859504 576.72 
L 592.859504 77.76 
" clip-path="url(#pae3bebfdba)" style="fill: none; stroke: #000000; stroke-linecap: square"/>
   </g>
   <g id="line2d_33">
    <path d="M 678.942149 576.72 
L 678.942149 77.76 
" clip-path="url(#pae3bebfdba)" style="fill: none; stroke: #000000; stroke-linecap: square"/>
   </g>
   <g id="line2d_34">
    <path d="M 826.512397 576.72 
L 826.512397 77.76 
" clip-path="url(#pae3bebfdba)" style="fill: none; stroke: #000000; stroke-linecap: square"/>
   </g>
   <g id="line2d_35">
    <path d="M 974.082645 576.72 
L 974.082645 77.76 
" clip-path="url(#pae3bebfdba)" style="fill: none; stroke: #000000; stroke-linecap: square"/>
   </g>
   <g id="patch_3">
    <path d="M 144 576.72 
L 144 77.76 
" style="fill: none; stroke: #000000; stroke-width: 0.8; stroke-linejoin: miter; stroke-linecap: square"/>
   </g>
   <g id="patch_4">
    <path d="M 1036.8 576.72 
L 1036.8 77.76 
" style="fill: none; stroke: #000000; stroke-width: 0.8; stroke-linejoin: miter; stroke-linecap: square"/>
   </g>
   <g id="patch_5">
    <path d="M 144 576.72 
L 1036.8 576.72 
" style="fill: none; stroke: #000000; stroke-width: 0.8; stroke-linejoin: miter; stroke-linecap: square"/>
   </g>
   <g id="patch_6">
    <path d="M 144 77.76 
L 1036.8 77.76 
" style="fill: none; stroke: #000000; stroke-width: 0.8; stroke-linejoin: miter; stroke-linecap: square"/>
   </g>
   <g id="text_19">
    <!-- UVA -->
    <g transform="translate(193.190083 569.977297) scale(0.15 -0.15)">
     <defs>
      <path id="DejaVuSans-55" d="M 556 4666 
L 1191 4666 
L 1191 1831 
Q 1191 1081 1462 751 
Q 1734 422 2344 422 
Q 2950 422 3222 751 
Q 3494 1081 3494 1831 
L 3494 4666 
L 4128 4666 
L 4128 1753 
Q 4128 841 3676 375 
Q 3225 -91 2344 -91 
Q 1459 -91 1007 375 
Q 556 841 556 1753 
L 556 4666 
z
" transform="scale(0.015625)"/>
      <path id="DejaVuSans-56" d="M 1831 0 
L 50 4666 
L 709 4666 
L 2188 738 
L 3669 4666 
L 4325 4666 
L 2547 0 
L 1831 0 
z
" transform="scale(0.015625)"/>
      <path id="DejaVuSans-41" d="M 2188 4044 
L 1331 1722 
L 3047 1722 
L 2188 4044 
z
M 1831 4666 
L 2547 4666 
L 4325 0 
L 3669 0 
L 3244 1197 
L 1141 1197 
L 716 0 
L 50 0 
L 1831 4666 
z
" transform="scale(0.015625)"/>
     </defs>
     <use xlink:href="#DejaVuSans-55"/>
     <use xlink:href="#DejaVuSans-56" x="73.193359"/>
     <use xlink:href="#DejaVuSans-41" x="135.226562"/>
    </g>
   </g>
   <g id="text_20">
    <!-- B -->
    <g transform="translate(254.677686 569.977297) scale(0.15 -0.15)">
     <defs>
      <path id="DejaVuSans-42" d="M 1259 2228 
L 1259 519 
L 2272 519 
Q 2781 519 3026 730 
Q 3272 941 3272 1375 
Q 3272 1813 3026 2020 
Q 2781 2228 2272 2228 
L 1259 2228 
z
M 1259 4147 
L 1259 2741 
L 2194 2741 
Q 2656 2741 2882 2914 
Q 3109 3088 3109 3444 
Q 3109 3797 2882 3972 
Q 2656 4147 2194 4147 
L 1259 4147 
z
M 628 4666 
L 2241 4666 
Q 2963 4666 3353 4366 
Q 3744 4066 3744 3513 
Q 3744 3084 3544 2831 
Q 3344 2578 2956 2516 
Q 3422 2416 3680 2098 
Q 3938 1781 3938 1306 
Q 3938 681 3513 340 
Q 3088 0 2303 0 
L 628 0 
L 628 4666 
z
" transform="scale(0.015625)"/>
     </defs>
     <use xlink:href="#DejaVuSans-42"/>
    </g>
   </g>
   <g id="text_21">
    <!-- G -->
    <g transform="translate(508.006612 569.977297) scale(0.15 -0.15)">
     <defs>
      <path id="DejaVuSans-47" d="M 3809 666 
L 3809 1919 
L 2778 1919 
L 2778 2438 
L 4434 2438 
L 4434 434 
Q 4069 175 3628 42 
Q 3188 -91 2688 -91 
Q 1594 -91 976 548 
Q 359 1188 359 2328 
Q 359 3472 976 4111 
Q 1594 4750 2688 4750 
Q 3144 4750 3555 4637 
Q 3966 4525 4313 4306 
L 4313 3634 
Q 3963 3931 3569 4081 
Q 3175 4231 2741 4231 
Q 1884 4231 1454 3753 
Q 1025 3275 1025 2328 
Q 1025 1384 1454 906 
Q 1884 428 2741 428 
Q 3075 428 3337 486 
Q 3600 544 3809 666 
z
" transform="scale(0.015625)"/>
     </defs>
     <use xlink:href="#DejaVuSans-47"/>
    </g>
   </g>
   <g id="text_22">
    <!-- Y -->
    <g transform="translate(594.089256 569.977297) scale(0.15 -0.15)">
     <defs>
      <path id="DejaVuSans-59" d="M -13 4666 
L 666 4666 
L 1959 2747 
L 3244 4666 
L 3922 4666 
L 2272 2222 
L 2272 0 
L 1638 0 
L 1638 2222 
L -13 4666 
z
" transform="scale(0.015625)"/>
     </defs>
     <use xlink:href="#DejaVuSans-59"/>
    </g>
   </g>
   <g id="text_23">
    <!-- R -->
    <g transform="translate(827.742149 569.977297) scale(0.15 -0.15)">
     <defs>
      <path id="DejaVuSans-52" d="M 2841 2188 
Q 3044 2119 3236 1894 
Q 3428 1669 3622 1275 
L 4263 0 
L 3584 0 
L 2988 1197 
Q 2756 1666 2539 1819 
Q 2322 1972 1947 1972 
L 1259 1972 
L 1259 0 
L 628 0 
L 628 4666 
L 2053 4666 
Q 2853 4666 3247 4331 
Q 3641 3997 3641 3322 
Q 3641 2881 3436 2590 
Q 3231 2300 2841 2188 
z
M 1259 4147 
L 1259 2491 
L 2053 2491 
Q 2509 2491 2742 2702 
Q 2975 2913 2975 3322 
Q 2975 3731 2742 3939 
Q 2509 4147 2053 4147 
L 1259 4147 
z
" transform="scale(0.015625)"/>
     </defs>
     <use xlink:href="#DejaVuSans-52"/>
    </g>
   </g>
  </g>
 </g>
 <defs>
  <clipPath id="pae3bebfdba">
   <rect x="144" y="77.76" width="892.8" height="498.96"/>
  </clipPath>
 </defs>
</svg>
