<?xml version="1.0" encoding="utf-8" standalone="no"?>
<!DOCTYPE svg PUBLIC "-//W3C//DTD SVG 1.1//EN"
  "http://www.w3.org/Graphics/SVG/1.1/DTD/svg11.dtd">
<svg xmlns:xlink="http://www.w3.org/1999/xlink" width="460.8pt" height="345.6pt" viewBox="0 0 460.8 345.6" xmlns="http://www.w3.org/2000/svg" version="1.1">
 <metadata>
  <rdf:RDF xmlns:dc="http://purl.org/dc/elements/1.1/" xmlns:cc="http://creativecommons.org/ns#" xmlns:rdf="http://www.w3.org/1999/02/22-rdf-syntax-ns#">
   <cc:Work>
    <dc:type rdf:resource="http://purl.org/dc/dcmitype/StillImage"/>
    <dc:date>2024-12-11T14:43:43.803753</dc:date>
    <dc:format>image/svg+xml</dc:format>
    <dc:creator>
     <cc:Agent>
      <dc:title>Matplotlib v3.9.2, https://matplotlib.org/</dc:title>
     </cc:Agent>
    </dc:creator>
   </cc:Work>
  </rdf:RDF>
 </metadata>
 <defs>
  <style type="text/css">*{stroke-linejoin: round; stroke-linecap: butt}</style>
 </defs>
 <g id="figure_1">
  <g id="patch_1">
   <path d="M 0 345.6 
L 460.8 345.6 
L 460.8 0 
L 0 0 
z
" style="fill: #ffffff"/>
  </g>
  <g id="axes_1">
   <g id="patch_2">
    <path d="M 57.6 307.584 
L 414.72 307.584 
L 414.72 41.472 
L 57.6 41.472 
z
" style="fill: #ffffff"/>
   </g>
   <g id="matplotlib.axis_1">
    <g id="xtick_1">
     <g id="line2d_1">
      <defs>
       <path id="m90d08cb8ca" d="M 0 0 
L 0 3.5 
" style="stroke: #000000; stroke-width: 0.8"/>
      </defs>
      <g>
       <use xlink:href="#m90d08cb8ca" x="68.76" y="307.584" style="stroke: #000000; stroke-width: 0.8"/>
      </g>
     </g>
     <g id="text_1">
      <!-- −300 -->
      <g transform="translate(55.026406 322.182437) scale(0.1 -0.1)">
       <defs>
        <path id="DejaVuSans-2212" d="M 678 2272 
L 4684 2272 
L 4684 1741 
L 678 1741 
L 678 2272 
z
" transform="scale(0.015625)"/>
        <path id="DejaVuSans-33" d="M 2597 2516 
Q 3050 2419 3304 2112 
Q 3559 1806 3559 1356 
Q 3559 666 3084 287 
Q 2609 -91 1734 -91 
Q 1441 -91 1130 -33 
Q 819 25 488 141 
L 488 750 
Q 750 597 1062 519 
Q 1375 441 1716 441 
Q 2309 441 2620 675 
Q 2931 909 2931 1356 
Q 2931 1769 2642 2001 
Q 2353 2234 1838 2234 
L 1294 2234 
L 1294 2753 
L 1863 2753 
Q 2328 2753 2575 2939 
Q 2822 3125 2822 3475 
Q 2822 3834 2567 4026 
Q 2313 4219 1838 4219 
Q 1578 4219 1281 4162 
Q 984 4106 628 3988 
L 628 4550 
Q 988 4650 1302 4700 
Q 1616 4750 1894 4750 
Q 2613 4750 3031 4423 
Q 3450 4097 3450 3541 
Q 3450 3153 3228 2886 
Q 3006 2619 2597 2516 
z
" transform="scale(0.015625)"/>
        <path id="DejaVuSans-30" d="M 2034 4250 
Q 1547 4250 1301 3770 
Q 1056 3291 1056 2328 
Q 1056 1369 1301 889 
Q 1547 409 2034 409 
Q 2525 409 2770 889 
Q 3016 1369 3016 2328 
Q 3016 3291 2770 3770 
Q 2525 4250 2034 4250 
z
M 2034 4750 
Q 2819 4750 3233 4129 
Q 3647 3509 3647 2328 
Q 3647 1150 3233 529 
Q 2819 -91 2034 -91 
Q 1250 -91 836 529 
Q 422 1150 422 2328 
Q 422 3509 836 4129 
Q 1250 4750 2034 4750 
z
" transform="scale(0.015625)"/>
       </defs>
       <use xlink:href="#DejaVuSans-2212"/>
       <use xlink:href="#DejaVuSans-33" x="83.789062"/>
       <use xlink:href="#DejaVuSans-30" x="147.412109"/>
       <use xlink:href="#DejaVuSans-30" x="211.035156"/>
      </g>
     </g>
    </g>
    <g id="xtick_2">
     <g id="line2d_2">
      <g>
       <use xlink:href="#m90d08cb8ca" x="124.56" y="307.584" style="stroke: #000000; stroke-width: 0.8"/>
      </g>
     </g>
     <g id="text_2">
      <!-- −200 -->
      <g transform="translate(110.826406 322.182437) scale(0.1 -0.1)">
       <defs>
        <path id="DejaVuSans-32" d="M 1228 531 
L 3431 531 
L 3431 0 
L 469 0 
L 469 531 
Q 828 903 1448 1529 
Q 2069 2156 2228 2338 
Q 2531 2678 2651 2914 
Q 2772 3150 2772 3378 
Q 2772 3750 2511 3984 
Q 2250 4219 1831 4219 
Q 1534 4219 1204 4116 
Q 875 4013 500 3803 
L 500 4441 
Q 881 4594 1212 4672 
Q 1544 4750 1819 4750 
Q 2544 4750 2975 4387 
Q 3406 4025 3406 3419 
Q 3406 3131 3298 2873 
Q 3191 2616 2906 2266 
Q 2828 2175 2409 1742 
Q 1991 1309 1228 531 
z
" transform="scale(0.015625)"/>
       </defs>
       <use xlink:href="#DejaVuSans-2212"/>
       <use xlink:href="#DejaVuSans-32" x="83.789062"/>
       <use xlink:href="#DejaVuSans-30" x="147.412109"/>
       <use xlink:href="#DejaVuSans-30" x="211.035156"/>
      </g>
     </g>
    </g>
    <g id="xtick_3">
     <g id="line2d_3">
      <g>
       <use xlink:href="#m90d08cb8ca" x="180.36" y="307.584" style="stroke: #000000; stroke-width: 0.8"/>
      </g>
     </g>
     <g id="text_3">
      <!-- −100 -->
      <g transform="translate(166.626406 322.182437) scale(0.1 -0.1)">
       <defs>
        <path id="DejaVuSans-31" d="M 794 531 
L 1825 531 
L 1825 4091 
L 703 3866 
L 703 4441 
L 1819 4666 
L 2450 4666 
L 2450 531 
L 3481 531 
L 3481 0 
L 794 0 
L 794 531 
z
" transform="scale(0.015625)"/>
       </defs>
       <use xlink:href="#DejaVuSans-2212"/>
       <use xlink:href="#DejaVuSans-31" x="83.789062"/>
       <use xlink:href="#DejaVuSans-30" x="147.412109"/>
       <use xlink:href="#DejaVuSans-30" x="211.035156"/>
      </g>
     </g>
    </g>
    <g id="xtick_4">
     <g id="line2d_4">
      <g>
       <use xlink:href="#m90d08cb8ca" x="236.16" y="307.584" style="stroke: #000000; stroke-width: 0.8"/>
      </g>
     </g>
     <g id="text_4">
      <!-- 0 -->
      <g transform="translate(232.97875 322.182437) scale(0.1 -0.1)">
       <use xlink:href="#DejaVuSans-30"/>
      </g>
     </g>
    </g>
    <g id="xtick_5">
     <g id="line2d_5">
      <g>
       <use xlink:href="#m90d08cb8ca" x="291.96" y="307.584" style="stroke: #000000; stroke-width: 0.8"/>
      </g>
     </g>
     <g id="text_5">
      <!-- 100 -->
      <g transform="translate(282.41625 322.182437) scale(0.1 -0.1)">
       <use xlink:href="#DejaVuSans-31"/>
       <use xlink:href="#DejaVuSans-30" x="63.623047"/>
       <use xlink:href="#DejaVuSans-30" x="127.246094"/>
      </g>
     </g>
    </g>
    <g id="xtick_6">
     <g id="line2d_6">
      <g>
       <use xlink:href="#m90d08cb8ca" x="347.76" y="307.584" style="stroke: #000000; stroke-width: 0.8"/>
      </g>
     </g>
     <g id="text_6">
      <!-- 200 -->
      <g transform="translate(338.21625 322.182437) scale(0.1 -0.1)">
       <use xlink:href="#DejaVuSans-32"/>
       <use xlink:href="#DejaVuSans-30" x="63.623047"/>
       <use xlink:href="#DejaVuSans-30" x="127.246094"/>
      </g>
     </g>
    </g>
    <g id="xtick_7">
     <g id="line2d_7">
      <g>
       <use xlink:href="#m90d08cb8ca" x="403.56" y="307.584" style="stroke: #000000; stroke-width: 0.8"/>
      </g>
     </g>
     <g id="text_7">
      <!-- 300 -->
      <g transform="translate(394.01625 322.182437) scale(0.1 -0.1)">
       <use xlink:href="#DejaVuSans-33"/>
       <use xlink:href="#DejaVuSans-30" x="63.623047"/>
       <use xlink:href="#DejaVuSans-30" x="127.246094"/>
      </g>
     </g>
    </g>
    <g id="text_8">
     <!-- Tiempo de retardo (ns) -->
     <g transform="translate(167.273438 337.38025) scale(0.12 -0.12)">
      <defs>
       <path id="DejaVuSans-54" d="M -19 4666 
L 3928 4666 
L 3928 4134 
L 2272 4134 
L 2272 0 
L 1638 0 
L 1638 4134 
L -19 4134 
L -19 4666 
z
" transform="scale(0.015625)"/>
       <path id="DejaVuSans-69" d="M 603 3500 
L 1178 3500 
L 1178 0 
L 603 0 
L 603 3500 
z
M 603 4863 
L 1178 4863 
L 1178 4134 
L 603 4134 
L 603 4863 
z
" transform="scale(0.015625)"/>
       <path id="DejaVuSans-65" d="M 3597 1894 
L 3597 1613 
L 953 1613 
Q 991 1019 1311 708 
Q 1631 397 2203 397 
Q 2534 397 2845 478 
Q 3156 559 3463 722 
L 3463 178 
Q 3153 47 2828 -22 
Q 2503 -91 2169 -91 
Q 1331 -91 842 396 
Q 353 884 353 1716 
Q 353 2575 817 3079 
Q 1281 3584 2069 3584 
Q 2775 3584 3186 3129 
Q 3597 2675 3597 1894 
z
M 3022 2063 
Q 3016 2534 2758 2815 
Q 2500 3097 2075 3097 
Q 1594 3097 1305 2825 
Q 1016 2553 972 2059 
L 3022 2063 
z
" transform="scale(0.015625)"/>
       <path id="DejaVuSans-6d" d="M 3328 2828 
Q 3544 3216 3844 3400 
Q 4144 3584 4550 3584 
Q 5097 3584 5394 3201 
Q 5691 2819 5691 2113 
L 5691 0 
L 5113 0 
L 5113 2094 
Q 5113 2597 4934 2840 
Q 4756 3084 4391 3084 
Q 3944 3084 3684 2787 
Q 3425 2491 3425 1978 
L 3425 0 
L 2847 0 
L 2847 2094 
Q 2847 2600 2669 2842 
Q 2491 3084 2119 3084 
Q 1678 3084 1418 2786 
Q 1159 2488 1159 1978 
L 1159 0 
L 581 0 
L 581 3500 
L 1159 3500 
L 1159 2956 
Q 1356 3278 1631 3431 
Q 1906 3584 2284 3584 
Q 2666 3584 2933 3390 
Q 3200 3197 3328 2828 
z
" transform="scale(0.015625)"/>
       <path id="DejaVuSans-70" d="M 1159 525 
L 1159 -1331 
L 581 -1331 
L 581 3500 
L 1159 3500 
L 1159 2969 
Q 1341 3281 1617 3432 
Q 1894 3584 2278 3584 
Q 2916 3584 3314 3078 
Q 3713 2572 3713 1747 
Q 3713 922 3314 415 
Q 2916 -91 2278 -91 
Q 1894 -91 1617 61 
Q 1341 213 1159 525 
z
M 3116 1747 
Q 3116 2381 2855 2742 
Q 2594 3103 2138 3103 
Q 1681 3103 1420 2742 
Q 1159 2381 1159 1747 
Q 1159 1113 1420 752 
Q 1681 391 2138 391 
Q 2594 391 2855 752 
Q 3116 1113 3116 1747 
z
" transform="scale(0.015625)"/>
       <path id="DejaVuSans-6f" d="M 1959 3097 
Q 1497 3097 1228 2736 
Q 959 2375 959 1747 
Q 959 1119 1226 758 
Q 1494 397 1959 397 
Q 2419 397 2687 759 
Q 2956 1122 2956 1747 
Q 2956 2369 2687 2733 
Q 2419 3097 1959 3097 
z
M 1959 3584 
Q 2709 3584 3137 3096 
Q 3566 2609 3566 1747 
Q 3566 888 3137 398 
Q 2709 -91 1959 -91 
Q 1206 -91 779 398 
Q 353 888 353 1747 
Q 353 2609 779 3096 
Q 1206 3584 1959 3584 
z
" transform="scale(0.015625)"/>
       <path id="DejaVuSans-20" transform="scale(0.015625)"/>
       <path id="DejaVuSans-64" d="M 2906 2969 
L 2906 4863 
L 3481 4863 
L 3481 0 
L 2906 0 
L 2906 525 
Q 2725 213 2448 61 
Q 2172 -91 1784 -91 
Q 1150 -91 751 415 
Q 353 922 353 1747 
Q 353 2572 751 3078 
Q 1150 3584 1784 3584 
Q 2172 3584 2448 3432 
Q 2725 3281 2906 2969 
z
M 947 1747 
Q 947 1113 1208 752 
Q 1469 391 1925 391 
Q 2381 391 2643 752 
Q 2906 1113 2906 1747 
Q 2906 2381 2643 2742 
Q 2381 3103 1925 3103 
Q 1469 3103 1208 2742 
Q 947 2381 947 1747 
z
" transform="scale(0.015625)"/>
       <path id="DejaVuSans-72" d="M 2631 2963 
Q 2534 3019 2420 3045 
Q 2306 3072 2169 3072 
Q 1681 3072 1420 2755 
Q 1159 2438 1159 1844 
L 1159 0 
L 581 0 
L 581 3500 
L 1159 3500 
L 1159 2956 
Q 1341 3275 1631 3429 
Q 1922 3584 2338 3584 
Q 2397 3584 2469 3576 
Q 2541 3569 2628 3553 
L 2631 2963 
z
" transform="scale(0.015625)"/>
       <path id="DejaVuSans-74" d="M 1172 4494 
L 1172 3500 
L 2356 3500 
L 2356 3053 
L 1172 3053 
L 1172 1153 
Q 1172 725 1289 603 
Q 1406 481 1766 481 
L 2356 481 
L 2356 0 
L 1766 0 
Q 1100 0 847 248 
Q 594 497 594 1153 
L 594 3053 
L 172 3053 
L 172 3500 
L 594 3500 
L 594 4494 
L 1172 4494 
z
" transform="scale(0.015625)"/>
       <path id="DejaVuSans-61" d="M 2194 1759 
Q 1497 1759 1228 1600 
Q 959 1441 959 1056 
Q 959 750 1161 570 
Q 1363 391 1709 391 
Q 2188 391 2477 730 
Q 2766 1069 2766 1631 
L 2766 1759 
L 2194 1759 
z
M 3341 1997 
L 3341 0 
L 2766 0 
L 2766 531 
Q 2569 213 2275 61 
Q 1981 -91 1556 -91 
Q 1019 -91 701 211 
Q 384 513 384 1019 
Q 384 1609 779 1909 
Q 1175 2209 1959 2209 
L 2766 2209 
L 2766 2266 
Q 2766 2663 2505 2880 
Q 2244 3097 1772 3097 
Q 1472 3097 1187 3025 
Q 903 2953 641 2809 
L 641 3341 
Q 956 3463 1253 3523 
Q 1550 3584 1831 3584 
Q 2591 3584 2966 3190 
Q 3341 2797 3341 1997 
z
" transform="scale(0.015625)"/>
       <path id="DejaVuSans-28" d="M 1984 4856 
Q 1566 4138 1362 3434 
Q 1159 2731 1159 2009 
Q 1159 1288 1364 580 
Q 1569 -128 1984 -844 
L 1484 -844 
Q 1016 -109 783 600 
Q 550 1309 550 2009 
Q 550 2706 781 3412 
Q 1013 4119 1484 4856 
L 1984 4856 
z
" transform="scale(0.015625)"/>
       <path id="DejaVuSans-6e" d="M 3513 2113 
L 3513 0 
L 2938 0 
L 2938 2094 
Q 2938 2591 2744 2837 
Q 2550 3084 2163 3084 
Q 1697 3084 1428 2787 
Q 1159 2491 1159 1978 
L 1159 0 
L 581 0 
L 581 3500 
L 1159 3500 
L 1159 2956 
Q 1366 3272 1645 3428 
Q 1925 3584 2291 3584 
Q 2894 3584 3203 3211 
Q 3513 2838 3513 2113 
z
" transform="scale(0.015625)"/>
       <path id="DejaVuSans-73" d="M 2834 3397 
L 2834 2853 
Q 2591 2978 2328 3040 
Q 2066 3103 1784 3103 
Q 1356 3103 1142 2972 
Q 928 2841 928 2578 
Q 928 2378 1081 2264 
Q 1234 2150 1697 2047 
L 1894 2003 
Q 2506 1872 2764 1633 
Q 3022 1394 3022 966 
Q 3022 478 2636 193 
Q 2250 -91 1575 -91 
Q 1294 -91 989 -36 
Q 684 19 347 128 
L 347 722 
Q 666 556 975 473 
Q 1284 391 1588 391 
Q 1994 391 2212 530 
Q 2431 669 2431 922 
Q 2431 1156 2273 1281 
Q 2116 1406 1581 1522 
L 1381 1569 
Q 847 1681 609 1914 
Q 372 2147 372 2553 
Q 372 3047 722 3315 
Q 1072 3584 1716 3584 
Q 2034 3584 2315 3537 
Q 2597 3491 2834 3397 
z
" transform="scale(0.015625)"/>
       <path id="DejaVuSans-29" d="M 513 4856 
L 1013 4856 
Q 1481 4119 1714 3412 
Q 1947 2706 1947 2009 
Q 1947 1309 1714 600 
Q 1481 -109 1013 -844 
L 513 -844 
Q 928 -128 1133 580 
Q 1338 1288 1338 2009 
Q 1338 2731 1133 3434 
Q 928 4138 513 4856 
z
" transform="scale(0.015625)"/>
      </defs>
      <use xlink:href="#DejaVuSans-54"/>
      <use xlink:href="#DejaVuSans-69" x="57.958984"/>
      <use xlink:href="#DejaVuSans-65" x="85.742188"/>
      <use xlink:href="#DejaVuSans-6d" x="147.265625"/>
      <use xlink:href="#DejaVuSans-70" x="244.677734"/>
      <use xlink:href="#DejaVuSans-6f" x="308.154297"/>
      <use xlink:href="#DejaVuSans-20" x="369.335938"/>
      <use xlink:href="#DejaVuSans-64" x="401.123047"/>
      <use xlink:href="#DejaVuSans-65" x="464.599609"/>
      <use xlink:href="#DejaVuSans-20" x="526.123047"/>
      <use xlink:href="#DejaVuSans-72" x="557.910156"/>
      <use xlink:href="#DejaVuSans-65" x="596.773438"/>
      <use xlink:href="#DejaVuSans-74" x="658.296875"/>
      <use xlink:href="#DejaVuSans-61" x="697.505859"/>
      <use xlink:href="#DejaVuSans-72" x="758.785156"/>
      <use xlink:href="#DejaVuSans-64" x="798.148438"/>
      <use xlink:href="#DejaVuSans-6f" x="861.625"/>
      <use xlink:href="#DejaVuSans-20" x="922.806641"/>
      <use xlink:href="#DejaVuSans-28" x="954.59375"/>
      <use xlink:href="#DejaVuSans-6e" x="993.607422"/>
      <use xlink:href="#DejaVuSans-73" x="1056.986328"/>
      <use xlink:href="#DejaVuSans-29" x="1109.085938"/>
     </g>
    </g>
   </g>
   <g id="matplotlib.axis_2">
    <g id="ytick_1">
     <g id="line2d_8">
      <defs>
       <path id="m865d48af77" d="M 0 0 
L -3.5 0 
" style="stroke: #000000; stroke-width: 0.8"/>
      </defs>
      <g>
       <use xlink:href="#m865d48af77" x="57.6" y="295.477865" style="stroke: #000000; stroke-width: 0.8"/>
      </g>
     </g>
     <g id="text_9">
      <!-- 0.0 -->
      <g transform="translate(34.696875 299.277084) scale(0.1 -0.1)">
       <defs>
        <path id="DejaVuSans-2e" d="M 684 794 
L 1344 794 
L 1344 0 
L 684 0 
L 684 794 
z
" transform="scale(0.015625)"/>
       </defs>
       <use xlink:href="#DejaVuSans-30"/>
       <use xlink:href="#DejaVuSans-2e" x="63.623047"/>
       <use xlink:href="#DejaVuSans-30" x="95.410156"/>
      </g>
     </g>
    </g>
    <g id="ytick_2">
     <g id="line2d_9">
      <g>
       <use xlink:href="#m865d48af77" x="57.6" y="247.408037" style="stroke: #000000; stroke-width: 0.8"/>
      </g>
     </g>
     <g id="text_10">
      <!-- 0.2 -->
      <g transform="translate(34.696875 251.207255) scale(0.1 -0.1)">
       <use xlink:href="#DejaVuSans-30"/>
       <use xlink:href="#DejaVuSans-2e" x="63.623047"/>
       <use xlink:href="#DejaVuSans-32" x="95.410156"/>
      </g>
     </g>
    </g>
    <g id="ytick_3">
     <g id="line2d_10">
      <g>
       <use xlink:href="#m865d48af77" x="57.6" y="199.338208" style="stroke: #000000; stroke-width: 0.8"/>
      </g>
     </g>
     <g id="text_11">
      <!-- 0.4 -->
      <g transform="translate(34.696875 203.137427) scale(0.1 -0.1)">
       <defs>
        <path id="DejaVuSans-34" d="M 2419 4116 
L 825 1625 
L 2419 1625 
L 2419 4116 
z
M 2253 4666 
L 3047 4666 
L 3047 1625 
L 3713 1625 
L 3713 1100 
L 3047 1100 
L 3047 0 
L 2419 0 
L 2419 1100 
L 313 1100 
L 313 1709 
L 2253 4666 
z
" transform="scale(0.015625)"/>
       </defs>
       <use xlink:href="#DejaVuSans-30"/>
       <use xlink:href="#DejaVuSans-2e" x="63.623047"/>
       <use xlink:href="#DejaVuSans-34" x="95.410156"/>
      </g>
     </g>
    </g>
    <g id="ytick_4">
     <g id="line2d_11">
      <g>
       <use xlink:href="#m865d48af77" x="57.6" y="151.26838" style="stroke: #000000; stroke-width: 0.8"/>
      </g>
     </g>
     <g id="text_12">
      <!-- 0.6 -->
      <g transform="translate(34.696875 155.067599) scale(0.1 -0.1)">
       <defs>
        <path id="DejaVuSans-36" d="M 2113 2584 
Q 1688 2584 1439 2293 
Q 1191 2003 1191 1497 
Q 1191 994 1439 701 
Q 1688 409 2113 409 
Q 2538 409 2786 701 
Q 3034 994 3034 1497 
Q 3034 2003 2786 2293 
Q 2538 2584 2113 2584 
z
M 3366 4563 
L 3366 3988 
Q 3128 4100 2886 4159 
Q 2644 4219 2406 4219 
Q 1781 4219 1451 3797 
Q 1122 3375 1075 2522 
Q 1259 2794 1537 2939 
Q 1816 3084 2150 3084 
Q 2853 3084 3261 2657 
Q 3669 2231 3669 1497 
Q 3669 778 3244 343 
Q 2819 -91 2113 -91 
Q 1303 -91 875 529 
Q 447 1150 447 2328 
Q 447 3434 972 4092 
Q 1497 4750 2381 4750 
Q 2619 4750 2861 4703 
Q 3103 4656 3366 4563 
z
" transform="scale(0.015625)"/>
       </defs>
       <use xlink:href="#DejaVuSans-30"/>
       <use xlink:href="#DejaVuSans-2e" x="63.623047"/>
       <use xlink:href="#DejaVuSans-36" x="95.410156"/>
      </g>
     </g>
    </g>
    <g id="ytick_5">
     <g id="line2d_12">
      <g>
       <use xlink:href="#m865d48af77" x="57.6" y="103.198552" style="stroke: #000000; stroke-width: 0.8"/>
      </g>
     </g>
     <g id="text_13">
      <!-- 0.8 -->
      <g transform="translate(34.696875 106.997771) scale(0.1 -0.1)">
       <defs>
        <path id="DejaVuSans-38" d="M 2034 2216 
Q 1584 2216 1326 1975 
Q 1069 1734 1069 1313 
Q 1069 891 1326 650 
Q 1584 409 2034 409 
Q 2484 409 2743 651 
Q 3003 894 3003 1313 
Q 3003 1734 2745 1975 
Q 2488 2216 2034 2216 
z
M 1403 2484 
Q 997 2584 770 2862 
Q 544 3141 544 3541 
Q 544 4100 942 4425 
Q 1341 4750 2034 4750 
Q 2731 4750 3128 4425 
Q 3525 4100 3525 3541 
Q 3525 3141 3298 2862 
Q 3072 2584 2669 2484 
Q 3125 2378 3379 2068 
Q 3634 1759 3634 1313 
Q 3634 634 3220 271 
Q 2806 -91 2034 -91 
Q 1263 -91 848 271 
Q 434 634 434 1313 
Q 434 1759 690 2068 
Q 947 2378 1403 2484 
z
M 1172 3481 
Q 1172 3119 1398 2916 
Q 1625 2713 2034 2713 
Q 2441 2713 2670 2916 
Q 2900 3119 2900 3481 
Q 2900 3844 2670 4047 
Q 2441 4250 2034 4250 
Q 1625 4250 1398 4047 
Q 1172 3844 1172 3481 
z
" transform="scale(0.015625)"/>
       </defs>
       <use xlink:href="#DejaVuSans-30"/>
       <use xlink:href="#DejaVuSans-2e" x="63.623047"/>
       <use xlink:href="#DejaVuSans-38" x="95.410156"/>
      </g>
     </g>
    </g>
    <g id="ytick_6">
     <g id="line2d_13">
      <g>
       <use xlink:href="#m865d48af77" x="57.6" y="55.128724" style="stroke: #000000; stroke-width: 0.8"/>
      </g>
     </g>
     <g id="text_14">
      <!-- 1.0 -->
      <g transform="translate(34.696875 58.927942) scale(0.1 -0.1)">
       <use xlink:href="#DejaVuSans-31"/>
       <use xlink:href="#DejaVuSans-2e" x="63.623047"/>
       <use xlink:href="#DejaVuSans-30" x="95.410156"/>
      </g>
     </g>
    </g>
    <g id="text_15">
     <!-- Autocorrelación normalizada -->
     <g transform="translate(28.20125 260.506125) rotate(-90) scale(0.12 -0.12)">
      <defs>
       <path id="DejaVuSans-41" d="M 2188 4044 
L 1331 1722 
L 3047 1722 
L 2188 4044 
z
M 1831 4666 
L 2547 4666 
L 4325 0 
L 3669 0 
L 3244 1197 
L 1141 1197 
L 716 0 
L 50 0 
L 1831 4666 
z
" transform="scale(0.015625)"/>
       <path id="DejaVuSans-75" d="M 544 1381 
L 544 3500 
L 1119 3500 
L 1119 1403 
Q 1119 906 1312 657 
Q 1506 409 1894 409 
Q 2359 409 2629 706 
Q 2900 1003 2900 1516 
L 2900 3500 
L 3475 3500 
L 3475 0 
L 2900 0 
L 2900 538 
Q 2691 219 2414 64 
Q 2138 -91 1772 -91 
Q 1169 -91 856 284 
Q 544 659 544 1381 
z
M 1991 3584 
L 1991 3584 
z
" transform="scale(0.015625)"/>
       <path id="DejaVuSans-63" d="M 3122 3366 
L 3122 2828 
Q 2878 2963 2633 3030 
Q 2388 3097 2138 3097 
Q 1578 3097 1268 2742 
Q 959 2388 959 1747 
Q 959 1106 1268 751 
Q 1578 397 2138 397 
Q 2388 397 2633 464 
Q 2878 531 3122 666 
L 3122 134 
Q 2881 22 2623 -34 
Q 2366 -91 2075 -91 
Q 1284 -91 818 406 
Q 353 903 353 1747 
Q 353 2603 823 3093 
Q 1294 3584 2113 3584 
Q 2378 3584 2631 3529 
Q 2884 3475 3122 3366 
z
" transform="scale(0.015625)"/>
       <path id="DejaVuSans-6c" d="M 603 4863 
L 1178 4863 
L 1178 0 
L 603 0 
L 603 4863 
z
" transform="scale(0.015625)"/>
       <path id="DejaVuSans-f3" d="M 1959 3097 
Q 1497 3097 1228 2736 
Q 959 2375 959 1747 
Q 959 1119 1226 758 
Q 1494 397 1959 397 
Q 2419 397 2687 759 
Q 2956 1122 2956 1747 
Q 2956 2369 2687 2733 
Q 2419 3097 1959 3097 
z
M 1959 3584 
Q 2709 3584 3137 3096 
Q 3566 2609 3566 1747 
Q 3566 888 3137 398 
Q 2709 -91 1959 -91 
Q 1206 -91 779 398 
Q 353 888 353 1747 
Q 353 2609 779 3096 
Q 1206 3584 1959 3584 
z
M 2394 5119 
L 3016 5119 
L 1997 3944 
L 1519 3944 
L 2394 5119 
z
" transform="scale(0.015625)"/>
       <path id="DejaVuSans-7a" d="M 353 3500 
L 3084 3500 
L 3084 2975 
L 922 459 
L 3084 459 
L 3084 0 
L 275 0 
L 275 525 
L 2438 3041 
L 353 3041 
L 353 3500 
z
" transform="scale(0.015625)"/>
      </defs>
      <use xlink:href="#DejaVuSans-41"/>
      <use xlink:href="#DejaVuSans-75" x="68.408203"/>
      <use xlink:href="#DejaVuSans-74" x="131.787109"/>
      <use xlink:href="#DejaVuSans-6f" x="170.996094"/>
      <use xlink:href="#DejaVuSans-63" x="232.177734"/>
      <use xlink:href="#DejaVuSans-6f" x="287.158203"/>
      <use xlink:href="#DejaVuSans-72" x="348.339844"/>
      <use xlink:href="#DejaVuSans-72" x="387.703125"/>
      <use xlink:href="#DejaVuSans-65" x="426.566406"/>
      <use xlink:href="#DejaVuSans-6c" x="488.089844"/>
      <use xlink:href="#DejaVuSans-61" x="515.873047"/>
      <use xlink:href="#DejaVuSans-63" x="577.152344"/>
      <use xlink:href="#DejaVuSans-69" x="632.132812"/>
      <use xlink:href="#DejaVuSans-f3" x="659.916016"/>
      <use xlink:href="#DejaVuSans-6e" x="721.097656"/>
      <use xlink:href="#DejaVuSans-20" x="784.476562"/>
      <use xlink:href="#DejaVuSans-6e" x="816.263672"/>
      <use xlink:href="#DejaVuSans-6f" x="879.642578"/>
      <use xlink:href="#DejaVuSans-72" x="940.824219"/>
      <use xlink:href="#DejaVuSans-6d" x="980.1875"/>
      <use xlink:href="#DejaVuSans-61" x="1077.599609"/>
      <use xlink:href="#DejaVuSans-6c" x="1138.878906"/>
      <use xlink:href="#DejaVuSans-69" x="1166.662109"/>
      <use xlink:href="#DejaVuSans-7a" x="1194.445312"/>
      <use xlink:href="#DejaVuSans-61" x="1246.935547"/>
      <use xlink:href="#DejaVuSans-64" x="1308.214844"/>
      <use xlink:href="#DejaVuSans-61" x="1371.691406"/>
     </g>
    </g>
   </g>
   <g id="line2d_14">
    <path d="M -1 290.655513 
L 4.032 290.719979 
L 21.888 291.259017 
L 39.744 292.212943 
L 57.6 292.876701 
L 75.456 292.839871 
L 93.312 290.896219 
L 111.168 287.728329 
L 129.024 287.337333 
L 146.88 281.536295 
L 164.736 257.531995 
L 182.592 207.317017 
L 200.448 148.115811 
L 218.304 91.43142 
L 236.16 53.568 
L 254.016 91.43142 
L 271.872 148.115811 
L 289.728 207.317017 
L 307.584 257.531995 
L 325.44 281.536295 
L 343.296 287.337333 
L 361.152 287.728329 
L 379.008 290.896219 
L 396.864 292.839871 
L 414.72 292.876701 
L 432.576 292.212943 
L 450.432 291.259017 
L 461.8 290.915839 
" clip-path="url(#p0a50d92624)" style="fill: none; stroke: #1f77b4; stroke-opacity: 0.1; stroke-width: 4; stroke-linecap: square"/>
   </g>
   <g id="line2d_15">
    <path d="M -1 293.449492 
L 4.032 293.242246 
L 21.888 292.642381 
L 39.744 292.271066 
L 57.6 292.543403 
L 75.456 292.489802 
L 93.312 290.24352 
L 111.168 285.926678 
L 129.024 285.791131 
L 146.88 280.300856 
L 164.736 256.467289 
L 182.592 207.913562 
L 200.448 149.356966 
L 218.304 92.665369 
L 236.16 53.984369 
L 254.016 92.665369 
L 271.872 149.356966 
L 289.728 207.913562 
L 307.584 256.467289 
L 325.44 280.300856 
L 343.296 285.791131 
L 361.152 285.926678 
L 379.008 290.24352 
L 396.864 292.489802 
L 414.72 292.543403 
L 432.576 292.271066 
L 450.432 292.642381 
L 461.8 293.024285 
" clip-path="url(#p0a50d92624)" style="fill: none; stroke: #1f77b4; stroke-opacity: 0.1; stroke-width: 4; stroke-linecap: square"/>
   </g>
   <g id="line2d_16">
    <path d="M -1 291.895805 
L 4.032 291.84521 
L 21.888 291.60337 
L 39.744 291.874191 
L 57.6 291.603745 
L 75.456 290.845163 
L 93.312 288.417307 
L 111.168 282.731708 
L 129.024 283.35819 
L 146.88 279.961767 
L 164.736 257.466619 
L 182.592 210.139167 
L 200.448 151.219408 
L 218.304 93.491546 
L 236.16 54.116482 
L 254.016 93.491546 
L 271.872 151.219408 
L 289.728 210.139167 
L 307.584 257.466619 
L 325.44 279.961767 
L 343.296 283.35819 
L 361.152 282.731708 
L 379.008 288.417307 
L 396.864 290.845163 
L 414.72 291.603745 
L 432.576 291.874191 
L 450.432 291.60337 
L 461.8 291.757337 
" clip-path="url(#p0a50d92624)" style="fill: none; stroke: #1f77b4; stroke-opacity: 0.1; stroke-width: 4; stroke-linecap: square"/>
   </g>
   <g id="line2d_17">
    <path d="M -1 293.083671 
L 4.032 293.519161 
L 21.888 294.634297 
L 39.744 294.94049 
L 57.6 294.956391 
L 75.456 294.386647 
L 93.312 291.791441 
L 111.168 286.482126 
L 129.024 285.220359 
L 146.88 280.617737 
L 164.736 258.14416 
L 182.592 209.55719 
L 200.448 150.731338 
L 218.304 93.31389 
L 236.16 54.167798 
L 254.016 93.31389 
L 271.872 150.731338 
L 289.728 209.55719 
L 307.584 258.14416 
L 325.44 280.617737 
L 343.296 285.220359 
L 361.152 286.482126 
L 379.008 291.791441 
L 396.864 294.386647 
L 414.72 294.956391 
L 432.576 294.94049 
L 450.432 294.634297 
L 461.8 293.924347 
" clip-path="url(#p0a50d92624)" style="fill: none; stroke: #1f77b4; stroke-opacity: 0.1; stroke-width: 4; stroke-linecap: square"/>
   </g>
   <g id="line2d_18">
    <path d="M -1 291.919702 
L 4.032 292.25149 
L 21.888 293.389927 
L 39.744 294.224813 
L 57.6 294.4545 
L 75.456 293.843114 
L 93.312 291.416669 
L 111.168 287.172307 
L 129.024 286.861463 
L 146.88 281.882144 
L 164.736 257.886727 
L 182.592 208.685314 
L 200.448 149.258361 
L 218.304 91.79772 
L 236.16 54.132155 
L 254.016 91.79772 
L 271.872 149.258361 
L 289.728 208.685314 
L 307.584 257.886727 
L 325.44 281.882144 
L 343.296 286.861463 
L 361.152 287.172307 
L 379.008 291.416669 
L 396.864 293.843114 
L 414.72 294.4545 
L 432.576 294.224813 
L 450.432 293.389927 
L 461.8 292.665143 
" clip-path="url(#p0a50d92624)" style="fill: none; stroke: #1f77b4; stroke-opacity: 0.1; stroke-width: 4; stroke-linecap: square"/>
   </g>
   <g id="line2d_19">
    <path d="M -1 291.270498 
L 4.032 290.941169 
L 21.888 290.73942 
L 39.744 290.703099 
L 57.6 290.726219 
L 75.456 290.525918 
L 93.312 288.371562 
L 111.168 284.508187 
L 129.024 284.6598 
L 146.88 279.530354 
L 164.736 255.914477 
L 182.592 206.664428 
L 200.448 148.200463 
L 218.304 91.884248 
L 236.16 53.74269 
L 254.016 91.884248 
L 271.872 148.200463 
L 289.728 206.664428 
L 307.584 255.914477 
L 325.44 279.530354 
L 343.296 284.6598 
L 361.152 284.508187 
L 379.008 288.371562 
L 396.864 290.525918 
L 414.72 290.726219 
L 432.576 290.703099 
L 450.432 290.73942 
L 461.8 290.867863 
" clip-path="url(#p0a50d92624)" style="fill: none; stroke: #1f77b4; stroke-opacity: 0.1; stroke-width: 4; stroke-linecap: square"/>
   </g>
   <g id="line2d_20">
    <path d="M -1 294.524473 
L 4.032 294.690947 
L 21.888 295.059532 
L 39.744 295.063616 
L 57.6 294.49816 
L 75.456 293.545377 
L 93.312 290.73144 
L 111.168 285.452558 
L 129.024 285.378728 
L 146.88 281.3847 
L 164.736 258.304668 
L 182.592 209.374126 
L 200.448 150.036961 
L 218.304 92.445438 
L 236.16 53.76183 
L 254.016 92.445438 
L 271.872 150.036961 
L 289.728 209.374126 
L 307.584 258.304668 
L 325.44 281.3847 
L 343.296 285.378728 
L 361.152 285.452558 
L 379.008 290.73144 
L 396.864 293.545377 
L 414.72 294.49816 
L 432.576 295.063616 
L 450.432 295.059532 
L 461.8 294.824873 
" clip-path="url(#p0a50d92624)" style="fill: none; stroke: #1f77b4; stroke-opacity: 0.1; stroke-width: 4; stroke-linecap: square"/>
   </g>
   <g id="line2d_21">
    <path d="M -1 291.740654 
L 4.032 291.596261 
L 21.888 292.205134 
L 39.744 293.095632 
L 57.6 293.731688 
L 75.456 293.919429 
L 93.312 291.864828 
L 111.168 287.221184 
L 129.024 286.773208 
L 146.88 282.051798 
L 164.736 258.395995 
L 182.592 208.956783 
L 200.448 149.856841 
L 218.304 92.769232 
L 236.16 54.17201 
L 254.016 92.769232 
L 271.872 149.856841 
L 289.728 208.956783 
L 307.584 258.395995 
L 325.44 282.051798 
L 343.296 286.773208 
L 361.152 287.221184 
L 379.008 291.864828 
L 396.864 293.919429 
L 414.72 293.731688 
L 432.576 293.095632 
L 450.432 292.205134 
L 461.8 291.817496 
" clip-path="url(#p0a50d92624)" style="fill: none; stroke: #1f77b4; stroke-opacity: 0.1; stroke-width: 4; stroke-linecap: square"/>
   </g>
   <g id="line2d_22">
    <path d="M -1 294.906525 
L 4.032 294.959879 
L 21.888 294.954453 
L 39.744 294.433973 
L 57.6 293.177574 
L 75.456 291.497731 
L 93.312 287.862327 
L 111.168 282.8265 
L 129.024 283.239532 
L 146.88 278.514103 
L 164.736 255.081499 
L 182.592 207.337653 
L 200.448 148.729018 
L 218.304 91.488022 
L 236.16 54.145707 
L 254.016 91.488022 
L 271.872 148.729018 
L 289.728 207.337653 
L 307.584 255.081499 
L 325.44 278.514103 
L 343.296 283.239532 
L 361.152 282.8265 
L 379.008 287.862327 
L 396.864 291.497731 
L 414.72 293.177574 
L 432.576 294.433973 
L 450.432 294.954453 
L 461.8 294.957908 
" clip-path="url(#p0a50d92624)" style="fill: none; stroke: #1f77b4; stroke-opacity: 0.1; stroke-width: 4; stroke-linecap: square"/>
   </g>
   <g id="line2d_23">
    <path d="M -1 291.632316 
L 4.032 291.720814 
L 21.888 292.679901 
L 39.744 293.610319 
L 57.6 294.065269 
L 75.456 293.928022 
L 93.312 291.475585 
L 111.168 287.046236 
L 129.024 286.734598 
L 146.88 281.903829 
L 164.736 257.87657 
L 182.592 208.883685 
L 200.448 149.717192 
L 218.304 92.342062 
L 236.16 53.806441 
L 254.016 92.342062 
L 271.872 149.717192 
L 289.728 208.883685 
L 307.584 257.87657 
L 325.44 281.903829 
L 343.296 286.734598 
L 361.152 287.046236 
L 379.008 291.475585 
L 396.864 293.928022 
L 414.72 294.065269 
L 432.576 293.610319 
L 450.432 292.679901 
L 461.8 292.0693 
" clip-path="url(#p0a50d92624)" style="fill: none; stroke: #1f77b4; stroke-opacity: 0.1; stroke-width: 4; stroke-linecap: square"/>
   </g>
   <g id="line2d_24">
    <path d="M -1 295.0127 
L 4.032 295.018717 
L 21.888 295.116739 
L 39.744 295.187842 
L 57.6 294.932569 
L 75.456 294.310933 
L 93.312 291.555494 
L 111.168 287.547356 
L 129.024 287.238818 
L 146.88 281.832259 
L 164.736 258.830744 
L 182.592 209.560664 
L 200.448 149.518935 
L 218.304 91.520442 
L 236.16 53.895863 
L 254.016 91.520442 
L 271.872 149.518935 
L 289.728 209.560664 
L 307.584 258.830744 
L 325.44 281.832259 
L 343.296 287.238818 
L 361.152 287.547356 
L 379.008 291.555494 
L 396.864 294.310933 
L 414.72 294.932569 
L 432.576 295.187842 
L 450.432 295.116739 
L 461.8 295.054334 
" clip-path="url(#p0a50d92624)" style="fill: none; stroke: #1f77b4; stroke-opacity: 0.1; stroke-width: 4; stroke-linecap: square"/>
   </g>
   <g id="line2d_25">
    <path d="M -1 295.245698 
L 4.032 295.235073 
L 21.888 295.245871 
L 39.744 295.277848 
L 57.6 295.009255 
L 75.456 294.357177 
L 93.312 291.525914 
L 111.168 286.169136 
L 129.024 285.626307 
L 146.88 280.801334 
L 164.736 258.313353 
L 182.592 210.533373 
L 200.448 150.783843 
L 218.304 93.143096 
L 236.16 54.194043 
L 254.016 93.143096 
L 271.872 150.783843 
L 289.728 210.533373 
L 307.584 258.313353 
L 325.44 280.801334 
L 343.296 285.626307 
L 361.152 286.169136 
L 379.008 291.525914 
L 396.864 294.357177 
L 414.72 295.009255 
L 432.576 295.277848 
L 450.432 295.245871 
L 461.8 295.238996 
" clip-path="url(#p0a50d92624)" style="fill: none; stroke: #1f77b4; stroke-opacity: 0.1; stroke-width: 4; stroke-linecap: square"/>
   </g>
   <g id="line2d_26">
    <path d="M -1 291.344626 
L 4.032 291.68306 
L 21.888 292.490823 
L 39.744 292.660697 
L 57.6 291.992399 
L 75.456 290.778087 
L 93.312 286.769762 
L 111.168 282.472325 
L 129.024 283.165127 
L 146.88 278.200772 
L 164.736 254.366177 
L 182.592 206.828159 
L 200.448 148.238656 
L 218.304 91.595352 
L 236.16 54.054107 
L 254.016 91.595352 
L 271.872 148.238656 
L 289.728 206.828159 
L 307.584 254.366177 
L 325.44 278.200772 
L 343.296 283.165127 
L 361.152 282.472325 
L 379.008 286.769762 
L 396.864 290.778087 
L 414.72 291.992399 
L 432.576 292.660697 
L 450.432 292.490823 
L 461.8 291.976561 
" clip-path="url(#p0a50d92624)" style="fill: none; stroke: #1f77b4; stroke-opacity: 0.1; stroke-width: 4; stroke-linecap: square"/>
   </g>
   <g id="line2d_27">
    <path d="M -1 291.173754 
L 4.032 290.9359 
L 21.888 290.268299 
L 39.744 290.362916 
L 57.6 290.507051 
L 75.456 290.285098 
L 93.312 287.454697 
L 111.168 282.551733 
L 129.024 282.864867 
L 146.88 277.218479 
L 164.736 253.076923 
L 182.592 206.079679 
L 200.448 147.358328 
L 218.304 90.626934 
L 236.16 54.279913 
L 254.016 90.626934 
L 271.872 147.358328 
L 289.728 206.079679 
L 307.584 253.076923 
L 325.44 277.218479 
L 343.296 282.864867 
L 361.152 282.551733 
L 379.008 287.454697 
L 396.864 290.285098 
L 414.72 290.507051 
L 432.576 290.362916 
L 450.432 290.268299 
L 461.8 290.693326 
" clip-path="url(#p0a50d92624)" style="fill: none; stroke: #1f77b4; stroke-opacity: 0.1; stroke-width: 4; stroke-linecap: square"/>
   </g>
   <g id="line2d_28">
    <path d="M -1 294.509975 
L 4.032 294.460867 
L 21.888 294.509418 
L 39.744 294.667565 
L 57.6 294.463952 
L 75.456 293.808339 
L 93.312 290.87189 
L 111.168 286.661246 
L 129.024 286.305603 
L 146.88 281.07842 
L 164.736 257.620723 
L 182.592 208.259161 
L 200.448 149.028516 
L 218.304 91.6076 
L 236.16 53.954943 
L 254.016 91.6076 
L 271.872 149.028516 
L 289.728 208.259161 
L 307.584 257.620723 
L 325.44 281.07842 
L 343.296 286.305603 
L 361.152 286.661246 
L 379.008 290.87189 
L 396.864 293.808339 
L 414.72 294.463952 
L 432.576 294.667565 
L 450.432 294.509418 
L 461.8 294.478508 
" clip-path="url(#p0a50d92624)" style="fill: none; stroke: #1f77b4; stroke-opacity: 0.1; stroke-width: 4; stroke-linecap: square"/>
   </g>
   <g id="line2d_29">
    <path d="M -1 295.322045 
L 4.032 295.315767 
L 21.888 295.343662 
L 39.744 295.252106 
L 57.6 294.796707 
L 75.456 293.789734 
L 93.312 290.623177 
L 111.168 286.426232 
L 129.024 286.250465 
L 146.88 280.636196 
L 164.736 257.105534 
L 182.592 208.43282 
L 200.448 149.523047 
L 218.304 92.576219 
L 236.16 54.42088 
L 254.016 92.576219 
L 271.872 149.523047 
L 289.728 208.43282 
L 307.584 257.105534 
L 325.44 280.636196 
L 343.296 286.250465 
L 361.152 286.426232 
L 379.008 290.623177 
L 396.864 293.789734 
L 414.72 294.796707 
L 432.576 295.252106 
L 450.432 295.343662 
L 461.8 295.325902 
" clip-path="url(#p0a50d92624)" style="fill: none; stroke: #1f77b4; stroke-opacity: 0.1; stroke-width: 4; stroke-linecap: square"/>
   </g>
   <g id="line2d_30">
    <path d="M -1 295.382915 
L 4.032 295.366545 
L 21.888 295.343246 
L 39.744 295.275432 
L 57.6 294.709936 
L 75.456 293.538976 
L 93.312 290.297835 
L 111.168 285.367415 
L 129.024 284.42277 
L 146.88 278.213476 
L 164.736 253.525915 
L 182.592 205.853165 
L 200.448 147.648227 
L 218.304 91.439758 
L 236.16 54.025312 
L 254.016 91.439758 
L 271.872 147.648227 
L 289.728 205.853165 
L 307.584 253.525915 
L 325.44 278.213476 
L 343.296 284.42277 
L 361.152 285.367415 
L 379.008 290.297835 
L 396.864 293.538976 
L 414.72 294.709936 
L 432.576 295.275432 
L 450.432 295.343246 
L 461.8 295.358079 
" clip-path="url(#p0a50d92624)" style="fill: none; stroke: #1f77b4; stroke-opacity: 0.1; stroke-width: 4; stroke-linecap: square"/>
   </g>
   <g id="line2d_31">
    <path d="M -1 292.20345 
L 4.032 292.07433 
L 21.888 291.724279 
L 39.744 291.621595 
L 57.6 291.104567 
L 75.456 290.449451 
L 93.312 288.716532 
L 111.168 284.498886 
L 129.024 284.892789 
L 146.88 280.372253 
L 164.736 256.197972 
L 182.592 207.131639 
L 200.448 148.67362 
L 218.304 92.103277 
L 236.16 53.713924 
L 254.016 92.103277 
L 271.872 148.67362 
L 289.728 207.131639 
L 307.584 256.197972 
L 325.44 280.372253 
L 343.296 284.892789 
L 361.152 284.498886 
L 379.008 288.716532 
L 396.864 290.449451 
L 414.72 291.104567 
L 432.576 291.621595 
L 450.432 291.724279 
L 461.8 291.947138 
" clip-path="url(#p0a50d92624)" style="fill: none; stroke: #1f77b4; stroke-opacity: 0.1; stroke-width: 4; stroke-linecap: square"/>
   </g>
   <g id="line2d_32">
    <path d="M -1 295.024561 
L 4.032 295.007582 
L 21.888 294.994955 
L 39.744 295.045015 
L 57.6 294.633161 
L 75.456 293.533839 
L 93.312 289.467369 
L 111.168 283.994701 
L 129.024 282.979421 
L 146.88 277.355526 
L 164.736 254.368609 
L 182.592 207.270507 
L 200.448 148.799745 
L 218.304 92.337707 
L 236.16 54.076971 
L 254.016 92.337707 
L 271.872 148.799745 
L 289.728 207.270507 
L 307.584 254.368609 
L 325.44 277.355526 
L 343.296 282.979421 
L 361.152 283.994701 
L 379.008 289.467369 
L 396.864 293.533839 
L 414.72 294.633161 
L 432.576 295.045015 
L 450.432 294.994955 
L 461.8 295.002994 
" clip-path="url(#p0a50d92624)" style="fill: none; stroke: #1f77b4; stroke-opacity: 0.1; stroke-width: 4; stroke-linecap: square"/>
   </g>
   <g id="line2d_33">
    <path d="M -1 292.704015 
L 4.032 292.721204 
L 21.888 293.305077 
L 39.744 293.992343 
L 57.6 294.425409 
L 75.456 294.16673 
L 93.312 291.513705 
L 111.168 286.829891 
L 129.024 286.353553 
L 146.88 280.955826 
L 164.736 256.220607 
L 182.592 206.780181 
L 200.448 148.642719 
L 218.304 91.940435 
L 236.16 53.743006 
L 254.016 91.940435 
L 271.872 148.642719 
L 289.728 206.780181 
L 307.584 256.220607 
L 325.44 280.955826 
L 343.296 286.353553 
L 361.152 286.829891 
L 379.008 291.513705 
L 396.864 294.16673 
L 414.72 294.425409 
L 432.576 293.992343 
L 450.432 293.305077 
L 461.8 292.933355 
" clip-path="url(#p0a50d92624)" style="fill: none; stroke: #1f77b4; stroke-opacity: 0.1; stroke-width: 4; stroke-linecap: square"/>
   </g>
   <g id="line2d_34">
    <path d="M -1 295.226134 
L 4.032 295.226977 
L 21.888 295.258229 
L 39.744 295.243671 
L 57.6 294.406709 
L 75.456 293.123221 
L 93.312 289.946981 
L 111.168 284.355353 
L 129.024 284.14495 
L 146.88 279.957442 
L 164.736 257.148856 
L 182.592 209.015305 
L 200.448 150.84914 
L 218.304 93.542746 
L 236.16 54.163156 
L 254.016 93.542746 
L 271.872 150.84914 
L 289.728 209.015305 
L 307.584 257.148856 
L 325.44 279.957442 
L 343.296 284.14495 
L 361.152 284.355353 
L 379.008 289.946981 
L 396.864 293.123221 
L 414.72 294.406709 
L 432.576 295.243671 
L 450.432 295.258229 
L 461.8 295.238332 
" clip-path="url(#p0a50d92624)" style="fill: none; stroke: #1f77b4; stroke-opacity: 0.1; stroke-width: 4; stroke-linecap: square"/>
   </g>
   <g id="line2d_35">
    <path d="M -1 294.310536 
L 4.032 294.356072 
L 21.888 294.123925 
L 39.744 293.937095 
L 57.6 293.709342 
L 75.456 293.427733 
L 93.312 291.481419 
L 111.168 287.171961 
L 129.024 286.201542 
L 146.88 280.255549 
L 164.736 256.10148 
L 182.592 207.208713 
L 200.448 148.641902 
L 218.304 91.927527 
L 236.16 53.93248 
L 254.016 91.927527 
L 271.872 148.641902 
L 289.728 207.208713 
L 307.584 256.10148 
L 325.44 280.255549 
L 343.296 286.201542 
L 361.152 287.171961 
L 379.008 291.481419 
L 396.864 293.427733 
L 414.72 293.709342 
L 432.576 293.937095 
L 450.432 294.123925 
L 461.8 294.271721 
" clip-path="url(#p0a50d92624)" style="fill: none; stroke: #1f77b4; stroke-opacity: 0.1; stroke-width: 4; stroke-linecap: square"/>
   </g>
   <g id="line2d_36">
    <path d="M -1 292.898061 
L 4.032 292.590392 
L 21.888 291.06419 
L 39.744 289.289397 
L 57.6 287.824982 
L 75.456 286.759177 
L 93.312 284.702923 
L 111.168 280.959212 
L 129.024 281.957655 
L 146.88 278.579521 
L 164.736 255.211639 
L 182.592 206.557155 
L 200.448 148.850359 
L 218.304 92.686156 
L 236.16 53.84492 
L 254.016 92.686156 
L 271.872 148.850359 
L 289.728 206.557155 
L 307.584 255.211639 
L 325.44 278.579521 
L 343.296 281.957655 
L 361.152 280.959212 
L 379.008 284.702923 
L 396.864 286.759177 
L 414.72 287.824982 
L 432.576 289.289397 
L 450.432 291.06419 
L 461.8 292.035845 
" clip-path="url(#p0a50d92624)" style="fill: none; stroke: #1f77b4; stroke-opacity: 0.1; stroke-width: 4; stroke-linecap: square"/>
   </g>
   <g id="line2d_37">
    <path d="M -1 293.335017 
L 4.032 293.06411 
L 21.888 292.110088 
L 39.744 291.753962 
L 57.6 291.621021 
L 75.456 291.26734 
L 93.312 289.428669 
L 111.168 285.433438 
L 129.024 285.744578 
L 146.88 281.228479 
L 164.736 258.094435 
L 182.592 209.801218 
L 200.448 150.260832 
L 218.304 92.90563 
L 236.16 54.207939 
L 254.016 92.90563 
L 271.872 150.260832 
L 289.728 209.801218 
L 307.584 258.094435 
L 325.44 281.228479 
L 343.296 285.744578 
L 361.152 285.433438 
L 379.008 289.428669 
L 396.864 291.26734 
L 414.72 291.621021 
L 432.576 291.753962 
L 450.432 292.110088 
L 461.8 292.717465 
" clip-path="url(#p0a50d92624)" style="fill: none; stroke: #1f77b4; stroke-opacity: 0.1; stroke-width: 4; stroke-linecap: square"/>
   </g>
   <g id="line2d_38">
    <path d="M -1 289.568882 
L 4.032 289.134967 
L 21.888 287.295412 
L 39.744 285.575016 
L 57.6 284.683366 
L 75.456 285.310232 
L 93.312 285.290313 
L 111.168 284.107476 
L 129.024 285.675894 
L 146.88 280.672703 
L 164.736 257.408986 
L 182.592 207.943418 
L 200.448 148.597463 
L 218.304 91.830383 
L 236.16 53.713781 
L 254.016 91.830383 
L 271.872 148.597463 
L 289.728 207.943418 
L 307.584 257.408986 
L 325.44 280.672703 
L 343.296 285.675894 
L 361.152 284.107476 
L 379.008 285.290313 
L 396.864 285.310232 
L 414.72 284.683366 
L 432.576 285.575016 
L 450.432 287.295412 
L 461.8 288.466562 
" clip-path="url(#p0a50d92624)" style="fill: none; stroke: #1f77b4; stroke-opacity: 0.1; stroke-width: 4; stroke-linecap: square"/>
   </g>
   <g id="line2d_39">
    <path d="M -1 295.100856 
L 4.032 295.083377 
L 21.888 295.144523 
L 39.744 295.266848 
L 57.6 294.991816 
L 75.456 294.396559 
L 93.312 291.503048 
L 111.168 286.617107 
L 129.024 286.357025 
L 146.88 281.109611 
L 164.736 257.542564 
L 182.592 209.299202 
L 200.448 149.128124 
L 218.304 91.346611 
L 236.16 53.844404 
L 254.016 91.346611 
L 271.872 149.128124 
L 289.728 209.299202 
L 307.584 257.542564 
L 325.44 281.109611 
L 343.296 286.357025 
L 361.152 286.617107 
L 379.008 291.503048 
L 396.864 294.396559 
L 414.72 294.991816 
L 432.576 295.266848 
L 450.432 295.144523 
L 461.8 295.105595 
" clip-path="url(#p0a50d92624)" style="fill: none; stroke: #1f77b4; stroke-opacity: 0.1; stroke-width: 4; stroke-linecap: square"/>
   </g>
   <g id="line2d_40">
    <path d="M -1 293.702763 
L 4.032 293.624684 
L 21.888 293.238577 
L 39.744 293.013769 
L 57.6 293.20033 
L 75.456 293.167315 
L 93.312 291.331602 
L 111.168 287.595912 
L 129.024 287.136274 
L 146.88 282.675942 
L 164.736 259.287222 
L 182.592 209.263115 
L 200.448 150.515461 
L 218.304 93.209712 
L 236.16 54.00941 
L 254.016 93.209712 
L 271.872 150.515461 
L 289.728 209.263115 
L 307.584 259.287222 
L 325.44 282.675942 
L 343.296 287.136274 
L 361.152 287.595912 
L 379.008 291.331602 
L 396.864 293.167315 
L 414.72 293.20033 
L 432.576 293.013769 
L 450.432 293.238577 
L 461.8 293.484392 
" clip-path="url(#p0a50d92624)" style="fill: none; stroke: #1f77b4; stroke-opacity: 0.1; stroke-width: 4; stroke-linecap: square"/>
   </g>
   <g id="line2d_41">
    <path d="M -1 293.259631 
L 4.032 293.570708 
L 21.888 294.390116 
L 39.744 294.470696 
L 57.6 293.726101 
L 75.456 292.223017 
L 93.312 288.990009 
L 111.168 283.550965 
L 129.024 283.379221 
L 146.88 278.513364 
L 164.736 254.277249 
L 182.592 206.153544 
L 200.448 148.977272 
L 218.304 92.769304 
L 236.16 53.96053 
L 254.016 92.769304 
L 271.872 148.977272 
L 289.728 206.153544 
L 307.584 254.277249 
L 325.44 278.513364 
L 343.296 283.379221 
L 361.152 283.550965 
L 379.008 288.990009 
L 396.864 292.223017 
L 414.72 293.726101 
L 432.576 294.470696 
L 450.432 294.390116 
L 461.8 293.868441 
" clip-path="url(#p0a50d92624)" style="fill: none; stroke: #1f77b4; stroke-opacity: 0.1; stroke-width: 4; stroke-linecap: square"/>
   </g>
   <g id="line2d_42">
    <path d="M -1 291.821857 
L 4.032 291.417722 
L 21.888 290.061655 
L 39.744 289.876421 
L 57.6 289.803628 
L 75.456 290.076874 
L 93.312 289.488543 
L 111.168 286.631735 
L 129.024 286.983838 
L 146.88 282.768979 
L 164.736 258.794324 
L 182.592 208.448256 
L 200.448 149.86207 
L 218.304 93.10178 
L 236.16 54.252034 
L 254.016 93.10178 
L 271.872 149.86207 
L 289.728 208.448256 
L 307.584 258.794324 
L 325.44 282.768979 
L 343.296 286.983838 
L 361.152 286.631735 
L 379.008 289.488543 
L 396.864 290.076874 
L 414.72 289.803628 
L 432.576 289.876421 
L 450.432 290.061655 
L 461.8 290.924993 
" clip-path="url(#p0a50d92624)" style="fill: none; stroke: #1f77b4; stroke-opacity: 0.1; stroke-width: 4; stroke-linecap: square"/>
   </g>
   <g id="line2d_43">
    <path d="M -1 290.907032 
L 4.032 290.708444 
L 21.888 290.695345 
L 39.744 290.784434 
L 57.6 291.129341 
L 75.456 290.787954 
L 93.312 288.352347 
L 111.168 283.827459 
L 129.024 283.455946 
L 146.88 279.227495 
L 164.736 256.684606 
L 182.592 208.229148 
L 200.448 149.353657 
L 218.304 92.005646 
L 236.16 53.681289 
L 254.016 92.005646 
L 271.872 149.353657 
L 289.728 208.229148 
L 307.584 256.684606 
L 325.44 279.227495 
L 343.296 283.455946 
L 361.152 283.827459 
L 379.008 288.352347 
L 396.864 290.787954 
L 414.72 291.129341 
L 432.576 290.784434 
L 450.432 290.695345 
L 461.8 290.703685 
" clip-path="url(#p0a50d92624)" style="fill: none; stroke: #1f77b4; stroke-opacity: 0.1; stroke-width: 4; stroke-linecap: square"/>
   </g>
   <g id="line2d_44">
    <path d="M -1 294.13043 
L 4.032 294.072907 
L 21.888 293.658593 
L 39.744 293.147398 
L 57.6 292.428065 
L 75.456 291.447065 
L 93.312 288.580966 
L 111.168 284.053008 
L 129.024 283.363691 
L 146.88 277.266695 
L 164.736 252.645236 
L 182.592 204.993831 
L 200.448 146.884827 
L 218.304 90.672017 
L 236.16 53.800424 
L 254.016 90.672017 
L 271.872 146.884827 
L 289.728 204.993831 
L 307.584 252.645236 
L 325.44 277.266695 
L 343.296 283.363691 
L 361.152 284.053008 
L 379.008 288.580966 
L 396.864 291.447065 
L 414.72 292.428065 
L 432.576 293.147398 
L 450.432 293.658593 
L 461.8 293.922366 
" clip-path="url(#p0a50d92624)" style="fill: none; stroke: #1f77b4; stroke-opacity: 0.1; stroke-width: 4; stroke-linecap: square"/>
   </g>
   <g id="line2d_45">
    <path d="M -1 294.281059 
L 4.032 294.236446 
L 21.888 294.217258 
L 39.744 294.039543 
L 57.6 293.160957 
L 75.456 291.777641 
L 93.312 288.58329 
L 111.168 283.872733 
L 129.024 284.065119 
L 146.88 280.106238 
L 164.736 257.997377 
L 182.592 209.491613 
L 200.448 150.532452 
L 218.304 92.520004 
L 236.16 53.824549 
L 254.016 92.520004 
L 271.872 150.532452 
L 289.728 209.491613 
L 307.584 257.997377 
L 325.44 280.106238 
L 343.296 284.065119 
L 361.152 283.872733 
L 379.008 288.58329 
L 396.864 291.777641 
L 414.72 293.160957 
L 432.576 294.039543 
L 450.432 294.217258 
L 461.8 294.229474 
" clip-path="url(#p0a50d92624)" style="fill: none; stroke: #1f77b4; stroke-opacity: 0.1; stroke-width: 4; stroke-linecap: square"/>
   </g>
   <g id="line2d_46">
    <path d="M -1 294.987444 
L 4.032 294.97824 
L 21.888 294.931484 
L 39.744 294.984412 
L 57.6 294.309904 
L 75.456 292.291155 
L 93.312 287.799331 
L 111.168 281.068714 
L 129.024 279.561576 
L 146.88 275.498724 
L 164.736 252.878143 
L 182.592 206.214579 
L 200.448 148.978805 
L 218.304 92.513629 
L 236.16 53.665359 
L 254.016 92.513629 
L 271.872 148.978805 
L 289.728 206.214579 
L 307.584 252.878143 
L 325.44 275.498724 
L 343.296 279.561576 
L 361.152 281.068714 
L 379.008 287.799331 
L 396.864 292.291155 
L 414.72 294.309904 
L 432.576 294.984412 
L 450.432 294.931484 
L 461.8 294.961251 
" clip-path="url(#p0a50d92624)" style="fill: none; stroke: #1f77b4; stroke-opacity: 0.1; stroke-width: 4; stroke-linecap: square"/>
   </g>
   <g id="line2d_47">
    <path d="M -1 290.229791 
L 4.032 290.142143 
L 21.888 290.289802 
L 39.744 290.944169 
L 57.6 291.941723 
L 75.456 292.454355 
L 93.312 290.807889 
L 111.168 286.768836 
L 129.024 286.761309 
L 146.88 281.719092 
L 164.736 258.644385 
L 182.592 209.496685 
L 200.448 150.258483 
L 218.304 93.025136 
L 236.16 53.971819 
L 254.016 93.025136 
L 271.872 150.258483 
L 289.728 209.496685 
L 307.584 258.644385 
L 325.44 281.719092 
L 343.296 286.761309 
L 361.152 286.768836 
L 379.008 290.807889 
L 396.864 292.454355 
L 414.72 291.941723 
L 432.576 290.944169 
L 450.432 290.289802 
L 461.8 290.195795 
" clip-path="url(#p0a50d92624)" style="fill: none; stroke: #1f77b4; stroke-opacity: 0.1; stroke-width: 4; stroke-linecap: square"/>
   </g>
   <g id="line2d_48">
    <path d="M -1 289.628207 
L 4.032 289.083031 
L 21.888 287.263652 
L 39.744 286.26855 
L 57.6 286.901657 
L 75.456 287.906731 
L 93.312 287.175106 
L 111.168 283.01794 
L 129.024 283.412335 
L 146.88 278.274239 
L 164.736 253.233007 
L 182.592 205.336214 
L 200.448 147.958097 
L 218.304 91.852731 
L 236.16 53.859131 
L 254.016 91.852731 
L 271.872 147.958097 
L 289.728 205.336214 
L 307.584 253.233007 
L 325.44 278.274239 
L 343.296 283.412335 
L 361.152 283.01794 
L 379.008 287.175106 
L 396.864 287.906731 
L 414.72 286.901657 
L 432.576 286.26855 
L 450.432 287.263652 
L 461.8 288.421958 
" clip-path="url(#p0a50d92624)" style="fill: none; stroke: #1f77b4; stroke-opacity: 0.1; stroke-width: 4; stroke-linecap: square"/>
   </g>
   <g id="line2d_49">
    <path d="M -1 291.400218 
L 4.032 291.197422 
L 21.888 291.101596 
L 39.744 291.303326 
L 57.6 291.542461 
L 75.456 291.694369 
L 93.312 290.040415 
L 111.168 286.452071 
L 129.024 285.986134 
L 146.88 280.404456 
L 164.736 255.645808 
L 182.592 207.159424 
L 200.448 148.461424 
L 218.304 91.467049 
L 236.16 53.943024 
L 254.016 91.467049 
L 271.872 148.461424 
L 289.728 207.159424 
L 307.584 255.645808 
L 325.44 280.404456 
L 343.296 285.986134 
L 361.152 286.452071 
L 379.008 290.040415 
L 396.864 291.694369 
L 414.72 291.542461 
L 432.576 291.303326 
L 450.432 291.101596 
L 461.8 291.162604 
" clip-path="url(#p0a50d92624)" style="fill: none; stroke: #1f77b4; stroke-opacity: 0.1; stroke-width: 4; stroke-linecap: square"/>
   </g>
   <g id="line2d_50">
    <path d="M -1 295.169353 
L 4.032 295.168309 
L 21.888 295.229588 
L 39.744 295.290978 
L 57.6 295.019209 
L 75.456 294.328098 
L 93.312 291.297489 
L 111.168 285.606461 
L 129.024 285.184829 
L 146.88 280.37726 
L 164.736 256.097483 
L 182.592 207.832843 
L 200.448 149.526098 
L 218.304 92.595072 
L 236.16 53.88701 
L 254.016 92.595072 
L 271.872 149.526098 
L 289.728 207.832843 
L 307.584 256.097483 
L 325.44 280.37726 
L 343.296 285.184829 
L 361.152 285.606461 
L 379.008 291.297489 
L 396.864 294.328098 
L 414.72 295.019209 
L 432.576 295.290978 
L 450.432 295.229588 
L 461.8 295.190575 
" clip-path="url(#p0a50d92624)" style="fill: none; stroke: #1f77b4; stroke-opacity: 0.1; stroke-width: 4; stroke-linecap: square"/>
   </g>
   <g id="line2d_51">
    <path d="M -1 294.313422 
L 4.032 294.460875 
L 21.888 294.715113 
L 39.744 294.830731 
L 57.6 294.695728 
L 75.456 294.162219 
L 93.312 291.303209 
L 111.168 287.211323 
L 129.024 286.752389 
L 146.88 280.778148 
L 164.736 256.026233 
L 182.592 206.57214 
L 200.448 147.506028 
L 218.304 90.647835 
L 236.16 53.786614 
L 254.016 90.647835 
L 271.872 147.506028 
L 289.728 206.57214 
L 307.584 256.026233 
L 325.44 280.778148 
L 343.296 286.752389 
L 361.152 287.211323 
L 379.008 291.303209 
L 396.864 294.162219 
L 414.72 294.695728 
L 432.576 294.830731 
L 450.432 294.715113 
L 461.8 294.553253 
" clip-path="url(#p0a50d92624)" style="fill: none; stroke: #1f77b4; stroke-opacity: 0.1; stroke-width: 4; stroke-linecap: square"/>
   </g>
   <g id="line2d_52">
    <path clip-path="url(#p0a50d92624)" style="fill: none; stroke: #1f77b4; stroke-width: 1.5; stroke-linecap: square"/>
   </g>
   <g id="line2d_53">
    <path d="M 146.88 280.859626 
L 149.382342 278.439998 
L 151.884685 275.706144 
L 154.387027 272.633305 
L 156.889369 269.197572 
L 159.391712 265.376466 
L 161.894054 261.149569 
L 164.396396 256.499207 
L 167.077477 251.030684 
L 169.758559 245.047645 
L 172.618378 238.092474 
L 175.478198 230.548366 
L 178.516757 221.903053 
L 181.734054 212.076982 
L 185.308829 200.418454 
L 189.241081 186.824081 
L 194.245766 168.662158 
L 208.187387 117.531149 
L 211.762162 105.56357 
L 214.800721 96.157799 
L 217.481802 88.578496 
L 219.805405 82.639278 
L 221.95027 77.732481 
L 223.916396 73.759203 
L 225.703784 70.609372 
L 227.491171 67.920858 
L 229.09982 65.910161 
L 230.52973 64.457203 
L 231.95964 63.325338 
L 233.210811 62.602159 
L 234.461982 62.130864 
L 235.713153 61.91299 
L 236.964324 61.949248 
L 238.215495 62.239518 
L 239.466667 62.782854 
L 240.717838 63.577487 
L 241.969009 64.620831 
L 243.398919 66.113392 
L 244.828829 67.920057 
L 246.437477 70.31851 
L 248.224865 73.422932 
L 250.012252 76.97049 
L 251.978378 81.357464 
L 254.123243 86.68392 
L 256.446847 93.036926 
L 259.127928 101.036684 
L 262.166486 110.840607 
L 265.741261 123.165781 
L 270.388468 140.045377 
L 284.33009 191.224645 
L 288.441081 205.167492 
L 292.015856 216.524583 
L 295.233153 226.049007 
L 298.271712 234.391909 
L 301.31027 242.076226 
L 304.17009 248.698388 
L 306.851171 254.371718 
L 309.532252 259.537086 
L 312.213333 264.210052 
L 314.715676 268.145216 
L 317.218018 271.688929 
L 319.72036 274.863147 
L 322.222703 277.691432 
L 324.725045 280.198357 
L 325.44 280.859096 
L 325.44 280.859096 
" clip-path="url(#p0a50d92624)" style="fill: none; stroke-dasharray: 7.4,3.2; stroke-dashoffset: 0; stroke: #000000; stroke-width: 2"/>
   </g>
   <g id="patch_3">
    <path d="M 57.6 307.584 
L 57.6 41.472 
" style="fill: none; stroke: #000000; stroke-width: 0.8; stroke-linejoin: miter; stroke-linecap: square"/>
   </g>
   <g id="patch_4">
    <path d="M 414.72 307.584 
L 414.72 41.472 
" style="fill: none; stroke: #000000; stroke-width: 0.8; stroke-linejoin: miter; stroke-linecap: square"/>
   </g>
   <g id="patch_5">
    <path d="M 57.6 307.584 
L 414.72 307.584 
" style="fill: none; stroke: #000000; stroke-width: 0.8; stroke-linejoin: miter; stroke-linecap: square"/>
   </g>
   <g id="patch_6">
    <path d="M 57.6 41.472 
L 414.72 41.472 
" style="fill: none; stroke: #000000; stroke-width: 0.8; stroke-linejoin: miter; stroke-linecap: square"/>
   </g>
   <g id="legend_1">
    <g id="patch_7">
     <path d="M 265.905 86.2995 
L 406.32 86.2995 
Q 408.72 86.2995 408.72 83.8995 
L 408.72 49.872 
Q 408.72 47.472 406.32 47.472 
L 265.905 47.472 
Q 263.505 47.472 263.505 49.872 
L 263.505 83.8995 
Q 263.505 86.2995 265.905 86.2995 
z
" style="fill: #ffffff; opacity: 0.8; stroke: #cccccc; stroke-linejoin: miter"/>
    </g>
    <g id="line2d_54">
     <path d="M 268.305 57.190125 
L 280.305 57.190125 
L 292.305 57.190125 
" style="fill: none; stroke: #1f77b4; stroke-width: 1.5; stroke-linecap: square"/>
    </g>
    <g id="text_16">
     <!-- Autocorrelación -->
     <g transform="translate(301.905 61.390125) scale(0.12 -0.12)">
      <use xlink:href="#DejaVuSans-41"/>
      <use xlink:href="#DejaVuSans-75" x="68.408203"/>
      <use xlink:href="#DejaVuSans-74" x="131.787109"/>
      <use xlink:href="#DejaVuSans-6f" x="170.996094"/>
      <use xlink:href="#DejaVuSans-63" x="232.177734"/>
      <use xlink:href="#DejaVuSans-6f" x="287.158203"/>
      <use xlink:href="#DejaVuSans-72" x="348.339844"/>
      <use xlink:href="#DejaVuSans-72" x="387.703125"/>
      <use xlink:href="#DejaVuSans-65" x="426.566406"/>
      <use xlink:href="#DejaVuSans-6c" x="488.089844"/>
      <use xlink:href="#DejaVuSans-61" x="515.873047"/>
      <use xlink:href="#DejaVuSans-63" x="577.152344"/>
      <use xlink:href="#DejaVuSans-69" x="632.132812"/>
      <use xlink:href="#DejaVuSans-f3" x="659.916016"/>
      <use xlink:href="#DejaVuSans-6e" x="721.097656"/>
     </g>
    </g>
    <g id="line2d_55">
     <path d="M 268.305 74.803875 
L 280.305 74.803875 
L 292.305 74.803875 
" style="fill: none; stroke-dasharray: 7.4,3.2; stroke-dashoffset: 0; stroke: #000000; stroke-width: 2"/>
    </g>
    <g id="text_17">
     <!-- Ajuste gaussiano -->
     <g transform="translate(301.905 79.003875) scale(0.12 -0.12)">
      <defs>
       <path id="DejaVuSans-6a" d="M 603 3500 
L 1178 3500 
L 1178 -63 
Q 1178 -731 923 -1031 
Q 669 -1331 103 -1331 
L -116 -1331 
L -116 -844 
L 38 -844 
Q 366 -844 484 -692 
Q 603 -541 603 -63 
L 603 3500 
z
M 603 4863 
L 1178 4863 
L 1178 4134 
L 603 4134 
L 603 4863 
z
" transform="scale(0.015625)"/>
       <path id="DejaVuSans-67" d="M 2906 1791 
Q 2906 2416 2648 2759 
Q 2391 3103 1925 3103 
Q 1463 3103 1205 2759 
Q 947 2416 947 1791 
Q 947 1169 1205 825 
Q 1463 481 1925 481 
Q 2391 481 2648 825 
Q 2906 1169 2906 1791 
z
M 3481 434 
Q 3481 -459 3084 -895 
Q 2688 -1331 1869 -1331 
Q 1566 -1331 1297 -1286 
Q 1028 -1241 775 -1147 
L 775 -588 
Q 1028 -725 1275 -790 
Q 1522 -856 1778 -856 
Q 2344 -856 2625 -561 
Q 2906 -266 2906 331 
L 2906 616 
Q 2728 306 2450 153 
Q 2172 0 1784 0 
Q 1141 0 747 490 
Q 353 981 353 1791 
Q 353 2603 747 3093 
Q 1141 3584 1784 3584 
Q 2172 3584 2450 3431 
Q 2728 3278 2906 2969 
L 2906 3500 
L 3481 3500 
L 3481 434 
z
" transform="scale(0.015625)"/>
      </defs>
      <use xlink:href="#DejaVuSans-41"/>
      <use xlink:href="#DejaVuSans-6a" x="68.408203"/>
      <use xlink:href="#DejaVuSans-75" x="96.191406"/>
      <use xlink:href="#DejaVuSans-73" x="159.570312"/>
      <use xlink:href="#DejaVuSans-74" x="211.669922"/>
      <use xlink:href="#DejaVuSans-65" x="250.878906"/>
      <use xlink:href="#DejaVuSans-20" x="312.402344"/>
      <use xlink:href="#DejaVuSans-67" x="344.189453"/>
      <use xlink:href="#DejaVuSans-61" x="407.666016"/>
      <use xlink:href="#DejaVuSans-75" x="468.945312"/>
      <use xlink:href="#DejaVuSans-73" x="532.324219"/>
      <use xlink:href="#DejaVuSans-73" x="584.423828"/>
      <use xlink:href="#DejaVuSans-69" x="636.523438"/>
      <use xlink:href="#DejaVuSans-61" x="664.306641"/>
      <use xlink:href="#DejaVuSans-6e" x="725.585938"/>
      <use xlink:href="#DejaVuSans-6f" x="788.964844"/>
     </g>
    </g>
   </g>
  </g>
 </g>
 <defs>
  <clipPath id="p0a50d92624">
   <rect x="57.6" y="41.472" width="357.12" height="266.112"/>
  </clipPath>
 </defs>
</svg>
